<?xml version="1.0" encoding="UTF-8"?>
<svg xmlns="http://www.w3.org/2000/svg" viewBox="0 0 240.49 318.42">
    <defs>
        <style>
            .cls-1 {
            fill: #d5f900;
            }

            .cls-2 {
            fill: #050a07;
            }

            .cls-3 {
            fill: #efb5e7;
            }

            .cls-4 {
            fill: none;
            stroke: #050a07;
            stroke-miterlimit: 10;
            stroke-width: 8.27px;
            }
        </style>
    </defs>
    <g>
        <g>
            <g>
                <path class="cls-2"
                      d="M233.79,146.29c5.02-1.15,6.72,2.15,5.91,6.65-.79,4.23-5.91,14.73-8.61,18.17-3.59,4.59-10.11,2.01-8.63-3.78.43-1.7,4.33-7.41,5.43-9.83,1.29-2.77,2.15-6.53,3.32-8.94.41-.84,1.67-2.06,2.58-2.27Z"/>
                <path class="cls-2"
                      d="M220.4,131.09c2.39,2.15,1.2,7.15.74,9.99-1.67,10.07-9.13,30.1-15.9,37.68-2.96,3.35-8.22,2.2-8.54-2.27-.17-2.32,4.45-8.46,5.76-10.93,3.3-6.12,6.17-13.2,7.96-19.94.98-3.73,1.43-10.04,2.61-13.03,1.05-2.65,5.43-3.25,7.36-1.51Z"/>
                <path class="cls-2"
                      d="M203.28,54.61c12.98,41.29-9.63,68.07-25.89,102.64-9.3,19.77-11.79,32.16-8.8,54.1.12.98.88,1.7.19,2.96h6.5c5.24,0,11.81,5.64,13.05,10.76,2.85,11.88,3.01,25.73,5.74,37.8-1.34,12.19-11.98,14.7-21.21,18.98-10.76,4.97-21.92,10.71-32.85,15.13-6.31,2.53-11.09,3.44-17.96,3.3-8.99-.19-16.57-.02-20.7-9.06-4.85-10.66-7.91-23.14-12.48-34.02-1.58-10.02,7.15-11.07,13.63-15.21-5.67-18.53-10.35-38.44-26.78-50.54-11.86-8.73-27.14-14.78-39.76-22.76C-41.03,120.04,22.01,24.96,88.88,5.47c45.57-13.32,98.91-.14,114.4,49.13ZM195.51,91.28c1.22-6.91,1.36-13.58,1.17-20.61-1.08-.17-.6.26-.79.88-1.84,6.02-3.01,11.33-5.36,17.33-9.78,25.13-24.1,49.18-27.71,76.29l5.26-11.67c9.73-20.44,23.45-39.47,27.42-62.23ZM175.93,98.48c7.44-16.66,17.62-40.24,8.03-57.67-14.99-27.26-52.67-33.23-80.79-28.12l-6.22,1.41c16.47,3.61,29.07,20.25,34.91,35.26,6.02,15.59,4.81,27.52,6.02,43.47.45,6.1,6.5,12.48,12.03,14.75,5.12,2.1,10.18,2.03,15.54.88,1.29-.29,5.83-1.55,6.67-2.27.77-.67,3.18-6.34,3.8-7.72ZM172.13,263.23c1.12,3.44,12.6,4.71,11.5-4.04-1.24-9.66-3.83-20.18-4.59-30-.12-.48-.29-.91-.45-1.29-2.01-4.83-6.74-4.4-10.93-3.16,1.34,12.84,4.09,25.58,4.47,38.49ZM161.64,265.02c1.65-4.57-.02-12.7-.72-17.74-.72-5.31-1.58-14.18-2.94-19.01-.12-.41-.1-.67-.53-.93l-58.19,27.57,11.93,33.73c1.41,1.46,6.29-1.03,7.99-1.7,11.57-4.69,25.27-10.52,36.34-16.14,3.16-1.58,4.81-2.22,6.12-5.79ZM167.3,117.58c-10.33,2.77-20.85.43-29.02-6.34.67,16.33.62,32.68,3.04,48.87.86,5.83,2.32,11.55,3.3,17.36l8.92-.74c-.29-.57-.38-1.03-.41-1.65-.24-9.92.24-16.42,2.75-25.96,2.85-10.85,6.98-21.28,11.43-31.53ZM159.48,216.92l-2.25-13.39c-10.42,6.5-21.68,12.29-33.57,15.71-2.49.72-6.14,1.91-8.65,2.15-2.41.22-5.16-.19-7.63,0l5,16.33,39.78-19.01c2.34-.86,4.76-1.77,7.32-1.79ZM154.82,192.72c2.25-2.2,1.43-3.06,2.06-5.95-4.14.05-8.3.41-12.34,1.24-9.99,2.06-29.74,12.22-37.7,18.86-1.15.98-2.82,2.03-3.16,3.49.17.74,3.83,1.29,4.64,1.34,11.52.69,38.21-10.85,46.5-18.98ZM114.44,189.95l20.82-9.52c-2.82-12.43-4.49-25.03-5.57-37.73l-.36-25.15c-.88.33-1.17,1.94-1.6,2.49-3.37,4.26-8.97,9.4-13.77,12.1-9.56,5.38-20.18,5.71-30.39,1.79l12.43,19.01c7.2,11.79,13.8,23.98,18.43,37.01ZM128.4,96.71c.86-2.65.19-3.11.19-5.36-.12-16.45-1.51-32.3-9.75-46.84-6.17-10.9-20.85-25.49-34.24-24.7-19.15,1.1-27.61,18.29-29.31,35.43-1.91,19.44,2.73,33.38,10.85,50.54,3.9,8.27,5.43,12.26,13.82,16.66,24.15,12.67,41.17-3.35,48.44-25.75ZM98.28,201.66l7.27-5.83c-5.24-21.28-18.86-39.35-30.53-57.43l-.74.19c-.19,6.72-2.44,13.44-6.5,18.79l-9.49,9.11c11.69,8.06,24.2,15.47,33.47,26.42l6.53,8.75ZM64.04,148.47c2.37-5,3.59-13.36,3.18-18.82-.45-5.91-3.68-8.54-6.41-13.32-4.02-7.05-8.08-16.21-10.73-23.88-5.74-16.64-5.86-35.29-1.48-52.29l-3.73,2.8c-26.66,25.29-51.95,73.21-17.29,102.88,7.08,6.05,15.54,11.28,23.38,16.33,4.83-3.94,10.33-7.89,13.08-13.7Z"/>
                <path class="cls-1"
                      d="M196.69,70.67c.19,7.03.05,13.7-1.17,20.61-3.97,22.76-17.69,41.79-27.42,62.23l-5.26,11.67c3.61-27.11,17.93-51.16,27.71-76.29,2.34-6,3.51-11.31,5.36-17.33.19-.62-.29-1.05.79-.88Z"/>
                <path class="cls-1"
                      d="M183.97,40.81c9.59,17.43-.6,41-8.03,57.67-.62,1.39-3.04,7.05-3.8,7.72-.84.72-5.38,1.98-6.67,2.27-5.36,1.15-10.42,1.22-15.54-.88-5.52-2.27-11.57-8.65-12.03-14.75-1.22-15.95,0-27.88-6.02-43.47-5.83-15.01-18.43-31.65-34.91-35.26l6.22-1.41c28.12-5.12,65.8.86,80.79,28.12Z"/>
                <path class="cls-3"
                      d="M183.63,259.19c1.1,8.75-10.38,7.48-11.5,4.04-.38-12.91-3.13-25.65-4.47-38.49,4.38.57,8.94-1.39,10.93,3.16.17.38.33.81.45,1.29.77,9.83,3.35,20.35,4.59,30Z"/>
                <path class="cls-3" d="M178.59,227.89c-1.98-4.54-6.55-2.58-10.93-3.16,4.18-1.24,8.92-1.67,10.93,3.16Z"/>
                <path class="cls-3"
                      d="M160.92,247.28c.69,5.04,2.37,13.17.72,17.74-1.31,3.56-2.96,4.21-6.12,5.79-11.07,5.62-24.77,11.45-36.34,16.14-1.7.67-6.57,3.16-7.99,1.7l-11.93-33.73,58.19-27.57c.43.26.41.53.53.93,1.36,4.83,2.22,13.7,2.94,19.01Z"/>
                <path class="cls-1"
                      d="M138.28,111.24c8.18,6.77,18.7,9.11,29.02,6.34-4.45,10.26-8.58,20.68-11.43,31.53-2.51,9.54-2.99,16.04-2.75,25.96.02.62.12,1.08.41,1.65l-8.92.74c-.98-5.81-2.44-11.52-3.3-17.36-2.41-16.19-2.37-32.54-3.04-48.87Z"/>
                <path class="cls-1"
                      d="M156.88,186.77c-.62,2.89.19,3.75-2.06,5.95-8.3,8.13-34.98,19.68-46.5,18.98-.81-.05-4.47-.6-4.64-1.34.33-1.46,2.01-2.51,3.16-3.49,7.96-6.65,27.71-16.81,37.7-18.86,4.04-.84,8.2-1.2,12.34-1.24Z"/>
                <path class="cls-1"
                      d="M135.27,180.43l-20.82,9.52c-4.64-13.03-11.24-25.22-18.43-37.01l-12.43-19.01c10.21,3.92,20.82,3.59,30.39-1.79,4.81-2.7,10.4-7.84,13.77-12.1.43-.55.72-2.15,1.6-2.49l.36,25.15c1.08,12.7,2.75,25.29,5.57,37.73Z"/>
                <path class="cls-1"
                      d="M128.59,91.35c0,2.25.67,2.7-.19,5.36-7.27,22.4-24.29,38.42-48.44,25.75-8.39-4.4-9.92-8.39-13.82-16.66-8.13-17.17-12.77-31.1-10.85-50.54,1.7-17.14,10.16-34.33,29.31-35.43,13.39-.79,28.07,13.8,34.24,24.7,8.25,14.54,9.63,30.39,9.75,46.84Z"/>
                <path class="cls-1"
                      d="M105.55,195.83l-7.27,5.83-6.53-8.75c-9.28-10.95-21.78-18.36-33.47-26.42l9.49-9.11c4.06-5.36,6.31-12.07,6.5-18.79l.74-.19c11.67,18.07,25.29,36.15,30.53,57.43Z"/>
                <path class="cls-2"
                      d="M81.83,304.42c3.13,1.84,8.97,3.13,6,8.46-2.7,4.83-10.26-.05-13.53-2.06-9.37-5.74-18.89-15.83-24.74-25.1-1.2-1.91-3.99-6.31-4.28-8.37-.69-5.07,3.66-7.36,7.67-4.52,6.77,13.17,16.09,24.03,28.88,31.58Z"/>
                <path class="cls-1"
                      d="M67.22,129.65c.41,5.45-.81,13.82-3.18,18.82-2.75,5.81-8.25,9.75-13.08,13.7-7.84-5.04-16.31-10.28-23.38-16.33-34.67-29.67-9.37-77.58,17.29-102.88l3.73-2.8c-4.38,17-4.26,35.65,1.48,52.29,2.65,7.67,6.72,16.83,10.73,23.88,2.73,4.78,5.95,7.41,6.41,13.32Z"/>
                <path class="cls-2"
                      d="M60.43,312.07c.88,3.85-1.89,6.26-5.67,5.67-3.3-.55-13.41-9.92-14.87-13.05-1.17-2.49-.14-5.93,2.63-6.57.72-.17,1.79-.17,2.51-.05,1.77.29,5.52,5.31,7.27,6.86,1.86,1.65,7.65,5.04,8.13,7.15Z"/>
            </g>
            <path class="cls-4" d="M176.75,109.13c.39,10.31,8.95,13.32,14.49,7.97"/>
        </g>
    </g>
</svg>