<?xml version="1.0" encoding="UTF-8"?>
<svg xmlns="http://www.w3.org/2000/svg" viewBox="0 0 257.63 329.82">
    <defs>
        <style>
            .cls-1 {
            fill: #d5f900;
            }

            .cls-2 {
            fill: #050a07;
            }

            .cls-3, .cls-4 {
            fill: #fff;
            }

            .cls-5 {
            fill: #efb5e7;
            }

            .cls-4 {
            stroke: #050a07;
            stroke-miterlimit: 10;
            stroke-width: 6.4px;
            }
        </style>
    </defs>
    <g>
        <g>
            <g>
                <path class="cls-2"
                      d="M252.9,112.55c4.42-1.01,5.03,3.42,4.44,6.73-.56,3.19-4.54,15.01-7.49,16.2-2.46,1-5.46-.19-5.65-2.96-.15-2.13,2.5-6.91,3.37-9.26,1.01-2.76,2.38-10.03,5.33-10.71Z"/>
                <path class="cls-2"
                      d="M238.84,182.99c13.19,10.14,10.48,32.27,3.29,45.24-.88,1.6-5.46,7.8-5.55,8.62-.14,1.4,2.64,5.88,3.35,7.7,5.18,13.27,3.61,30.94-7.97,40.36-8.17,6.65-18.24,6.92-26.5.22-1.89-1.53-3.37-3.79-5.19-5.19-11.48,7.31-23.19,14.23-34.71,21.47-13.19,8.28-27.73,19.26-41.17,26.44-4.55,2.43-6.49,2.29-11.29.74l-103.31-42.23c-4.3-1.76-5.56-5.89-5.86-10.18-1.07-14.97-.88-30.14-1.5-45.11-.69-16.72-1.99-33.67-2.32-50.39-.16-7.73,1.33-9.1,7.9-12.38,23.25-11.57,47.9-20.94,70.74-33.17,1.94-7.37,7.27-12.24,12.88-16.92,4.34-3.62,15.6-10.24,16.52-15.57.58-3.39-.55-7.71-4.39-8.42-13.15-2.41-6.46,17.11-19.38,16.73-3.67-.11-20.76-4.34-24.38-5.83-7.36-3.03-4.87-12.17-3.06-18.16,4.62-15.24,15.61-27.23,31.05-31.8l-4.84-10.34c-4.35-.96-8.73-1.84-13.05-2.9-7.23-1.77-23.53-3.41-20.82-14.18,1.03-4.08,11.61-12.3,15.22-15.34,3.51-2.96,13.19-11.8,17.18-12.24,2.62-.29,5,.43,7.53.88,37.01,6.65,74.08,17.24,111.02,24.59,10.88,1.6,13.18,16.34,15.16,25.33,6.73,30.53,4.16,60.51-1.08,90.99-1.6,9.32-3.73,16.07-3.68,25.7.03,6.82-.06,13.64-.01,20.45,7.16-8.45,18.64-12.5,28.23-5.12ZM231.86,226.36c5.5-8.21,8.12-18.99,5.21-28.62-1.41-4.66-4.41-8.45-9.76-7.63-6.43.99-11.79,11.56-13.84,17.1-4.63,12.53-7.85,43.96-5.82,56.99,1.39,8.93,7.48,19.51,17.81,13.07,8.59-5.36,8.9-22.6,4.43-30.73-2.48-4.5-4.83-5.05-3.98-11.23.44-3.19,4.12-6.26,5.94-8.96ZM199.53,160.22c7.49-38.14,13.42-78.04,2.29-116.13-.58-.16-.63.15-.96.37-2.34,1.62-4.98,4.74-7.48,6.65-12.72,9.72-23.25,11.72-39,8.9-18.83-3.38-37.55-8.91-56.46-12.1.45,1.1,1.69,5.37,2.54,5.67,1.21.41,4.45-.07,6.05.06,42.33,3.69,60.1,51.38,27.7,79.65-2.84,2.48-6.2,4.29-9.07,6.57-.31.24-.7-.02-.48.87l74.87,19.49ZM199.55,188.32c.08-4.27-.1-8.55-.02-12.81l-1.16.17-73.33,42.04v96.08l71.35-44.77-1.61-17.14c-.68-.94-17.84-2.99-21.8-6.85-7.69-7.5-3.92-24.94,5.66-29.48,5.78-2.74,12.34.19,18.21,1.21.1-2.19.46-4.43.88-6.57,1.45-7.47,1.67-14.25,1.82-21.87ZM181.08,237.32l14.25,2.75c-.16-3.72.87-7.36,1.12-11.05-2.4-.25-12.58-3.59-14.1-2.9-2.32,1.05-3.27,10.32-1.28,11.2ZM193.41,35.88c-.33-.57-.82-.45-1.31-.6-12.45-3.67-27.43-6.11-40.32-8.96-22.47-4.98-44.98-9.8-67.48-14.68-1.36-.03-3.36,1.82-4.52,2.66-5.17,3.79-9.81,8.34-14.91,12.22l-2.11,2.28,100.26,21.03c12.65.96,22.15-5.02,30.38-13.96ZM186.67,169.71l.63-1.08-74.12-19.32c-.47.92-1.47,3.61-.96,4.42.21.33,5.47,2.98,6.71,4,4.95,4.12,6.75,9.54,4.21,15.68-.35.85-1.93,2.92-1.93,3.43,0,.36,3.33,4.8,3.9,6.04,4.23,9.28.79,18.37-6.94,24.32,1.49.66,2.74-.39,4.08-1.08,21.76-11.14,42.85-24.83,64.43-36.42ZM124.07,127.36c30.51-24.16,12.39-66.29-25.85-62.91-11.65,1.03-22.01,7.58-27.63,17.83-2.11,3.84-3.94,8.66-3.84,13.02,2.81.4,13.94,4.43,16,3.74.94-.31,1.52-3.49,1.98-4.52,11.04-24.88,43.95-7.01,32.59,15.01-7.09,13.73-24.85,14.45-29.62,32.65-.39,1.49-1.92,6.52-.88,7.54.48.48,12.44,3.36,13.18,3.25,1.52-.22,1.92-4.69,2.38-6.05,3.76-10.96,13.46-13.06,21.68-19.58ZM105.28,203.32c6.2-3.36,14.33-8.61,9.65-16.75-.31-.53-.83-1.47-1.36-1.73-.69-.34-6.14,2.8-7.43,3.27-9.28,3.47-22.84,2.96-31.4-2.23-9.5-5.76-7.96-16.67,2.17-20.5,8.26-3.12,19.83-1.57,27.98,1.43,2.7.99,5.22,2.34,7.73,3.73,2.48-3.11-3.51-7.53-6.07-7.26-.94.1-2.22.96-3.52,1.1-2.87.32-18.78-3.3-21.63-4.64-4.04-1.89-6.05-6.22-5.65-10.59l-55.38,25.97,84.91,28.2ZM113.96,316.85v-98.37l-1.15-.76L12.74,183.7l-1.54-.18c-.36,2.6.33,5.36.4,7.82.66,24.62,1.63,49.16,2.65,73.75.16,3.87-.17,7.74.45,11.59l99.26,40.17ZM104.3,177.88c.34-.19,1.04-.29.49-.84-.27-.28-5.98-1.91-6.87-2.11-4.49-1.01-11.35-1.86-15.75-.46-4.16,1.33-2.78,3.37.47,4.66,5.67,2.27,16.29,1.72,21.66-1.25Z"/>
                <path class="cls-2"
                      d="M236.86,97.28c6.82-1.56,5.91,7.03,5.41,11.14-.94,7.66-4.64,20.29-8.67,26.86-1.6,2.59-4.36,5-7.31,2.59-3.7-3.01.84-9.42,2.18-13.07,1.91-5.23,3.46-10.6,4.56-16.07.59-2.97.42-10.67,3.83-11.45Z"/>
                <path class="cls-3"
                      d="M237.07,197.74c2.91,9.63.29,20.41-5.21,28.62-1.81,2.7-5.5,5.77-5.94,8.96-.85,6.18,1.51,6.73,3.98,11.23,4.48,8.13,4.16,25.37-4.43,30.73-10.33,6.44-16.42-4.14-17.81-13.07-2.04-13.03,1.19-44.46,5.82-56.99,2.05-5.54,7.41-16.12,13.84-17.1,5.34-.82,8.35,2.96,9.76,7.63ZM223.69,224.3c4.87-1.97,8.13-12.83,7.95-17.68-.11-2.85-1.13-6.65-4.71-5.83-3.75.87-7.11,10.25-7.74,13.65-.65,3.52-1.57,12.32,4.5,9.85ZM222.26,269.48c5.03-3.27,3.43-14.98.81-19.54-1.2-2.09-2.23-3.53-4.93-2.93-3.58.8-3.93,9.81-3.71,12.71.29,3.65,2.46,13.24,7.83,9.75Z"/>
                <path class="cls-2"
                      d="M231.64,206.62c.18,4.85-3.08,15.7-7.95,17.68-6.07,2.47-5.16-6.33-4.5-9.85.63-3.41,3.99-12.79,7.74-13.65,3.58-.83,4.6,2.97,4.71,5.83Z"/>
                <path class="cls-2"
                      d="M223.07,249.95c2.62,4.55,4.21,16.27-.81,19.54-5.37,3.49-7.54-6.1-7.83-9.75-.23-2.91.13-11.91,3.71-12.71,2.7-.6,3.73.84,4.93,2.93Z"/>
                <path class="cls-1"
                      d="M201.82,44.1c11.13,38.08,5.2,77.99-2.29,116.13l-74.87-19.49c-.22-.88.18-.63.48-.87,2.87-2.28,6.23-4.09,9.07-6.57,32.39-28.28,14.63-75.96-27.7-79.65-1.6-.14-4.84.35-6.05-.06-.86-.29-2.09-4.57-2.54-5.67,18.91,3.19,37.63,8.73,56.46,12.1,15.75,2.82,26.27.83,39-8.9,2.5-1.91,5.15-5.03,7.48-6.65.32-.23.38-.53.96-.37Z"/>
                <path class="cls-1"
                      d="M199.53,175.51c-.07,4.26.1,8.55.02,12.81-.15,7.62-.37,14.39-1.82,21.87-.42,2.15-.78,4.39-.88,6.57-5.87-1.03-12.43-3.96-18.21-1.21-9.58,4.54-13.34,21.98-5.66,29.48,3.96,3.86,21.12,5.92,21.8,6.85l1.61,17.14-71.35,44.77v-96.08l73.33-42.04,1.16-.17Z"/>
                <path class="cls-3"
                      d="M195.33,240.07l-14.25-2.75c-2-.88-1.04-10.16,1.28-11.2,1.51-.68,11.7,2.65,14.1,2.9-.24,3.69-1.28,7.33-1.12,11.05Z"/>
                <path class="cls-1"
                      d="M192.1,35.28c.49.14.97.03,1.31.6-8.23,8.94-17.73,14.92-30.38,13.96L62.77,28.81l2.11-2.28c5.1-3.88,9.74-8.43,14.91-12.22,1.15-.84,3.16-2.69,4.52-2.66,22.5,4.87,45.01,9.7,67.48,14.68,12.89,2.85,27.88,5.29,40.32,8.96Z"/>
                <path class="cls-5"
                      d="M187.3,168.63l-.63,1.08c-21.58,11.59-42.67,25.28-64.43,36.42-1.34.69-2.59,1.74-4.08,1.08,7.73-5.95,11.18-15.04,6.94-24.32-.56-1.23-3.9-5.68-3.9-6.04,0-.52,1.57-2.59,1.93-3.43,2.55-6.14.74-11.56-4.21-15.68-1.23-1.03-6.5-3.67-6.71-4-.51-.81.49-3.5.96-4.42l74.12,19.32Z"/>
                <path class="cls-3"
                      d="M98.22,64.45c38.24-3.39,56.36,38.74,25.85,62.91-8.22,6.52-17.93,8.62-21.68,19.58-.47,1.36-.86,5.83-2.38,6.05-.74.1-12.7-2.78-13.18-3.25-1.04-1.02.49-6.05.88-7.54,4.77-18.2,22.53-18.92,29.62-32.65,11.37-22.02-21.55-39.89-32.59-15.01-.46,1.03-1.04,4.21-1.98,4.52-2.06.68-13.19-3.35-16-3.74-.11-4.36,1.73-9.18,3.84-13.02,5.62-10.25,15.98-16.8,27.63-17.83Z"/>
                <path class="cls-5"
                      d="M114.93,186.57c4.68,8.14-3.45,13.39-9.65,16.75l-84.91-28.2,55.38-25.97c-.4,4.37,1.61,8.69,5.65,10.59,2.85,1.34,18.76,4.96,21.63,4.64,1.3-.14,2.58-1,3.52-1.1,2.56-.26,8.55,4.16,6.07,7.26-2.51-1.39-5.03-2.74-7.73-3.73-8.15-2.99-19.72-4.55-27.98-1.43-10.13,3.83-11.67,14.73-2.17,20.5,8.56,5.19,22.12,5.71,31.4,2.23,1.29-.48,6.74-3.61,7.43-3.27.53.26,1.05,1.2,1.36,1.73Z"/>
                <path class="cls-1"
                      d="M113.96,218.48v98.37l-99.26-40.17c-.62-3.85-.29-7.71-.45-11.59-1.02-24.58-1.99-49.13-2.65-73.75-.06-2.46-.76-5.22-.4-7.82l1.54.18,100.07,34.01,1.15.76ZM74.8,249.61c6.91-5.64,9.03-12.66,6.41-21.29-3.32-10.9-14.52-16.33-25.4-16.03-6.54.18-12.71,3.05-16.12,8.71-1.33,2.2-4.12,8.56-2.36,10.7.64.78,6.86,2.51,8.1,2.61,4.04.33,3.14-1.97,4.39-4.69,6.01-13.01,28.14.85,14.86,12.56-5.73,5.05-11.47,6.39-12.57,15.7-.78,6.54.92,8.09,7.41,8.55,6.02.43,3.82-3.59,4.41-7.41.58-3.75,8.01-7.07,10.86-9.39ZM59.74,284.22c7.69-1.71,3.75-14.18-3.93-13.14-8.22,1.11-3.87,14.87,3.93,13.14Z"/>
                <path class="cls-5"
                      d="M104.79,177.04c.55.56-.15.66-.49.84-5.37,2.97-15.99,3.51-21.66,1.25-3.25-1.3-4.63-3.34-.47-4.66,4.4-1.4,11.26-.55,15.75.46.89.2,6.6,1.83,6.87,2.11Z"/>
                <path class="cls-2"
                      d="M81.21,228.31c2.62,8.64.5,15.65-6.41,21.29-2.84,2.32-10.28,5.65-10.86,9.39-.59,3.82,1.61,7.84-4.41,7.41-6.49-.46-8.19-2.01-7.41-8.55,1.1-9.31,6.84-10.65,12.57-15.7,13.29-11.71-8.84-25.57-14.86-12.56-1.26,2.72-.35,5.03-4.39,4.69-1.24-.1-7.46-1.83-8.1-2.61-1.76-2.14,1.02-8.5,2.36-10.7,3.42-5.66,9.58-8.53,16.12-8.71,10.88-.3,22.08,5.13,25.4,16.03Z"/>
                <path class="cls-2"
                      d="M55.81,271.08c7.68-1.04,11.62,11.43,3.93,13.14-7.79,1.73-12.15-12.03-3.93-13.14Z"/>
            </g>
            <rect class="cls-4" x="72.25" y="162.18" width="27.74" height="27.74" rx="13.87" ry="13.87"/>
        </g>
    </g>
</svg>