<?xml version="1.0" encoding="UTF-8"?>
<svg xmlns="http://www.w3.org/2000/svg" viewBox="0 0 275.94 274.18">
    <defs>
        <style>
            .cls-1 {
            fill: #d5f900;
            }

            .cls-2 {
            fill: #050a07;
            }

            .cls-3 {
            fill: #fff;
            }

            .cls-4 {
            fill: #efb5e7;
            }
        </style>
    </defs>
    <g>
        <g>
            <path class="cls-1"
                  d="M71.86,33.81c-1.56,8.16-1.42,16.82,6.26,21.76,4.29,2.76,11.39,3.88,15.37.04,2.81-2.71,2.91-7.6-.62-9.67-3-1.75-9.39,1.71-9.3-4.25,0-.6.93-5.89,1.09-6.19.19-.34.21-.23.56-.27l101.66,10.66c-.83,6.01-1.59,11.16,1.4,16.73s9.66,8.58,15.83,6.91c5.02-1.36,8.41-7.13,4.19-11.19-2.83-2.72-4.44-.55-7.32-1.11-3.51-.69-2.9-7.49-1.8-9.9l41.98,4.53c6.6,1.36,9.52,5.33,8.71,12.16-11.95,53.24-21.36,107.17-33.87,160.28-2.21,9.38-4.54,17-15.74,17.96l-42.85-8.1-.52-.58c-.95-9.62-4.72-19.23-9.39-27.61-4.65-8.33-11.21-18.34-22.25-16-.84.18-1.77.97-2.62.89-1.61-.14-3.4-1.52-5.9-1.37-3.08.17-5.03,2.39-6.76,2.77-.34.07-2.57-.83-3.51-.93-2.68-.27-5.29-.05-7.75,1.03-.92.41-2.11,1.96-3.05,1.36l-12.08-20.93s-27.57,12.96-23.13,12.72c4.6,11.33,10.35,22.17,15.43,33.29-5.46-1.83-11.29-3.13-16.48.21-12.29-2.53-26.78-3.6-38.84-6.98-5.87-1.64-8.57-5.22-8.71-11.36,10.83-52.84,22.41-105.57,33.98-158.26,4.56-12.82,15.18-9.62,26.02-8.59ZM90.17,81.43c.3.44,9.42,1.24,10.63.93.74-.19,1.89-1,2.6-1.43,4.26-2.55,8.12-6.32,12.59-8.65,1.1,0,14.73,10.69,17.13,12.17.7.43,1.57,1.13,2.36,1.3,6.56,1.37,11.11-6.82,16.78-4.32,4.56,2.01,10.53,7.82,14.99,9.19,2.04.62,7.39,1.32,9.6,1.43.59.03.88-.02,1.23-.54l-.53-1.29c-4.27-2.78-10.76-11.83-15.11-13.46-1.67-.63-3.33-.07-4.53-.97l-14.8-19.64c-2.27-2.1-4.89-1.97-7.43-.44-4.26,2.57-8.52,7.15-12.79,9.92-3.4-2-5.7-4.22-9.91-2.21l-22.28,16.55c-.44.23-.75,1.16-.54,1.47ZM56.37,86.28c-2.32.39-3.36,2.02-3.99,4.08-2.96,9.67-3.83,21.07-6.87,30.86-.46,2.12.66,4.76,2.63,5.72,2.16,1.05,8.58,1.07,11.39,1.43,8.76,1.13,18.87,3.15,27.52,3.61,4.24.22,5.87-.11,7.03-4.32,2.77-9.99,4.02-20.99,6.66-31.08.3-3.92-1.27-5.32-4.94-5.96-4.87-.85-10.65-.94-15.67-1.55-6.87-.84-15.76-2.72-22.41-2.9-.48-.01-.89.01-1.36.09ZM114.61,93.6c-1.35.27-2.95,1.62-3.18,3.05-1.47,10.6-6,22.24-7.25,32.67-.48,3.98.91,5.14,4.59,5.85,10.09,1.95,22.96,3.38,33.28,4.45,6.84.71,8.54,1.77,10.65-5.36,2.43-8.19,5-19.13,6.52-27.55s-.44-7.96-7.74-9.11c-9.3-1.47-19.9-2.84-29.26-3.71-2.16-.2-5.6-.69-7.61-.29ZM175.07,100.18c-2.54.6-3.15,2.4-3.84,4.62-3.27,10.46-4.35,22.63-7.39,33.28-.55,3.81,1.99,4.49,5.02,5.15,10.3,2.23,21.7,2.68,32.14,4.53,6.08-.37,11.86-4.05,13.91-9.9s5.08-20.24,5.63-26.24c.28-3,.15-5.42-3.16-6.27l-42.3-5.15ZM103.62,142.32c-2.01.52-2.81,2.03-3.46,3.86-1.11,9.71-5.78,20.61-6.97,30.03-.49,3.9.07,6.1,4.16,7,12.3,2.71,26.4,2.62,38.84,5.51,3.68-.12,4.6-2.35,5.52-5.39,2.41-8.01,5.14-20.35,6.53-28.64.52-3.11.68-5.75-2.75-7.16-13.91-1.89-27.88-4.27-41.87-5.22ZM163.33,149.65c-2.61.53-2.9,3.12-3.54,5.26-3.08,10.32-4.77,21.48-7.69,31.9-.11,3.28,2.45,4.92,5.38,5.53,10.3,2.13,21.78,2.36,32.18,4.45,7.3-.79,12.85-4.47,14.98-11.68,1.79-6.07,4.32-16.45,5.21-22.63.72-5.04.04-6.27-4.95-7.3-12.32-2.55-25.63-3.05-38.04-5.56-1.14-.05-2.42-.19-3.53.04Z"/>
            <g>
                <path class="cls-2"
                      d="M85.42,140.84c3.9.73,5.56,2.32,5.24,6.79-2.8,11.49-4.13,24.03-7.07,35.41-1.23,4.79-2.96,5.17-7.45,4.92-9.19-.52-19.91-2.83-29.2-4.12-2.98-.41-9.79-.43-12.08-1.63-2.08-1.09-3.28-4.1-2.79-6.51,3.22-11.16,4.15-24.15,7.29-35.17.67-2.35,1.76-4.2,4.23-4.65.5-.09.93-.12,1.44-.11,7.05.21,16.49,2.35,23.77,3.3,5.33.69,11.45.8,16.62,1.76ZM75.17,174.97l4.65-25.44-31.84-4.19-5.05,25.47,32.24,4.17Z"/>
                <polygon class="cls-2" points="79.82 149.53 75.17 174.97 42.92 170.8 47.97 145.34 79.82 149.53"/>
            </g>
            <path class="cls-3"
                  d="M129.37,198.29c3.3.55,5.39,4.01,7.11,6.62,6.18,9.37,13.04,24.9,10.23,36.18-3.31,13.3-22.29,23.96-35.38,22.31-8.93-1.12-24.94-13.83-32.48-19.54-2.97-2.25-13.22-9.84-14.47-12.64-1.49-3.36,1.69-4.73,4.69-4.32,5.91.81,15.19,9.59,20.99,11.97,3.32.88,5.16-2.47,4.21-5.31-3.99-7.52-7.97-15.05-11.75-22.68-4.53-9.15-11.09-20.89-14.52-30.17-.74-2.01-1.51-4,.01-5.84,1.93-2.33,4.72-1.1,6.33.96,4.75,6.11,10.35,17.65,14.41,24.78,2.77,4.86,5.69,11.77,8.79,16.12,2.97,4.17,9.47,1.31,7.44-4.51-.88-2.54-4.56-7.78-4.88-9.8-.39-2.51,3.45-3.52,5.45-1.76,2.63,2.32,4.57,9.22,6.93,11.75,1.59,1.7,4.61,1.62,6.26.01,3.47-3.38-2.21-9.42-3.5-12.68-.76-1.92,2.4-2.26,3.84-1.26,2.52,1.77,5.44,10.56,8.05,11.37,1.47.46,3.47.15,4.61-.93,3.34-3.17-2.97-10.08-2.39-10.63Z"/>
            <path class="cls-4"
                  d="M261.6,72.64c.12.1,1.3,2.35,1.48,2.74,1.14,2.45,1.72,4.97,1.45,7.69-11.89,55.51-23.1,111.27-36.08,166.49-3.01,7.11-9.95,12.67-17.96,12.11l-56.95-11.01,1.5-4.72c15.12,2.2,30.07,5.99,45.2,8.38,12.19-.4,21.77-7.54,25.63-19.06,11.88-53.98,23.66-107.99,34.99-162.1-.2-.6.5-.74.74-.53Z"/>
            <path class="cls-2"
                  d="M262.99,54.96c-5.63-8.03-7.62-13.09-18.52-15.18-6.94-1.33-14.65-1.25-21.69-2.31,1.29-6.37,2.84-12.69-.58-18.65-5.41-9.43-18.37-10.08-26.17-3.15-5.39,4.8-6.26,11.67-6.96,18.5l-80.54-8.84c.64-5.76,2.1-10.43-.23-16.07-3.76-9.08-15.69-11.67-23.82-6.98-7.04,4.06-9.35,11.81-10.44,19.41-8,0-16.02-2.02-23.87.49-7.59,2.42-13.24,8.64-15.78,16.09C22.43,91.67,10.85,145.21.06,198.84c-.5,8.28,2.12,16.13,8.82,21.21,1.61,1.22,4.25,2.19,5.48,3.31,2.56,2.33,4.93,8.19,7.49,11.19,3.22,3.78,8.13,6.43,12.89,7.66,11.4,2.96,23.72,4.28,35.18,7.28,13.92,8.77,29.05,25.69,46.83,24.63,11.22-.67,20.91-7.56,30-13.22l59.78,12.05c14.02,1.62,25.27-4.62,31.9-16.72,13.64-57.28,25.78-115.06,37.47-172.8.7-12.16-6.46-19.31-12.9-28.49ZM208.5,22.97c3.31.61,3.47,3.42,3.24,6.22-.1,1.19-.9,6.89-1.95,7.05l-8.63-.96c.51-3.97,1.38-13.41,7.34-12.3ZM92.93,11.82c1.15-.06,2.54.4,3.34,1.24,2.57,2.69-.04,8.29-.25,11.6l-9.52-1.1c.66-3.71,1.53-11.47,6.42-11.73ZM29.54,226.86c-.28-.37-.71-.46-.55-1.1l25.47,4.75,1.63,4.59c-7.29-1.92-21.71-1.9-26.55-8.24ZM146.71,241.09c-3.31,13.3-22.29,23.96-35.38,22.31-8.93-1.12-24.94-13.83-32.48-19.54-2.97-2.25-13.22-9.84-14.47-12.64-1.49-3.36,1.69-4.73,4.69-4.32,5.91.81,15.19,9.59,20.99,11.97,3.32.88,5.16-2.47,4.21-5.31-3.99-7.52-7.97-15.05-11.75-22.68-4.53-9.15-11.09-20.89-14.52-30.17-.74-2.01-1.51-4,.01-5.84,1.93-2.33,4.72-1.1,6.33.96,4.75,6.11,10.35,17.65,14.41,24.78,2.77,4.86,5.69,11.77,8.79,16.12,2.97,4.17,9.47,1.31,7.44-4.51-.88-2.54-4.56-7.78-4.88-9.8-.39-2.51,3.45-3.52,5.45-1.76,2.63,2.32,4.57,9.22,6.93,11.75,1.59,1.7,4.61,1.62,6.26.01,3.47-3.38-2.21-9.42-3.5-12.68-.76-1.92,2.4-2.26,3.84-1.26,2.52,1.77,5.44,10.56,8.05,11.37,1.47.46,3.47.15,4.61-.93,3.34-3.17-2.97-10.08-2.39-10.63,3.3.55,5.39,4.01,7.11,6.62,6.18,9.37,13.04,24.9,10.23,36.18ZM57.93,176.68c-17.92-2.14-17.34-26.1-.81-31.04,12.79-3.82,24.44,6.81,19.82,19.65-5.32-1.67-10.63-1.89-14.98,2.04-2.41,2.18-4.26,6.05-4.02,9.35ZM60.46,185.51c4.6,11.33,10.35,22.17,15.43,33.29-5.46-1.83-11.29-3.13-16.48.21-12.29-2.53-26.78-3.6-38.84-6.98-5.87-1.64-8.57-5.22-8.71-11.36,10.83-52.84,22.41-105.57,33.98-158.26,4.56-12.82,15.18-9.62,26.02-8.59-1.56,8.16-1.42,16.82,6.26,21.76,4.29,2.76,11.39,3.88,15.37.04,2.81-2.71,2.91-7.6-.62-9.67-3-1.75-9.39,1.71-9.3-4.25,0-.6.93-5.89,1.09-6.19.19-.34.21-.23.56-.27l101.66,10.66c-.83,6.01-1.59,11.16,1.4,16.73,2.99,5.56,9.66,8.58,15.83,6.91,5.02-1.36,8.41-7.13,4.19-11.19-2.83-2.72-4.44-.55-7.32-1.11-3.51-.69-2.9-7.49-1.8-9.9l41.98,4.53c6.6,1.36,9.52,5.33,8.71,12.16-11.95,53.24-21.36,107.17-33.87,160.28-2.21,9.38-4.54,17-15.74,17.96l-42.85-8.1-.52-.58c-.95-9.62-4.72-19.23-9.39-27.61-4.65-8.33-11.21-18.34-22.25-16-.84.18-1.77.97-2.62.89-1.61-.14-3.4-1.52-5.9-1.37-3.08.17-5.03,2.39-6.76,2.77-.34.07-2.57-.83-3.51-.93-2.68-.27-5.29-.05-7.75,1.03-.92.41-2.11,1.96-3.05,1.36l-12.08-20.93s-2.9-4.83-6.74-7.49c-3.24-2.24-6.9-2.72-12.5.32-6.11,3.32-6.94,7.07-6.38,11.21s2.49,8.68,2.49,8.68ZM264.53,83.07c-11.89,55.51-23.1,111.27-36.08,166.49-3.01,7.11-9.95,12.67-17.96,12.11l-56.95-11.01,1.5-4.72c15.12,2.2,30.07,5.99,45.2,8.38,12.19-.4,21.77-7.54,25.63-19.06,11.88-53.98,23.66-107.99,34.99-162.1-.2-.6.5-.74.74-.53.12.1,1.3,2.35,1.48,2.74,1.14,2.45,1.72,4.97,1.45,7.69Z"/>
            <path class="cls-4"
                  d="M76.94,165.29c-5.32-1.67-10.63-1.89-14.98,2.04-2.41,2.18-4.26,6.05-4.02,9.35-17.92-2.14-17.34-26.1-.81-31.04,12.79-3.82,24.44,6.81,19.82,19.65Z"/>
            <path class="cls-4"
                  d="M29,225.76l25.47,4.75,1.63,4.59c-7.29-1.92-21.71-1.9-26.55-8.24-.28-.37-.71-.46-.55-1.1Z"/>
            <path class="cls-2"
                  d="M163.33,149.65c1.12-.23,2.39-.08,3.53-.04,12.41,2.51,25.71,3.01,38.04,5.56,5,1.03,5.67,2.26,4.95,7.3-.89,6.18-3.41,16.56-5.21,22.63-2.13,7.21-7.68,10.89-14.98,11.68-10.4-2.09-21.88-2.32-32.18-4.45-2.93-.61-5.49-2.24-5.38-5.53,2.92-10.42,4.61-21.57,7.69-31.9.64-2.14.93-4.72,3.54-5.26ZM200.07,163.85l-31.5-4.4-5.86,24.18,26.21,3.68c2.65-.21,5.62-1.42,6.5-4.12l4.66-19.34Z"/>
            <path class="cls-2"
                  d="M175.07,100.18l42.3,5.15c3.31.85,3.44,3.28,3.16,6.27-.55,6-3.64,20.56-5.63,26.24s-7.83,9.53-13.91,9.9c-10.44-1.84-21.83-2.3-32.14-4.53-3.03-.66-5.57-1.34-5.02-5.15,3.04-10.65,4.12-22.81,7.39-33.28.69-2.22,1.3-4.01,3.84-4.62ZM210.69,114.04l-30.8-3.51-5.47,24.02c9.18,1.15,18.35,3.1,27.58,3.58,2.42-.76,3.7-2.25,4.56-4.59,2.12-5.78,2.41-13.47,4.13-19.5Z"/>
            <path class="cls-2"
                  d="M114.61,93.6c2.01-.41,5.45.09,7.61.29,9.37.86,19.96,2.24,29.26,3.71,7.3,1.15,9.23.88,7.74,9.11s-4.09,19.36-6.52,27.55c-2.11,7.13-3.81,6.07-10.65,5.36-10.33-1.07-23.19-2.5-33.28-4.45-3.68-.71-5.06-1.87-4.59-5.85,1.25-10.43,5.78-22.08,7.25-32.67.23-1.43,1.83-2.78,3.18-3.05ZM142.09,106.09l-22.59-2.65-5.15,23.42,30,3.26,5.17-23.04c-1.57-.19-3.4-.59-4.95-.66-1.65-.07-.78.45-2.48-.32Z"/>
            <path class="cls-2"
                  d="M56.37,86.28c.48-.08.88-.11,1.36-.09,6.64.18,15.54,2.06,22.41,2.9,5.02.61,10.8.7,15.67,1.55,3.67.64,5.24,2.04,4.94,5.96-2.64,10.09-3.89,21.09-6.66,31.08-1.17,4.21-2.79,4.54-7.03,4.32-8.66-.46-18.77-2.48-27.52-3.61-2.81-.36-9.22-.38-11.39-1.43-1.97-.96-3.09-3.6-2.63-5.72,3.04-9.79,3.91-21.2,6.87-30.86.63-2.06,1.66-3.69,3.99-4.08ZM90.52,99.76l-30.02-3.68-4.76,22.35,30.4,3.66,4.38-22.33Z"/>
            <path class="cls-2"
                  d="M103.62,142.32c13.99.95,27.95,3.33,41.87,5.22,3.44,1.41,3.28,4.06,2.75,7.16-1.39,8.29-4.12,20.63-6.53,28.64-.91,3.04-1.83,5.27-5.52,5.39-12.44-2.9-26.54-2.8-38.84-5.51-4.09-.9-4.66-3.1-4.16-7,1.19-9.42,5.86-20.32,6.97-30.03.65-1.83,1.45-3.34,3.46-3.86ZM138.52,156.16l-30.4-4.03-4.77,22.71,30.03,4.02,5.14-22.7Z"/>
            <path class="cls-2"
                  d="M90.17,81.43c-.21-.31.1-1.24.54-1.47l22.28-16.55c4.21-2.01,6.51.21,9.91,2.21,4.27-2.77,8.52-7.35,12.79-9.92,2.54-1.53,5.16-1.66,7.43.44l14.8,19.64c1.2.89,2.85.34,4.53.97,4.35,1.63,10.84,10.69,15.11,13.46l.53,1.29c-.34.52-.64.57-1.23.54-2.21-.11-7.55-.8-9.6-1.43-4.46-1.36-10.43-7.17-14.99-9.19-5.67-2.5-10.22,5.69-16.78,4.32-.79-.16-1.66-.87-2.36-1.3-2.41-1.48-16.03-12.17-17.13-12.17-4.47,2.33-8.33,6.1-12.59,8.65-.71.42-1.86,1.24-2.6,1.43-1.21.31-10.33-.49-10.63-.93ZM143.65,72.27l-5.67-7.62-8.24,5.98c-.01.38,5.73,4.45,6.1,4.5,1.23.18,5.62-4,7.81-2.86Z"/>
            <path class="cls-3"
                  d="M200.07,163.85l-4.66,19.34c-.88,2.7-3.85,3.91-6.5,4.12l-26.21-3.68,5.86-24.18,31.5,4.4Z"/>
            <path class="cls-3"
                  d="M210.69,114.04c-1.72,6.02-2,13.72-4.13,19.5-.86,2.34-2.14,3.84-4.56,4.59-9.23-.48-18.4-2.44-27.58-3.58l5.47-24.02,30.8,3.51Z"/>
            <path class="cls-3"
                  d="M142.09,106.09c1.7.78.83.25,2.48.32,1.55.07,3.38.48,4.95.66l-5.17,23.04-30-3.26,5.15-23.42,22.59,2.65Z"/>
            <polygon class="cls-3" points="90.52 99.76 86.14 122.09 55.74 118.43 60.5 96.08 90.52 99.76"/>
            <polygon class="cls-3" points="138.52 156.16 133.38 178.86 103.36 174.84 108.12 152.13 138.52 156.16"/>
            <path class="cls-3"
                  d="M143.65,72.27c-2.19-1.14-6.58,3.04-7.81,2.86-.38-.05-6.12-4.12-6.1-4.5l8.24-5.98,5.67,7.62Z"/>
        </g>
    </g>
</svg>