<svg width="106" height="25" viewBox="0 0 106 25" fill="none" xmlns="http://www.w3.org/2000/svg">
<g clip-path="url(#clip0_307_1844)">
<mask id="mask0_307_1844" style="mask-type:luminance" maskUnits="userSpaceOnUse" x="0" y="0" width="106" height="25">
<path d="M105.454 0.0800781H0.178223V24.8339H105.454V0.0800781Z" fill="white"/>
</mask>
<g mask="url(#mask0_307_1844)">
<path d="M39.2827 0.381836V2.72389H33.0803V5.65146H38.4557V7.81609H33.0803V13.0502H30.2578V0.381836H39.2827Z" fill="black"/>
<path d="M43.4356 9.92736C43.5923 10.2239 43.7978 10.4622 44.0572 10.6447C44.314 10.8272 44.6171 10.9641 44.9663 11.0528C45.3131 11.1415 45.6726 11.1846 46.045 11.1846C46.2967 11.1846 46.5664 11.1643 46.854 11.1212C47.1417 11.0807 47.4113 10.9995 47.663 10.8829C47.9147 10.7638 48.1253 10.6016 48.2923 10.3963C48.4592 10.1884 48.544 9.92483 48.544 9.60546C48.544 9.26328 48.4335 8.98446 48.2126 8.77154C47.9918 8.55863 47.699 8.3812 47.3394 8.23926C46.9799 8.09731 46.5715 7.97312 46.1169 7.86666C45.6623 7.7602 45.2001 7.64107 44.7326 7.5118C44.2524 7.39267 43.7849 7.24819 43.3304 7.07583C42.8758 6.90347 42.4674 6.68296 42.1078 6.41174C41.7483 6.14053 41.4581 5.79835 41.2346 5.3928C41.0138 4.98471 40.9033 4.49045 40.9033 3.91254C40.9033 3.26112 41.0446 2.69588 41.3271 2.21683C41.6096 1.73777 41.9769 1.33982 42.434 1.02045C42.8886 0.701078 43.4048 0.465352 43.9801 0.310735C44.5554 0.156119 45.1307 0.0800781 45.706 0.0800781C46.3763 0.0800781 47.021 0.153584 47.6399 0.303131C48.2563 0.450143 48.8059 0.690939 49.2836 1.02045C49.7639 1.35249 50.144 1.77325 50.4239 2.2878C50.7064 2.80234 50.8477 3.42587 50.8477 4.1584H48.115C48.0919 3.78073 48.0097 3.46643 47.8711 3.21803C47.7324 2.96963 47.55 2.77446 47.324 2.63251C47.0954 2.49057 46.836 2.38918 46.5433 2.33089C46.2505 2.27259 45.9294 2.24217 45.5802 2.24217C45.3516 2.24217 45.1256 2.26498 44.897 2.31314C44.6684 2.3613 44.463 2.44241 44.2755 2.56154C44.0906 2.68067 43.9365 2.82769 43.8183 3.00512C43.6976 3.18254 43.6385 3.40813 43.6385 3.67934C43.6385 3.92774 43.6873 4.12798 43.7824 4.2826C43.8774 4.43722 44.0674 4.57916 44.35 4.70843C44.6325 4.8377 45.0203 4.9695 45.5185 5.09877C46.0168 5.22804 46.6665 5.39533 47.4704 5.59557C47.7093 5.64373 48.0431 5.72991 48.4669 5.85411C48.8932 5.97831 49.3144 6.17602 49.7356 6.44723C50.1543 6.71844 50.5164 7.08344 50.822 7.53715C51.1276 7.99339 51.2817 8.57384 51.2817 9.28609C51.2817 9.86653 51.1687 10.4039 50.9401 10.9007C50.7116 11.3975 50.3726 11.8259 49.9231 12.1883C49.4737 12.5482 48.9163 12.8296 48.2512 13.0324C47.586 13.2351 46.8155 13.334 45.9397 13.334C45.2334 13.334 44.5477 13.2478 43.88 13.0755C43.2148 12.9031 42.6266 12.6344 42.1181 12.2694C41.6096 11.9019 41.2038 11.4355 40.9033 10.8677C40.6028 10.3 40.459 9.62574 40.4719 8.84505H43.2045C43.2045 9.27088 43.2816 9.63081 43.4382 9.92736H43.4356Z" fill="black"/>
<path d="M56.4877 0.381836V10.7082H62.744V13.0502H53.6652V0.381836H56.4877Z" fill="black"/>
<path d="M73.6386 9.92736C73.7953 10.2239 74.0008 10.4622 74.2602 10.6447C74.517 10.8272 74.8201 10.9641 75.1693 11.0528C75.5161 11.1415 75.8756 11.1846 76.248 11.1846C76.4997 11.1846 76.7694 11.1643 77.057 11.1212C77.3447 11.0807 77.6143 10.9995 77.866 10.8829C78.1177 10.7638 78.3283 10.6016 78.4953 10.3963C78.6622 10.1884 78.747 9.92483 78.747 9.60546C78.747 9.26328 78.6365 8.98446 78.4156 8.77154C78.1948 8.55863 77.902 8.3812 77.5424 8.23926C77.1829 8.09731 76.7745 7.97312 76.3199 7.86666C75.8653 7.7602 75.403 7.64107 74.9356 7.5118C74.4554 7.39267 73.9879 7.24819 73.5333 7.07583C73.0788 6.90347 72.6704 6.68296 72.3108 6.41174C71.9513 6.14053 71.6611 5.79835 71.4376 5.3928C71.2168 4.98471 71.1063 4.49045 71.1063 3.91254C71.1063 3.26112 71.2476 2.69588 71.5301 2.21683C71.8126 1.73777 72.1799 1.33982 72.637 1.02045C73.0916 0.701078 73.6078 0.465352 74.1831 0.310735C74.7584 0.156119 75.3337 0.0800781 75.909 0.0800781C76.5793 0.0800781 77.224 0.153584 77.8429 0.303131C78.4593 0.450143 79.0089 0.690939 79.4892 1.02045C79.9694 1.35249 80.3496 1.77325 80.6295 2.2878C80.912 2.80234 81.0533 3.42587 81.0533 4.1584H78.3206C78.2975 3.78073 78.2153 3.46643 78.0766 3.21803C77.9379 2.96963 77.7556 2.77446 77.5296 2.63251C77.301 2.49057 77.0416 2.38918 76.7488 2.33089C76.456 2.27259 76.135 2.24217 75.7857 2.24217C75.5572 2.24217 75.3311 2.26498 75.1026 2.31314C74.874 2.3613 74.6685 2.44241 74.481 2.56154C74.2961 2.68067 74.142 2.82769 74.0239 3.00512C73.9032 3.18254 73.8441 3.40813 73.8441 3.67934C73.8441 3.92774 73.8929 4.12798 73.9879 4.2826C74.083 4.43722 74.273 4.57916 74.5555 4.70843C74.838 4.8377 75.2258 4.9695 75.7241 5.09877C76.2223 5.22804 76.8721 5.39533 77.676 5.59557C77.9148 5.64373 78.2487 5.72991 78.6725 5.85411C79.0988 5.97831 79.52 6.17602 79.9412 6.44723C80.3598 6.71844 80.7219 7.08344 81.0276 7.53715C81.3332 7.99339 81.4873 8.57384 81.4873 9.28609C81.4873 9.86653 81.3743 10.4039 81.1457 10.9007C80.9171 11.3975 80.5781 11.8259 80.1287 12.1883C79.6792 12.5482 79.1219 12.8296 78.4567 13.0324C77.7916 13.2351 77.0211 13.334 76.1453 13.334C75.439 13.334 74.7533 13.2478 74.0855 13.0755C73.4203 12.9031 72.8322 12.6344 72.3237 12.2694C71.8152 11.9019 71.4094 11.4355 71.1089 10.8677C70.8084 10.3 70.6646 9.62574 70.6774 8.84505H73.4101C73.4101 9.27088 73.4871 9.63081 73.6438 9.92736H73.6386Z" fill="black"/>
<path d="M87.0142 13.0502L82.8613 0.381836H85.7558L88.6143 9.28875H88.6502L91.5447 0.381836H94.4571L90.1963 13.0502H87.0142Z" fill="black"/>
<path d="M105.298 0.381836V2.72389H99.0954V5.65146H104.471V7.81609H99.0954V13.0502H96.2728V0.381836H105.298Z" fill="black"/>
<path d="M30.561 18.3854C30.561 18.502 30.5815 18.6034 30.6226 18.687C30.6637 18.7707 30.7202 18.8391 30.7921 18.8923C30.864 18.9456 30.9488 18.9836 31.0438 19.0089C31.1388 19.0343 31.2415 19.0444 31.352 19.0444C31.4701 19.0444 31.5729 19.0317 31.6576 19.0039C31.7424 18.976 31.8091 18.9405 31.8631 18.8974C31.917 18.8543 31.953 18.8036 31.9761 18.7479C31.9992 18.6921 32.012 18.6338 32.012 18.578C32.012 18.4614 31.9863 18.3727 31.9324 18.317C31.8785 18.2612 31.8194 18.2206 31.7552 18.1978C31.6448 18.1573 31.5164 18.1193 31.37 18.0838C31.2236 18.0483 31.0412 18.0001 30.8255 17.9444C30.6919 17.9089 30.5789 17.8658 30.4916 17.8075C30.4017 17.7517 30.3324 17.6884 30.281 17.6199C30.2296 17.5515 30.1911 17.478 30.1706 17.3994C30.15 17.3208 30.1372 17.2422 30.1372 17.1611C30.1372 17.0065 30.1706 16.8722 30.2348 16.7581C30.3016 16.6441 30.3863 16.5503 30.4942 16.4768C30.602 16.4033 30.7253 16.3475 30.8614 16.312C30.9976 16.2765 31.1362 16.2588 31.2775 16.2588C31.4393 16.2588 31.5934 16.2791 31.7372 16.3222C31.881 16.3652 32.0069 16.4261 32.1173 16.5097C32.2252 16.5934 32.3125 16.6948 32.3767 16.819C32.4409 16.9406 32.4718 17.0826 32.4718 17.2422H31.9273C31.9119 17.0445 31.8451 16.9051 31.7218 16.8215C31.5985 16.7378 31.4444 16.6998 31.2544 16.6998C31.1902 16.6998 31.126 16.7074 31.0566 16.7201C30.9899 16.7328 30.9282 16.7556 30.8743 16.786C30.8178 16.8164 30.7741 16.857 30.7356 16.9077C30.6971 16.9584 30.6817 17.0243 30.6817 17.1003C30.6817 17.2093 30.715 17.2955 30.7844 17.3563C30.8537 17.4171 30.9411 17.4653 31.0541 17.4957C31.0669 17.4983 31.1106 17.5109 31.1928 17.5312C31.2724 17.5515 31.3623 17.5768 31.4624 17.6022C31.5626 17.6275 31.6576 17.6529 31.7526 17.6782C31.8477 17.7036 31.9144 17.7213 31.9555 17.7314C32.0583 17.7619 32.1456 17.805 32.2226 17.8607C32.2971 17.9165 32.3613 17.9773 32.4127 18.0483C32.464 18.1193 32.5026 18.1953 32.5257 18.2739C32.5514 18.355 32.5616 18.4361 32.5616 18.5147C32.5616 18.687 32.5257 18.834 32.4538 18.9557C32.3819 19.0774 32.2894 19.1788 32.1713 19.2548C32.0557 19.3334 31.9221 19.3891 31.7732 19.4246C31.6242 19.4601 31.4727 19.4778 31.3186 19.4778C31.1414 19.4778 30.9744 19.4576 30.8152 19.4145C30.6585 19.3714 30.5224 19.3055 30.4043 19.2168C30.2887 19.1281 30.1937 19.014 30.1243 18.8746C30.055 18.7352 30.019 18.5704 30.0165 18.3803H30.561V18.3854Z" fill="black"/>
<path d="M34.4468 17.9295C34.4262 17.7926 34.3697 17.6887 34.2798 17.6177C34.1874 17.5467 34.0718 17.5112 33.9331 17.5112C33.8689 17.5112 33.7996 17.5214 33.7277 17.5442C33.6557 17.567 33.589 17.605 33.5273 17.6659C33.4657 17.7242 33.4143 17.8078 33.3732 17.9117C33.3321 18.0157 33.3116 18.1551 33.3116 18.3224C33.3116 18.4136 33.3219 18.5048 33.345 18.5986C33.3655 18.6899 33.4015 18.7735 33.4503 18.8445C33.4991 18.9155 33.5607 18.9738 33.6352 19.0194C33.7097 19.065 33.8021 19.0853 33.91 19.0853C34.0564 19.0853 34.1745 19.0397 34.2696 18.951C34.3646 18.8622 34.4237 18.738 34.4468 18.5758H34.945C34.8988 18.8648 34.7858 19.0878 34.6111 19.2424C34.4365 19.3971 34.2002 19.4731 33.91 19.4731C33.7328 19.4731 33.5761 19.4427 33.44 19.3844C33.3039 19.3261 33.1909 19.245 33.0984 19.1436C33.006 19.0422 32.9341 18.9205 32.8878 18.7786C32.8416 18.6367 32.8159 18.4846 32.8159 18.3224C32.8159 18.1601 32.839 17.9979 32.8853 17.8534C32.9315 17.7064 33.0008 17.5797 33.0959 17.4732C33.1883 17.3668 33.3039 17.2806 33.4426 17.2198C33.5813 17.1589 33.7431 17.126 33.9305 17.126C34.0615 17.126 34.1848 17.1437 34.3029 17.1767C34.4211 17.2096 34.5264 17.2603 34.6163 17.3262C34.7062 17.3921 34.7832 17.4758 34.8423 17.5772C34.9014 17.6785 34.9347 17.7977 34.9476 17.9345H34.4493L34.4468 17.9295Z" fill="black"/>
<path d="M35.3097 16.335H35.8079V17.4781H35.8156C35.8773 17.3767 35.9672 17.2931 36.0879 17.2246C36.2086 17.1562 36.3421 17.1233 36.4911 17.1233C36.7377 17.1233 36.9328 17.1866 37.0767 17.3134C37.2205 17.4401 37.2898 17.6302 37.2898 17.8811V19.4121H36.7916V18.0104C36.7865 17.8355 36.7479 17.7088 36.6786 17.6302C36.6092 17.5516 36.4988 17.5111 36.3524 17.5111C36.2677 17.5111 36.1932 17.5263 36.1264 17.5567C36.0596 17.5871 36.0031 17.6277 35.9569 17.6809C35.9107 17.7341 35.8747 17.7975 35.8465 17.8685C35.8182 17.9394 35.8079 18.0155 35.8079 18.0966V19.4121H35.3097V16.335Z" fill="black"/>
<path d="M37.5723 17.1846H38.1013L38.5431 18.8473H38.5508L38.9745 17.1846H39.4754L39.8811 18.8473H39.8888L40.3486 17.1846H40.8545L40.1482 19.4126H39.6372L39.2185 17.7574H39.2108L38.7948 19.4126H38.2708L37.5723 17.1846Z" fill="black"/>
<path d="M41.5223 18.4259C41.5223 18.5121 41.5351 18.5957 41.5583 18.6768C41.5839 18.7579 41.6199 18.8264 41.6687 18.8872C41.7175 18.948 41.7817 18.9962 41.8562 19.0317C41.9307 19.0672 42.0231 19.0849 42.1258 19.0849C42.2722 19.0849 42.3878 19.0545 42.4777 18.9911C42.5676 18.9303 42.6318 18.8365 42.6755 18.7123H43.148C43.1223 18.834 43.0761 18.9404 43.0119 19.0342C42.9477 19.128 42.8706 19.2091 42.7808 19.2725C42.6909 19.3384 42.5881 19.3865 42.4777 19.4195C42.3647 19.4524 42.2491 19.4702 42.1258 19.4702C41.9486 19.4702 41.792 19.4423 41.6533 19.384C41.5146 19.3257 41.4016 19.2471 41.3066 19.1432C41.2115 19.0393 41.1396 18.9176 41.0934 18.7731C41.0446 18.6287 41.0215 18.4715 41.0215 18.2991C41.0215 18.142 41.0472 17.9924 41.0985 17.848C41.1499 17.706 41.2218 17.5818 41.3168 17.4728C41.4119 17.3664 41.5249 17.2802 41.6584 17.2168C41.792 17.1535 41.9435 17.123 42.113 17.123C42.2902 17.123 42.4494 17.1585 42.5907 17.232C42.732 17.3055 42.8501 17.4019 42.9426 17.5235C43.035 17.6452 43.1044 17.7821 43.1454 17.9392C43.1865 18.0964 43.1994 18.2561 43.1788 18.4233H41.5197L41.5223 18.4259ZM42.6857 18.1014C42.6806 18.0229 42.6626 17.9494 42.6344 17.8784C42.6061 17.8074 42.5702 17.744 42.5214 17.6908C42.4726 17.6376 42.4161 17.5945 42.3467 17.5615C42.2774 17.5286 42.2029 17.5109 42.1181 17.5109C42.0334 17.5109 41.9512 17.5261 41.8793 17.5565C41.8074 17.5869 41.7457 17.6275 41.6969 17.6807C41.6456 17.7339 41.6045 17.7973 41.5737 17.8682C41.5428 17.9392 41.5274 18.0178 41.5223 18.1014H42.6832H42.6857Z" fill="black"/>
<path d="M43.5359 16.335H44.0341V16.8013H43.5359V16.335ZM43.5359 17.1841H44.0341V19.4121H43.5359V17.1841Z" fill="black"/>
<path d="M44.4578 17.1846H46.2915V17.5293L44.9997 19.0248H46.3583V19.4126H44.373V19.0678L45.6212 17.5724H44.4604V17.1846H44.4578Z" fill="black"/>
<path d="M47.0672 18.4259C47.0672 18.5121 47.0801 18.5957 47.1032 18.6768C47.1289 18.7579 47.1648 18.8264 47.2136 18.8872C47.2624 18.948 47.3266 18.9962 47.4011 19.0317C47.4756 19.0672 47.568 19.0849 47.6708 19.0849C47.8172 19.0849 47.9327 19.0545 48.0226 18.9911C48.1125 18.9303 48.1767 18.8365 48.2204 18.7123H48.6929C48.6673 18.834 48.621 18.9404 48.5568 19.0342C48.4926 19.128 48.4156 19.2091 48.3257 19.2725C48.2358 19.3384 48.1331 19.3865 48.0226 19.4195C47.9096 19.4524 47.794 19.4702 47.6708 19.4702C47.4936 19.4702 47.3369 19.4423 47.1982 19.384C47.0595 19.3257 46.9465 19.2471 46.8515 19.1432C46.7565 19.0393 46.6845 18.9176 46.6383 18.7731C46.5895 18.6287 46.5664 18.4715 46.5664 18.2991C46.5664 18.142 46.5921 17.9924 46.6435 17.848C46.6948 17.706 46.7667 17.5818 46.8618 17.4728C46.9568 17.3664 47.0698 17.2802 47.2033 17.2168C47.3369 17.1535 47.4884 17.123 47.6579 17.123C47.8351 17.123 47.9944 17.1585 48.1356 17.232C48.2769 17.3055 48.395 17.4019 48.4875 17.5235C48.5799 17.6452 48.6493 17.7821 48.6904 17.9392C48.7315 18.0964 48.7443 18.2561 48.7238 18.4233H47.0647L47.0672 18.4259ZM48.2307 18.1014C48.2255 18.0229 48.2075 17.9494 48.1793 17.8784C48.151 17.8074 48.1151 17.744 48.0663 17.6908C48.0175 17.6376 47.961 17.5945 47.8916 17.5615C47.8223 17.5286 47.7478 17.5109 47.6631 17.5109C47.5783 17.5109 47.4961 17.5261 47.4242 17.5565C47.3523 17.5869 47.2907 17.6275 47.2419 17.6807C47.1905 17.7339 47.1494 17.7973 47.1186 17.8682C47.0878 17.9392 47.0724 18.0178 47.0672 18.1014H48.2281H48.2307Z" fill="black"/>
<path d="M49.0679 17.1839H49.5353V17.6148H49.543C49.5584 17.5539 49.5867 17.4956 49.6278 17.4374C49.6689 17.3791 49.7202 17.3284 49.7793 17.2802C49.8384 17.232 49.9051 17.194 49.9771 17.1661C50.049 17.1383 50.1234 17.123 50.2005 17.123C50.2596 17.123 50.2981 17.123 50.3212 17.1281C50.3418 17.1307 50.3649 17.1332 50.388 17.1357V17.6097C50.352 17.6046 50.3186 17.5996 50.2801 17.5945C50.2442 17.5894 50.2082 17.5869 50.1722 17.5869C50.0875 17.5869 50.0079 17.6046 49.9334 17.6376C49.8589 17.6705 49.7947 17.7187 49.7382 17.7846C49.6817 17.8505 49.638 17.9291 49.6072 18.0229C49.5764 18.1166 49.5584 18.2282 49.5584 18.3498V19.4093H49.0602V17.1813L49.0679 17.1839Z" fill="black"/>
<path d="M51.4769 16.335H52.0445L52.8253 18.7708H52.833L53.6317 16.335H54.1865L53.1206 19.4121H52.5145L51.4744 16.335H51.4769Z" fill="black"/>
<path d="M54.5615 18.4259C54.5615 18.5121 54.5743 18.5957 54.5974 18.6768C54.6231 18.7579 54.6591 18.8264 54.7079 18.8872C54.7567 18.948 54.8209 18.9962 54.8954 19.0317C54.9698 19.0672 55.0623 19.0849 55.165 19.0849C55.3114 19.0849 55.427 19.0545 55.5169 18.9911C55.6068 18.9303 55.671 18.8365 55.7146 18.7123H56.1872C56.1615 18.834 56.1153 18.9404 56.0511 19.0342C55.9869 19.128 55.9098 19.2091 55.8199 19.2725C55.73 19.3384 55.6273 19.3865 55.5169 19.4195C55.4039 19.4524 55.2883 19.4702 55.165 19.4702C54.9878 19.4702 54.8311 19.4423 54.6925 19.384C54.5538 19.3257 54.4408 19.2471 54.3457 19.1432C54.2507 19.0393 54.1788 18.9176 54.1326 18.7731C54.0838 18.6287 54.0607 18.4715 54.0607 18.2991C54.0607 18.142 54.0864 17.9924 54.1377 17.848C54.1891 17.706 54.261 17.5818 54.356 17.4728C54.451 17.3664 54.564 17.2802 54.6976 17.2168C54.8312 17.1535 54.9827 17.123 55.1522 17.123C55.3294 17.123 55.4886 17.1585 55.6299 17.232C55.7711 17.3055 55.8893 17.4019 55.9817 17.5235C56.0742 17.6452 56.1435 17.7821 56.1846 17.9392C56.2257 18.0964 56.2386 18.2561 56.218 18.4233H54.5589L54.5615 18.4259ZM55.7223 18.1014C55.7172 18.0229 55.6992 17.9494 55.671 17.8784C55.6427 17.8074 55.6068 17.744 55.558 17.6908C55.5092 17.6376 55.4527 17.5945 55.3833 17.5615C55.314 17.5286 55.2395 17.5109 55.1548 17.5109C55.07 17.5109 54.9878 17.5261 54.9159 17.5565C54.844 17.5869 54.7824 17.6275 54.7336 17.6807C54.6822 17.7339 54.6411 17.7973 54.6103 17.8682C54.5795 17.9392 54.5641 18.0178 54.5589 18.1014H55.7198H55.7223Z" fill="black"/>
<path d="M56.5827 17.1839H57.0501V17.6148H57.0578C57.0732 17.5539 57.1014 17.4956 57.1425 17.4374C57.1836 17.3791 57.235 17.3284 57.2941 17.2802C57.3531 17.232 57.4199 17.194 57.4918 17.1661C57.5637 17.1383 57.6382 17.123 57.7153 17.123C57.7743 17.123 57.8129 17.123 57.836 17.1281C57.8565 17.1307 57.8796 17.1332 57.9027 17.1357V17.6097C57.8668 17.6046 57.8334 17.5996 57.7949 17.5945C57.7589 17.5894 57.723 17.5869 57.687 17.5869C57.6023 17.5869 57.5226 17.6046 57.4482 17.6376C57.3737 17.6705 57.3095 17.7187 57.253 17.7846C57.1965 17.8505 57.1528 17.9291 57.122 18.0229C57.0912 18.1166 57.0732 18.2282 57.0732 18.3498V19.4093H56.575V17.1813L56.5827 17.1839Z" fill="black"/>
<path d="M58.1134 16.335H58.6116V17.473H58.6194C58.6553 17.4198 58.6964 17.3691 58.7452 17.326C58.794 17.2829 58.8479 17.2475 58.9096 17.217C58.9686 17.1866 59.0328 17.1638 59.0971 17.1486C59.1638 17.1334 59.228 17.1258 59.2922 17.1258C59.4695 17.1258 59.6235 17.1562 59.7571 17.2196C59.8906 17.2804 59.9985 17.3666 60.0858 17.473C60.1732 17.582 60.2399 17.7062 60.2836 17.8507C60.3273 17.9952 60.3478 18.1473 60.3478 18.312C60.3478 18.4616 60.3273 18.606 60.2887 18.748C60.2502 18.8874 60.1886 19.0116 60.109 19.1206C60.0293 19.2296 59.9266 19.3158 59.8059 19.3791C59.6852 19.4425 59.5388 19.4754 59.3744 19.4754C59.2999 19.4754 59.2229 19.4704 59.1459 19.4602C59.0688 19.4501 58.9943 19.4298 58.925 19.4019C58.8556 19.3741 58.7914 19.336 58.7349 19.2904C58.6784 19.2448 58.6296 19.184 58.5937 19.1105H58.586V19.4171H58.1134V16.34V16.335ZM59.8521 18.2993C59.8521 18.198 59.8393 18.1016 59.8136 18.0053C59.7879 17.909 59.7494 17.8254 59.6955 17.7519C59.6415 17.6783 59.5773 17.6201 59.4977 17.5744C59.4181 17.5288 59.3282 17.5085 59.228 17.5085C59.0174 17.5085 58.8608 17.5795 58.7555 17.724C58.6502 17.8685 58.5962 18.0586 58.5962 18.2968C58.5962 18.4083 58.6091 18.5123 58.6373 18.6086C58.6656 18.7049 58.7067 18.7885 58.7606 18.857C58.8171 18.9254 58.8813 18.9812 58.9584 19.0217C59.0354 19.0623 59.1253 19.0826 59.228 19.0826C59.341 19.0826 59.4386 19.0598 59.5157 19.0141C59.5953 18.9685 59.6595 18.9077 59.7109 18.8342C59.7622 18.7607 59.7982 18.677 59.8187 18.5832C59.8393 18.4895 59.8521 18.3931 59.8521 18.2968V18.2993Z" fill="black"/>
<path d="M62.6412 18.9176C62.6412 18.9784 62.6489 19.0215 62.6643 19.0469C62.6797 19.0722 62.7106 19.0849 62.7594 19.0849H62.8107C62.8313 19.0849 62.8544 19.0824 62.8801 19.0773V19.4169C62.8621 19.422 62.839 19.4296 62.8133 19.4372C62.785 19.4448 62.7568 19.4499 62.7285 19.4575C62.7003 19.4626 62.6695 19.4676 62.6412 19.4702C62.613 19.4727 62.5873 19.4752 62.5667 19.4752C62.464 19.4752 62.3792 19.455 62.3125 19.4144C62.2457 19.3739 62.202 19.3029 62.1815 19.204C62.0813 19.2978 61.9606 19.3688 61.8168 19.4119C61.673 19.455 61.5343 19.4752 61.4007 19.4752C61.298 19.4752 61.2004 19.4626 61.108 19.4347C61.0155 19.4068 60.9333 19.3663 60.8614 19.313C60.7895 19.2598 60.733 19.1914 60.6919 19.1102C60.6508 19.0291 60.6277 18.9328 60.6277 18.8238C60.6277 18.687 60.6534 18.5729 60.7047 18.4867C60.7561 18.4005 60.8229 18.3321 60.9051 18.2839C60.9872 18.2358 61.0823 18.2003 61.185 18.1775C61.2877 18.1547 61.393 18.1395 61.4983 18.1268C61.5882 18.109 61.6755 18.0964 61.7552 18.0913C61.8373 18.0837 61.9093 18.071 61.9709 18.0558C62.0325 18.0381 62.0839 18.0127 62.1199 17.9772C62.1558 17.9418 62.1738 17.8885 62.1738 17.815C62.1738 17.7517 62.1584 17.701 62.1276 17.6604C62.0967 17.6198 62.0582 17.5894 62.0146 17.5666C61.9709 17.5438 61.9195 17.5311 61.863 17.5235C61.8065 17.5159 61.7552 17.5134 61.7064 17.5134C61.5677 17.5134 61.4521 17.5413 61.3622 17.5996C61.2723 17.6579 61.221 17.7466 61.2107 17.8657H60.7124C60.7201 17.7212 60.7561 17.6021 60.8177 17.5083C60.8794 17.4145 60.9564 17.3385 61.0515 17.2802C61.1465 17.2219 61.2518 17.1813 61.3725 17.1585C61.4906 17.1357 61.6139 17.123 61.7397 17.123C61.8502 17.123 61.9606 17.1357 62.0685 17.1585C62.1764 17.1813 62.274 17.2194 62.3587 17.2701C62.4435 17.3208 62.5128 17.3892 62.5667 17.4703C62.6181 17.5514 62.6464 17.6528 62.6464 17.7694V18.9151L62.6412 18.9176ZM62.1455 18.2966C62.0711 18.3448 61.976 18.3752 61.8656 18.3853C61.7552 18.3955 61.6447 18.4107 61.5343 18.4309C61.4829 18.4386 61.4316 18.4512 61.3802 18.4664C61.3314 18.4816 61.2877 18.5045 61.2492 18.5298C61.2107 18.5577 61.1824 18.5932 61.1593 18.6363C61.1362 18.6793 61.1259 18.7351 61.1259 18.7985C61.1259 18.8517 61.1413 18.8999 61.1747 18.9354C61.2055 18.9734 61.2441 19.0013 61.2903 19.0241C61.3365 19.0443 61.3853 19.0596 61.4393 19.0697C61.4932 19.0773 61.542 19.0824 61.5857 19.0824C61.6396 19.0824 61.7012 19.0748 61.7654 19.0621C61.8296 19.0494 61.8887 19.0241 61.9478 18.9886C62.0043 18.9531 62.0531 18.91 62.089 18.8568C62.1276 18.8035 62.1455 18.7376 62.1455 18.6616V18.2941V18.2966Z" fill="black"/>
<path d="M63.1626 17.1845H63.6352V17.5114L63.6429 17.519C63.7173 17.3948 63.8175 17.2985 63.9408 17.2276C64.0641 17.1566 64.1976 17.1211 64.3466 17.1211C64.5931 17.1211 64.7883 17.1845 64.9321 17.3112C65.076 17.4379 65.1453 17.628 65.1453 17.879V19.4099H64.6471V18.0082C64.6419 17.8333 64.6034 17.7066 64.5341 17.628C64.4647 17.5495 64.3543 17.5089 64.2079 17.5089C64.1231 17.5089 64.0486 17.5241 63.9819 17.5545C63.9151 17.5849 63.8586 17.6255 63.8124 17.6787C63.7661 17.732 63.7302 17.7953 63.7019 17.8663C63.6737 17.9373 63.6634 18.0133 63.6634 18.0944V19.4099H63.1652V17.1819L63.1626 17.1845Z" fill="black"/>
<path d="M67.7753 19.4125H67.3027V19.1108H67.295C67.2282 19.2401 67.1307 19.3339 67.0022 19.3897C66.8738 19.4454 66.7377 19.4733 66.5965 19.4733C66.4192 19.4733 66.2651 19.4429 66.1316 19.3795C65.998 19.3187 65.8902 19.2325 65.8029 19.1286C65.7155 19.0221 65.6488 18.8954 65.6051 18.7509C65.5614 18.6064 65.5409 18.4493 65.5409 18.2845C65.5409 18.0843 65.5691 17.9094 65.6231 17.7624C65.6796 17.6154 65.7515 17.4962 65.8439 17.3999C65.9364 17.3036 66.0417 17.2352 66.1573 17.1921C66.2729 17.149 66.3961 17.1262 66.5168 17.1262C66.5862 17.1262 66.6581 17.1338 66.73 17.1465C66.8019 17.1591 66.8738 17.1794 66.9406 17.2098C67.0074 17.2402 67.069 17.2757 67.1255 17.3188C67.182 17.3644 67.2308 17.4151 67.2668 17.476H67.2745V16.3379H67.7727V19.415L67.7753 19.4125ZM66.0391 18.3226C66.0391 18.4163 66.052 18.5101 66.0751 18.6014C66.1008 18.6926 66.1367 18.7763 66.1881 18.8472C66.2395 18.9182 66.3037 18.9765 66.3833 19.0196C66.4629 19.0627 66.5554 19.083 66.6632 19.083C66.7711 19.083 66.8687 19.0602 66.9483 19.0145C67.0279 18.9689 67.0947 18.9081 67.1435 18.8346C67.1923 18.7611 67.2334 18.6749 67.2565 18.5836C67.2822 18.4898 67.2925 18.3935 67.2925 18.2972C67.2925 18.0513 67.236 17.8587 67.1255 17.7193C67.0125 17.5824 66.861 17.5115 66.6684 17.5115C66.5528 17.5115 66.4526 17.5343 66.373 17.5824C66.2934 17.6306 66.2266 17.6914 66.1753 17.7675C66.1239 17.8435 66.0879 17.9297 66.0674 18.026C66.0468 18.1223 66.034 18.2212 66.034 18.3226H66.0391Z" fill="black"/>
<path d="M71.6225 19.4125H71.1499V19.1108H71.1422C71.0754 19.2401 70.9778 19.3339 70.8494 19.3897C70.721 19.4454 70.5849 19.4733 70.4436 19.4733C70.2664 19.4733 70.1123 19.4429 69.9788 19.3795C69.8452 19.3187 69.7373 19.2325 69.65 19.1286C69.5627 19.0221 69.4959 18.8954 69.4523 18.7509C69.4086 18.6064 69.3881 18.4493 69.3881 18.2845C69.3881 18.0843 69.4163 17.9094 69.4702 17.7624C69.5267 17.6154 69.5987 17.4962 69.6911 17.3999C69.7836 17.3036 69.8889 17.2352 70.0044 17.1921C70.12 17.149 70.2433 17.1262 70.364 17.1262C70.4333 17.1262 70.5053 17.1338 70.5772 17.1465C70.6491 17.1591 70.721 17.1794 70.7878 17.2098C70.8545 17.2402 70.9162 17.2757 70.9727 17.3188C71.0292 17.3644 71.078 17.4151 71.1139 17.476H71.1216V16.3379H71.6199V19.415L71.6225 19.4125ZM69.8863 18.3226C69.8863 18.4163 69.8991 18.5101 69.9223 18.6014C69.9479 18.6926 69.9839 18.7763 70.0353 18.8472C70.0866 18.9182 70.1508 18.9765 70.2305 19.0196C70.3101 19.0627 70.4025 19.083 70.5104 19.083C70.6183 19.083 70.7159 19.0602 70.7955 19.0145C70.8751 18.9689 70.9419 18.9081 70.9907 18.8346C71.0395 18.7611 71.0806 18.6749 71.1037 18.5836C71.1294 18.4898 71.1396 18.3935 71.1396 18.2972C71.1396 18.0513 71.0831 17.8587 70.9727 17.7193C70.8597 17.5824 70.7082 17.5115 70.5155 17.5115C70.4 17.5115 70.2998 17.5343 70.2202 17.5824C70.1406 17.6306 70.0738 17.6914 70.0224 17.7675C69.9711 17.8435 69.9351 17.9297 69.9146 18.026C69.894 18.1223 69.8812 18.2212 69.8812 18.3226H69.8863Z" fill="black"/>
<path d="M72.5343 18.4259C72.5343 18.5121 72.5471 18.5957 72.5702 18.6768C72.5959 18.7579 72.6319 18.8264 72.6806 18.8872C72.7294 18.948 72.7937 18.9962 72.8681 19.0317C72.9426 19.0672 73.0351 19.0849 73.1378 19.0849C73.2842 19.0849 73.3998 19.0545 73.4897 18.9911C73.5796 18.9303 73.6438 18.8365 73.6874 18.7123H74.16C74.1343 18.834 74.0881 18.9404 74.0239 19.0342C73.9597 19.128 73.8826 19.2091 73.7927 19.2725C73.7028 19.3384 73.6001 19.3865 73.4897 19.4195C73.3767 19.4524 73.2611 19.4702 73.1378 19.4702C72.9606 19.4702 72.8039 19.4423 72.6652 19.384C72.5266 19.3257 72.4136 19.2471 72.3185 19.1432C72.2235 19.0393 72.1516 18.9176 72.1054 18.7731C72.0566 18.6287 72.0334 18.4715 72.0334 18.2991C72.0334 18.142 72.0591 17.9924 72.1105 17.848C72.1619 17.706 72.2338 17.5818 72.3288 17.4728C72.4238 17.3664 72.5368 17.2802 72.6704 17.2168C72.8039 17.1535 72.9555 17.123 73.125 17.123C73.3022 17.123 73.4614 17.1585 73.6027 17.232C73.7439 17.3055 73.8621 17.4019 73.9545 17.5235C74.047 17.6452 74.1163 17.7821 74.1574 17.9392C74.1985 18.0964 74.2113 18.2561 74.1908 18.4233H72.5317L72.5343 18.4259ZM73.6977 18.1014C73.6926 18.0229 73.6746 17.9494 73.6463 17.8784C73.6181 17.8074 73.5821 17.744 73.5333 17.6908C73.4845 17.6376 73.428 17.5945 73.3587 17.5615C73.2893 17.5286 73.2149 17.5109 73.1301 17.5109C73.0453 17.5109 72.9632 17.5261 72.8913 17.5565C72.8193 17.5869 72.7577 17.6275 72.7089 17.6807C72.6575 17.7339 72.6164 17.7973 72.5856 17.8682C72.5548 17.9392 72.5394 18.0178 72.5343 18.1014H73.6951H73.6977Z" fill="black"/>
<path d="M74.558 17.1839H75.0254V17.6148H75.0331C75.0485 17.5539 75.0768 17.4956 75.1179 17.4374C75.159 17.3791 75.2103 17.3284 75.2694 17.2802C75.3285 17.232 75.3953 17.194 75.4672 17.1661C75.5391 17.1383 75.6136 17.123 75.6906 17.123C75.7497 17.123 75.7882 17.123 75.8113 17.1281C75.8319 17.1307 75.855 17.1332 75.8781 17.1357V17.6097C75.8421 17.6046 75.8087 17.5996 75.7702 17.5945C75.7343 17.5894 75.6983 17.5869 75.6624 17.5869C75.5776 17.5869 75.498 17.6046 75.4235 17.6376C75.349 17.6705 75.2848 17.7187 75.2283 17.7846C75.1718 17.8505 75.1282 17.9291 75.0973 18.0229C75.0665 18.1166 75.0485 18.2282 75.0485 18.3498V19.4093H74.5503V17.1813L74.558 17.1839Z" fill="black"/>
<path d="M77.604 16.335H79.7562V16.8013H78.1485V17.6074H79.5585V18.0459H78.1485V19.4121H77.604V16.335Z" fill="black"/>
<path d="M80.1055 17.1839H80.5729V17.6148H80.5806C80.596 17.5539 80.6243 17.4956 80.6654 17.4374C80.709 17.3791 80.7578 17.3284 80.8195 17.2802C80.8785 17.232 80.9453 17.194 81.0172 17.1661C81.0891 17.1383 81.1636 17.123 81.2407 17.123C81.2997 17.123 81.3383 17.123 81.3614 17.1281C81.3819 17.1307 81.405 17.1332 81.4281 17.1357V17.6097C81.3922 17.6046 81.3588 17.5996 81.3203 17.5945C81.2843 17.5894 81.2484 17.5869 81.2124 17.5869C81.1276 17.5869 81.048 17.6046 80.9736 17.6376C80.8991 17.6705 80.8349 17.7187 80.7784 17.7846C80.7219 17.848 80.6782 17.9291 80.6474 18.0229C80.6166 18.1166 80.5986 18.2282 80.5986 18.3498V19.4093H80.1003V17.1813L80.1055 17.1839Z" fill="black"/>
<path d="M81.9367 18.4259C81.9367 18.5121 81.9496 18.5957 81.9727 18.6768C81.9984 18.7579 82.0343 18.8264 82.0831 18.8872C82.1319 18.948 82.1961 18.9962 82.2706 19.0317C82.3451 19.0672 82.4375 19.0849 82.5403 19.0849C82.6867 19.0849 82.8022 19.0545 82.8921 18.9911C82.982 18.9303 83.0462 18.8365 83.0899 18.7123H83.5624C83.5368 18.834 83.4905 18.9404 83.4263 19.0342C83.3621 19.128 83.2851 19.2091 83.1952 19.2725C83.1053 19.3384 83.0026 19.3865 82.8921 19.4195C82.7791 19.4524 82.6635 19.4702 82.5403 19.4702C82.3631 19.4702 82.2064 19.4423 82.0677 19.384C81.9316 19.3257 81.816 19.2471 81.721 19.1432C81.626 19.0393 81.5541 18.9176 81.5078 18.7731C81.459 18.6287 81.4359 18.4715 81.4359 18.2991C81.4359 18.142 81.4616 17.9924 81.513 17.848C81.5643 17.706 81.6362 17.5818 81.7313 17.4728C81.8263 17.3638 81.9393 17.2802 82.0728 17.2168C82.2064 17.1535 82.3579 17.123 82.5274 17.123C82.7046 17.123 82.8639 17.1585 83.0051 17.232C83.1464 17.3055 83.2645 17.4019 83.357 17.5235C83.4494 17.6452 83.5188 17.7821 83.5599 17.9392C83.601 18.0964 83.6138 18.2561 83.5933 18.4233H81.9342L81.9367 18.4259ZM83.0976 18.1014C83.0924 18.0229 83.0745 17.9494 83.0462 17.8784C83.018 17.8074 82.982 17.744 82.9332 17.6908C82.8844 17.6376 82.8279 17.5945 82.7586 17.5615C82.6892 17.5286 82.6147 17.5109 82.53 17.5109C82.4452 17.5109 82.3631 17.5261 82.2911 17.5565C82.2192 17.5869 82.1576 17.6275 82.1088 17.6807C82.0574 17.7339 82.0163 17.7973 81.9855 17.8682C81.9547 17.9392 81.9393 18.0178 81.9342 18.1014H83.095H83.0976Z" fill="black"/>
<path d="M83.9708 16.335H84.4691V16.8013H83.9708V16.335ZM83.9708 17.1841H84.4691V19.4121H83.9708V17.1841Z" fill="black"/>
<path d="M84.9134 17.1846H86.7471V17.5293L85.4553 19.0248H86.8139V19.4126H84.826V19.0678L86.0742 17.5724H84.9134V17.1846Z" fill="black"/>
<path d="M87.5459 18.4259C87.5459 18.5121 87.5587 18.5957 87.5818 18.6768C87.6075 18.7579 87.6434 18.8264 87.6922 18.8872C87.741 18.948 87.8053 18.9962 87.8797 19.0317C87.9542 19.0672 88.0467 19.0849 88.1494 19.0849C88.2958 19.0849 88.4114 19.0545 88.5013 18.9911C88.5911 18.9303 88.6554 18.8365 88.699 18.7123H89.1716C89.1459 18.834 89.0997 18.9404 89.0355 19.0342C88.9713 19.128 88.8942 19.2091 88.8043 19.2725C88.7144 19.3384 88.6117 19.3865 88.5013 19.4195C88.3882 19.4524 88.2727 19.4702 88.1494 19.4702C87.9722 19.4702 87.8155 19.4423 87.6768 19.384C87.5407 19.3257 87.4251 19.2471 87.3301 19.1432C87.2351 19.0393 87.1632 18.9176 87.117 18.7731C87.0682 18.6287 87.045 18.4715 87.045 18.2991C87.045 18.142 87.0707 17.9924 87.1221 17.848C87.1735 17.706 87.2454 17.5818 87.3404 17.4728C87.4354 17.3638 87.5484 17.2802 87.682 17.2168C87.8155 17.1535 87.9671 17.123 88.1366 17.123C88.3138 17.123 88.473 17.1585 88.6143 17.232C88.7555 17.3055 88.8737 17.4019 88.9661 17.5235C89.0586 17.6452 89.1279 17.7821 89.169 17.9392C89.2101 18.0964 89.2229 18.2561 89.2024 18.4233H87.5433L87.5459 18.4259ZM88.7067 18.1014C88.7016 18.0229 88.6836 17.9494 88.6553 17.8784C88.6271 17.8074 88.5911 17.744 88.5423 17.6908C88.4935 17.6376 88.437 17.5945 88.3677 17.5615C88.2984 17.5286 88.2239 17.5109 88.1391 17.5109C88.0544 17.5109 87.9722 17.5261 87.9003 17.5565C87.8284 17.5869 87.7667 17.6275 87.7179 17.6807C87.6666 17.7339 87.6255 17.7973 87.5947 17.8682C87.5638 17.9392 87.5484 18.0178 87.5433 18.1014H88.7041H88.7067Z" fill="black"/>
<path d="M89.5798 16.335H90.0781V16.8013H89.5798V16.335ZM89.5798 17.1841H90.0781V19.4121H89.5798V17.1841Z" fill="black"/>
<path d="M90.3761 17.1842H90.7511V16.5176H91.2493V17.1842H91.6988V17.5492H91.2493V18.738C91.2493 18.7887 91.2493 18.8343 91.257 18.8723C91.2647 18.9103 91.2724 18.9407 91.2878 18.9661C91.3032 18.9914 91.3289 19.0117 91.3597 19.0244C91.3906 19.0371 91.4342 19.0447 91.4907 19.0447C91.5267 19.0447 91.5601 19.0447 91.596 19.0447C91.632 19.0447 91.6654 19.0371 91.7013 19.0295V19.4097C91.6448 19.4147 91.5935 19.4223 91.5395 19.4274C91.4856 19.4325 91.4342 19.435 91.3777 19.435C91.2467 19.435 91.1414 19.4223 91.0618 19.3995C90.9822 19.3742 90.918 19.3387 90.8743 19.2931C90.8281 19.2449 90.7999 19.1866 90.7819 19.1131C90.7665 19.0421 90.7562 18.9585 90.7536 18.8672V17.5517H90.3787V17.1867L90.3761 17.1842Z" fill="black"/>
<path d="M92.4152 18.6975C92.4307 18.842 92.4846 18.9408 92.5822 18.9991C92.6798 19.0574 92.7928 19.0853 92.9263 19.0853C92.9726 19.0853 93.0265 19.0828 93.0856 19.0752C93.1446 19.0676 93.2011 19.0549 93.2525 19.0346C93.3039 19.0143 93.3475 18.9839 93.3809 18.9459C93.4143 18.9079 93.4297 18.8572 93.4271 18.7938C93.4246 18.7304 93.4015 18.6797 93.3578 18.6392C93.3141 18.5986 93.2576 18.5657 93.1883 18.5429C93.1189 18.5175 93.0419 18.4972 92.9546 18.4795C92.8673 18.4618 92.7774 18.444 92.6875 18.4237C92.595 18.4035 92.5051 18.3781 92.4204 18.3502C92.3356 18.3224 92.2586 18.2818 92.1892 18.2336C92.1199 18.1855 92.066 18.1221 92.0249 18.0461C91.9838 17.97 91.9632 17.8762 91.9632 17.7647C91.9632 17.6431 91.994 17.5417 92.0531 17.4606C92.1122 17.3794 92.1892 17.3135 92.2791 17.2629C92.3716 17.2122 92.4717 17.1767 92.5847 17.1564C92.6977 17.1361 92.803 17.126 92.9058 17.126C93.0214 17.126 93.1344 17.1386 93.2397 17.1615C93.345 17.1868 93.4426 17.2248 93.5273 17.2806C93.6121 17.3338 93.684 17.4073 93.7405 17.4935C93.797 17.5822 93.8329 17.6861 93.8483 17.8103H93.3296C93.3064 17.6937 93.2525 17.6126 93.1652 17.5746C93.0804 17.5341 92.9803 17.5138 92.8698 17.5138C92.8339 17.5138 92.7928 17.5163 92.7465 17.5214C92.6978 17.5265 92.6541 17.5391 92.6104 17.5543C92.5668 17.5695 92.5334 17.5924 92.5026 17.6228C92.4717 17.6532 92.4589 17.6912 92.4589 17.7419C92.4589 17.8027 92.4794 17.8509 92.5231 17.8889C92.5668 17.9269 92.6207 17.9574 92.69 17.9827C92.7594 18.008 92.8364 18.0283 92.9238 18.0461C93.0111 18.0638 93.101 18.0816 93.1934 18.1018C93.2833 18.1221 93.3732 18.1475 93.4605 18.1753C93.5478 18.2032 93.6249 18.2438 93.6942 18.2919C93.7636 18.3401 93.8175 18.4035 93.8612 18.477C93.9048 18.5505 93.9254 18.6443 93.9254 18.7532C93.9254 18.8851 93.8946 18.9966 93.8329 19.0904C93.7713 19.1816 93.6917 19.2577 93.5941 19.3134C93.4965 19.3692 93.3886 19.4123 93.2679 19.4376C93.1498 19.463 93.0316 19.4756 92.9135 19.4756C92.7722 19.4756 92.6387 19.4604 92.518 19.4275C92.3973 19.3945 92.292 19.3489 92.2046 19.283C92.1173 19.2171 92.0454 19.1385 91.994 19.0422C91.9427 18.9459 91.917 18.8318 91.9144 18.7H92.4127L92.4152 18.6975Z" fill="black"/>
<path d="M94.059 17.1842H94.4339V16.5176H94.9322V17.1842H95.3816V17.5492H94.9322V18.738C94.9322 18.7887 94.9322 18.8343 94.9399 18.8723C94.9476 18.9103 94.9553 18.9407 94.9707 18.9661C94.9861 18.9914 95.0118 19.0117 95.0426 19.0244C95.0734 19.0371 95.1171 19.0447 95.1736 19.0447C95.2095 19.0447 95.2429 19.0447 95.2789 19.0447C95.3148 19.0447 95.3482 19.0371 95.3842 19.0295V19.4097C95.3277 19.4147 95.2763 19.4223 95.2224 19.4274C95.1685 19.4325 95.1171 19.435 95.0606 19.435C94.9296 19.435 94.8243 19.4223 94.7447 19.3995C94.6651 19.3742 94.6009 19.3387 94.5572 19.2931C94.511 19.2449 94.4827 19.1866 94.4647 19.1131C94.4493 19.0421 94.4391 18.9585 94.4365 18.8672V17.5517H94.0615V17.1867L94.059 17.1842Z" fill="black"/>
<path d="M97.6135 18.9177C97.6135 18.9785 97.6212 19.0216 97.6366 19.0469C97.652 19.0723 97.6828 19.0849 97.7316 19.0849H97.783C97.8036 19.0849 97.8267 19.0824 97.8524 19.0773V19.417C97.8344 19.4221 97.8113 19.4297 97.7856 19.4373C97.7573 19.4449 97.7291 19.4499 97.7008 19.4575C97.6726 19.4626 97.6418 19.4677 97.6135 19.4702C97.5853 19.4727 97.5596 19.4753 97.539 19.4753C97.4363 19.4753 97.3515 19.455 97.2848 19.4144C97.218 19.3739 97.1743 19.3029 97.1538 19.2041C97.0562 19.2979 96.9329 19.3688 96.7891 19.4119C96.6453 19.455 96.5066 19.4753 96.373 19.4753C96.2703 19.4753 96.1727 19.4626 96.0802 19.4347C95.9878 19.4068 95.9056 19.3663 95.8337 19.3131C95.7618 19.2598 95.7053 19.1914 95.6642 19.1103C95.6231 19.0292 95.6 18.9329 95.6 18.8239C95.6 18.687 95.6257 18.5729 95.677 18.4868C95.7284 18.4006 95.7952 18.3321 95.8773 18.284C95.9595 18.2358 96.0546 18.2003 96.1573 18.1775C96.26 18.1572 96.3653 18.1395 96.4681 18.1268C96.5579 18.1091 96.6453 18.0964 96.7249 18.0913C96.8045 18.0863 96.879 18.0711 96.9406 18.0559C97.0023 18.0381 97.0536 18.0128 97.0896 17.9773C97.1255 17.9418 97.1435 17.8886 97.1435 17.8151C97.1435 17.7517 97.1281 17.701 97.0973 17.6604C97.0665 17.6199 97.0279 17.5895 96.9843 17.5667C96.9406 17.5438 96.8892 17.5312 96.8327 17.5236C96.7762 17.516 96.7249 17.5134 96.6761 17.5134C96.5374 17.5134 96.4218 17.5413 96.3319 17.5996C96.242 17.6579 96.1907 17.7466 96.1778 17.8658H95.6796C95.6873 17.7213 95.7233 17.6021 95.7849 17.5084C95.8465 17.4146 95.9236 17.3385 96.0186 17.2802C96.1136 17.2219 96.2189 17.1814 96.3396 17.1586C96.4578 17.1358 96.5811 17.1231 96.7069 17.1231C96.8173 17.1231 96.9278 17.1358 97.0331 17.1586C97.1409 17.1814 97.2385 17.2194 97.3233 17.2701C97.408 17.3208 97.4774 17.3892 97.5313 17.4703C97.5827 17.5515 97.6109 17.6528 97.6109 17.7694V18.9151L97.6135 18.9177ZM96.0674 16.8189V16.3525H96.5656V16.8189H96.0674ZM97.1153 18.2967C97.0408 18.3448 96.9458 18.3752 96.8353 18.3854C96.7249 18.3955 96.6144 18.4107 96.504 18.431C96.4526 18.4386 96.4013 18.4513 96.3499 18.4665C96.2985 18.4817 96.2575 18.5045 96.2189 18.5298C96.1804 18.5552 96.1522 18.5932 96.129 18.6363C96.1059 18.6794 96.0957 18.7352 96.0957 18.7985C96.0957 18.8517 96.1111 18.8999 96.1444 18.9354C96.1778 18.9709 96.2138 19.0013 96.26 19.0241C96.3062 19.0469 96.355 19.0596 96.409 19.0697C96.4629 19.0773 96.5117 19.0824 96.5554 19.0824C96.6119 19.0824 96.6709 19.0748 96.7351 19.0621C96.7994 19.0495 96.8584 19.0241 96.9175 18.9886C96.974 18.9531 97.0202 18.91 97.0588 18.8568C97.0973 18.8036 97.1153 18.7377 97.1153 18.6616V18.2941V18.2967ZM97.3182 16.3525V16.8189H96.8199V16.3525H97.3182Z" fill="black"/>
<path d="M97.9062 17.1842H98.2812V16.5176H98.7795V17.1842H99.2289V17.5492H98.7795V18.738C98.7795 18.7887 98.7795 18.8343 98.7872 18.8723C98.7949 18.9103 98.8026 18.9407 98.818 18.9661C98.8334 18.9914 98.8591 19.0117 98.8899 19.0244C98.9207 19.0371 98.9644 19.0447 99.0209 19.0447C99.0568 19.0447 99.0902 19.0447 99.1262 19.0447C99.1621 19.0447 99.1955 19.0371 99.2315 19.0295V19.4097C99.175 19.4147 99.1236 19.4223 99.0697 19.4274C99.0157 19.4325 98.9644 19.435 98.9079 19.435C98.7769 19.435 98.6716 19.4223 98.592 19.3995C98.5124 19.3742 98.4482 19.3387 98.4045 19.2931C98.3583 19.2449 98.33 19.1866 98.312 19.1131C98.2966 19.0421 98.2864 18.9585 98.2838 18.8672V17.5517H97.9088V17.1867L97.9062 17.1842Z" fill="black"/>
<path d="M99.3419 17.1842H99.7169V16.5176H100.215V17.1842H100.665V17.5492H100.215V18.738C100.215 18.7887 100.215 18.8343 100.223 18.8723C100.231 18.9103 100.238 18.9407 100.254 18.9661C100.269 18.9914 100.295 19.0117 100.326 19.0244C100.356 19.0371 100.4 19.0447 100.457 19.0447C100.493 19.0447 100.526 19.0447 100.562 19.0447C100.598 19.0447 100.631 19.0371 100.667 19.0295V19.4097C100.611 19.4147 100.559 19.4223 100.505 19.4274C100.451 19.4325 100.4 19.435 100.344 19.435C100.213 19.435 100.107 19.4223 100.028 19.3995C99.948 19.3742 99.8838 19.3387 99.8402 19.2931C99.7939 19.2449 99.7657 19.1866 99.7477 19.1131C99.7323 19.0421 99.722 18.9585 99.7195 18.8672V17.5517H99.3445V17.1867L99.3419 17.1842Z" fill="black"/>
<path d="M101.394 18.4259C101.394 18.5121 101.407 18.5957 101.43 18.6768C101.456 18.7579 101.492 18.8264 101.54 18.8872C101.589 18.948 101.653 18.9962 101.728 19.0317C101.802 19.0672 101.895 19.0849 101.998 19.0849C102.144 19.0849 102.26 19.0545 102.349 18.9911C102.439 18.9303 102.503 18.8365 102.547 18.7123H103.02C102.994 18.834 102.948 18.9404 102.884 19.0342C102.819 19.128 102.742 19.2091 102.652 19.2725C102.563 19.3384 102.46 19.3865 102.349 19.4195C102.236 19.4524 102.121 19.4702 101.998 19.4702C101.82 19.4702 101.664 19.4423 101.525 19.384C101.389 19.3257 101.273 19.2471 101.178 19.1432C101.083 19.0393 101.011 18.9176 100.965 18.7731C100.916 18.6287 100.893 18.4715 100.893 18.2991C100.893 18.142 100.919 17.9924 100.97 17.848C101.022 17.706 101.094 17.5818 101.189 17.4728C101.284 17.3638 101.397 17.2802 101.53 17.2168C101.664 17.1535 101.815 17.123 101.985 17.123C102.162 17.123 102.321 17.1585 102.462 17.232C102.604 17.3055 102.722 17.4019 102.814 17.5235C102.907 17.6452 102.976 17.7821 103.017 17.9392C103.058 18.0964 103.071 18.2561 103.051 18.4233H101.391L101.394 18.4259ZM102.557 18.1014C102.552 18.0229 102.534 17.9494 102.506 17.8784C102.478 17.8074 102.442 17.744 102.393 17.6908C102.344 17.6376 102.288 17.5945 102.218 17.5615C102.149 17.5286 102.075 17.5109 101.99 17.5109C101.905 17.5109 101.823 17.5261 101.751 17.5565C101.679 17.5869 101.617 17.6275 101.569 17.6807C101.517 17.7339 101.476 17.7973 101.445 17.8682C101.415 17.9392 101.399 18.0178 101.394 18.1014H102.555H102.557Z" fill="black"/>
<path d="M103.415 17.1845H103.888V17.5114L103.895 17.519C103.97 17.3948 104.07 17.2985 104.193 17.2276C104.317 17.1566 104.45 17.1211 104.599 17.1211C104.846 17.1211 105.041 17.1845 105.185 17.3112C105.326 17.4379 105.398 17.628 105.398 17.879V19.4099H104.9V18.0082C104.894 17.8333 104.856 17.7066 104.787 17.628C104.717 17.5495 104.607 17.5089 104.458 17.5089C104.373 17.5089 104.299 17.5241 104.232 17.5545C104.165 17.5849 104.109 17.6255 104.062 17.6787C104.016 17.732 103.98 17.7953 103.955 17.8663C103.929 17.9373 103.916 18.0133 103.916 18.0944V19.4099H103.418V17.1819L103.415 17.1845Z" fill="black"/>
<path d="M30.2014 21.6855H32.3536V22.1519H30.7459V22.958H32.1559V23.3965H30.7459V24.7627H30.2014V21.6855Z" fill="black"/>
<path d="M33.0702 23.7746C33.0702 23.8608 33.083 23.9444 33.1061 24.0255C33.1318 24.1066 33.1677 24.1776 33.2165 24.2359C33.2653 24.2967 33.3295 24.3449 33.404 24.3804C33.4785 24.4159 33.571 24.4336 33.6737 24.4336C33.8201 24.4336 33.9357 24.4032 34.0255 24.3398C34.1154 24.279 34.1796 24.1852 34.2233 24.061H34.6959C34.6702 24.1827 34.624 24.2891 34.5597 24.3854C34.4955 24.4792 34.4185 24.5603 34.3286 24.6237C34.2387 24.6871 34.136 24.7378 34.0255 24.7707C33.9125 24.8037 33.797 24.8214 33.6737 24.8214C33.4965 24.8214 33.3398 24.7935 33.2011 24.7352C33.0624 24.6769 32.9494 24.5984 32.8544 24.4944C32.7594 24.3905 32.6875 24.2663 32.6412 24.1244C32.595 23.9824 32.5693 23.8227 32.5693 23.6504C32.5693 23.4932 32.595 23.3412 32.6464 23.1992C32.6977 23.0573 32.7697 22.9331 32.8647 22.8241C32.9597 22.7176 33.0727 22.6314 33.2063 22.5681C33.3398 22.5047 33.4913 22.4743 33.6609 22.4743C33.8381 22.4743 33.9973 22.5098 34.1386 22.5833C34.2798 22.6568 34.3979 22.7531 34.4904 22.8748C34.5829 22.9964 34.6522 23.1333 34.6933 23.2905C34.7344 23.4476 34.7472 23.6098 34.7267 23.7746H33.0676H33.0702ZM34.231 23.4527C34.2259 23.3741 34.2079 23.3006 34.1796 23.2296C34.1514 23.1587 34.1154 23.0953 34.0666 23.0421C34.0178 22.9888 33.9613 22.9457 33.892 22.9128C33.8227 22.8798 33.7482 22.8621 33.6634 22.8621C33.5787 22.8621 33.4965 22.8773 33.4246 22.9077C33.3527 22.9381 33.291 22.9787 33.2422 23.0319C33.1909 23.0851 33.1498 23.1485 33.1189 23.2195C33.0881 23.2905 33.0727 23.369 33.0676 23.4527H34.2284H34.231ZM33.856 21.6074H34.4467L33.8278 22.2234H33.4657L33.8586 21.6074H33.856Z" fill="black"/>
<path d="M37.1973 24.7632H36.7247V24.4616H36.717C36.6502 24.5909 36.5527 24.6847 36.4242 24.7404C36.2958 24.7962 36.1597 24.8241 36.0185 24.8241C35.8412 24.8241 35.6871 24.7937 35.5536 24.7303C35.42 24.6695 35.3122 24.5833 35.2249 24.4768C35.1375 24.3704 35.0708 24.2436 35.0271 24.0992C34.9834 23.9547 34.9629 23.7975 34.9629 23.6328C34.9629 23.4325 34.9911 23.2576 35.0451 23.1106C35.099 22.9636 35.1735 22.8445 35.2659 22.7482C35.3584 22.6518 35.4637 22.5834 35.5793 22.5378C35.6974 22.4947 35.8181 22.4719 35.9388 22.4719C36.0082 22.4719 36.0801 22.4795 36.152 22.4922C36.2239 22.5048 36.2958 22.5251 36.3626 22.5555C36.4294 22.5859 36.491 22.6214 36.5475 22.6645C36.604 22.7101 36.6528 22.7608 36.6888 22.8217H36.6965V21.6836H37.1947V24.7607L37.1973 24.7632ZM35.4586 23.6733C35.4586 23.7671 35.4714 23.8609 35.4945 23.9547C35.5202 24.0459 35.5562 24.1296 35.6075 24.2005C35.6589 24.2715 35.7231 24.3298 35.8027 24.3729C35.8823 24.416 35.9748 24.4363 36.0827 24.4363C36.1905 24.4363 36.2881 24.4135 36.3677 24.3678C36.4474 24.3222 36.5141 24.2614 36.5629 24.1879C36.6143 24.1144 36.6528 24.0282 36.6759 23.9344C36.7016 23.8406 36.7119 23.7443 36.7119 23.648C36.7119 23.4021 36.6554 23.2095 36.5449 23.0701C36.4319 22.9332 36.2804 22.8622 36.0878 22.8622C35.9722 22.8622 35.8721 22.885 35.7924 22.9332C35.7128 22.9814 35.646 23.0422 35.5947 23.1182C35.5433 23.1943 35.5074 23.2805 35.4868 23.3768C35.4663 23.4731 35.4534 23.5719 35.4534 23.6708L35.4586 23.6733Z" fill="black"/>
<path d="M38.0886 23.7746C38.0886 23.8608 38.1014 23.9444 38.1245 24.0255C38.1502 24.1066 38.1862 24.1776 38.235 24.2359C38.2838 24.2967 38.348 24.3449 38.4225 24.3804C38.4969 24.4159 38.5894 24.4336 38.6921 24.4336C38.8385 24.4336 38.9541 24.4032 39.044 24.3398C39.1339 24.279 39.1981 24.1852 39.2417 24.061H39.7143C39.6886 24.1827 39.6424 24.2891 39.5782 24.3854C39.514 24.4792 39.4369 24.5603 39.347 24.6237C39.2571 24.6871 39.1544 24.7378 39.044 24.7707C38.931 24.8037 38.8154 24.8214 38.6921 24.8214C38.5149 24.8214 38.3582 24.7935 38.2196 24.7352C38.0809 24.6769 37.9679 24.5984 37.8728 24.4944C37.7778 24.3905 37.7059 24.2663 37.6597 24.1244C37.6135 23.9824 37.5878 23.8227 37.5878 23.6504C37.5878 23.4932 37.6135 23.3412 37.6648 23.1992C37.7162 23.0573 37.7881 22.9331 37.8831 22.8241C37.9781 22.7176 38.0911 22.6314 38.2247 22.5681C38.3583 22.5047 38.5098 22.4743 38.6793 22.4743C38.8565 22.4743 39.0157 22.5098 39.157 22.5833C39.2982 22.6568 39.4164 22.7531 39.5088 22.8748C39.6013 22.9964 39.6706 23.1333 39.7117 23.2905C39.7528 23.4476 39.7657 23.6098 39.7451 23.7746H38.086H38.0886ZM39.2494 23.4527C39.2443 23.3741 39.2263 23.3006 39.1981 23.2296C39.1698 23.1587 39.1339 23.0953 39.0851 23.0421C39.0363 22.9888 38.9798 22.9457 38.9104 22.9128C38.8411 22.8798 38.7666 22.8621 38.6819 22.8621C38.5971 22.8621 38.5149 22.8773 38.443 22.9077C38.3711 22.9381 38.3095 22.9787 38.2607 23.0319C38.2093 23.0851 38.1682 23.1485 38.1374 23.2195C38.1066 23.2905 38.0912 23.369 38.086 23.4527H39.2469H39.2494ZM38.8745 21.6074H39.4652L38.8462 22.2234H38.4841L38.877 21.6074H38.8745Z" fill="black"/>
<path d="M40.0867 22.5345H40.5541V22.9654H40.5618C40.5772 22.9045 40.6055 22.8462 40.6466 22.7879C40.6877 22.7296 40.739 22.6789 40.7981 22.6308C40.8572 22.5826 40.9239 22.5446 40.9959 22.5167C41.0678 22.4888 41.1422 22.4736 41.2193 22.4736C41.2784 22.4736 41.3169 22.4736 41.34 22.4787C41.3605 22.4812 41.3837 22.4838 41.4068 22.4863V22.9603C41.3708 22.9552 41.3374 22.9502 41.2989 22.9451C41.263 22.94 41.227 22.9375 41.191 22.9375C41.1063 22.9375 41.0267 22.9552 40.9522 22.9882C40.8777 23.0211 40.8135 23.0693 40.757 23.1352C40.7005 23.2011 40.6568 23.2797 40.626 23.3734C40.5952 23.4672 40.5772 23.5762 40.5772 23.7004V24.7599H40.079V22.5319L40.0867 22.5345Z" fill="black"/>
<path d="M43.4742 24.2662C43.4742 24.3271 43.4819 24.3702 43.4973 24.3955C43.5127 24.4209 43.5436 24.4335 43.5924 24.4335H43.6437C43.6643 24.4335 43.6874 24.431 43.7131 24.4259V24.7656C43.6951 24.7706 43.672 24.7783 43.6463 24.7859C43.618 24.7935 43.5898 24.7985 43.5615 24.8061C43.5333 24.8112 43.5025 24.8163 43.4742 24.8188C43.446 24.8213 43.4203 24.8239 43.3997 24.8239C43.297 24.8239 43.2123 24.8036 43.1455 24.763C43.0787 24.7225 43.035 24.6515 43.0145 24.5527C42.9143 24.6464 42.7936 24.7174 42.6498 24.7605C42.506 24.8036 42.3673 24.8239 42.2337 24.8239C42.131 24.8239 42.0334 24.8112 41.941 24.7833C41.8485 24.7554 41.7663 24.7149 41.6944 24.6617C41.6225 24.6084 41.566 24.54 41.5249 24.4589C41.4838 24.3778 41.4607 24.2815 41.4607 24.1725C41.4607 24.0356 41.4864 23.9215 41.5377 23.8353C41.5891 23.7492 41.6559 23.6807 41.7381 23.6326C41.8203 23.5844 41.9153 23.5489 42.018 23.5261C42.1207 23.5033 42.226 23.4881 42.3313 23.4754C42.4212 23.4577 42.5085 23.445 42.5882 23.4399C42.6704 23.4323 42.7423 23.4197 42.8039 23.4044C42.8655 23.3867 42.9169 23.3614 42.9529 23.3259C42.9888 23.2904 43.0068 23.2372 43.0068 23.1637C43.0068 23.1003 42.9914 23.0496 42.9606 23.009C42.9297 22.9685 42.8912 22.9381 42.8476 22.9153C42.8039 22.8924 42.7525 22.8798 42.696 22.8722C42.6395 22.8646 42.5882 22.862 42.5394 22.862C42.4007 22.862 42.2851 22.8899 42.1952 22.9482C42.1053 23.0065 42.054 23.0952 42.0437 23.2143H41.5454C41.5532 23.0699 41.5891 22.9507 41.6507 22.857C41.7124 22.7632 41.7894 22.6871 41.8845 22.6288C41.9795 22.5705 42.0848 22.5325 42.2055 22.5072C42.3236 22.4844 42.4469 22.4717 42.5728 22.4717C42.6832 22.4717 42.7936 22.4818 42.9015 22.5072C43.0094 22.53 43.107 22.568 43.1917 22.6187C43.2765 22.6694 43.3458 22.7378 43.3997 22.8189C43.4511 22.9 43.4794 23.0014 43.4794 23.118V24.2637L43.4742 24.2662ZM42.9785 23.6452C42.9041 23.6934 42.809 23.7238 42.6986 23.734C42.5882 23.7441 42.4777 23.7593 42.3673 23.7796C42.3159 23.7872 42.2646 23.7999 42.2132 23.8151C42.1644 23.8303 42.1207 23.8531 42.0822 23.8784C42.0437 23.9063 42.0154 23.9418 41.9923 23.9874C41.9692 24.0331 41.9589 24.0863 41.9589 24.1496C41.9589 24.2054 41.9743 24.251 42.0077 24.2865C42.0386 24.3245 42.0771 24.3524 42.1233 24.3752C42.1695 24.3955 42.2183 24.4107 42.2723 24.4209C42.3262 24.4285 42.375 24.4335 42.4187 24.4335C42.4726 24.4335 42.5342 24.4259 42.5984 24.4133C42.6626 24.4006 42.7217 24.3752 42.7808 24.3397C42.8373 24.3043 42.8861 24.2612 42.922 24.2079C42.9606 24.1547 42.9785 24.0888 42.9785 24.0128V23.6478V23.6452Z" fill="black"/>
<path d="M43.7465 22.5348H44.1214V21.8682H44.6197V22.5348H45.0691V22.9023H44.6197V24.0911C44.6197 24.1418 44.6197 24.1874 44.6274 24.2254C44.6325 24.2635 44.6428 24.2939 44.6582 24.3192C44.6736 24.3446 44.6993 24.3648 44.7301 24.3775C44.7609 24.3902 44.8046 24.3978 44.8611 24.3978C44.897 24.3978 44.9304 24.3978 44.9664 24.3978C45.0023 24.3978 45.0357 24.3902 45.0717 24.3826V24.7628C45.0152 24.7679 44.9613 24.7729 44.9099 24.7805C44.8585 24.7856 44.8046 24.7881 44.7481 24.7881C44.6171 24.7881 44.5118 24.7755 44.4322 24.7526C44.3526 24.7273 44.2884 24.6918 44.2447 24.6462C44.1985 24.598 44.1702 24.5397 44.1522 24.4662C44.1368 24.3953 44.1266 24.3116 44.124 24.2204V22.9074H43.749V22.5399L43.7465 22.5348Z" fill="black"/>
<path d="M45.4004 21.6855H45.8986V22.1519H45.4004V21.6855ZM45.4004 22.5347H45.8986V24.7627H45.4004V22.5347Z" fill="black"/>
<path d="M47.4345 24.8208C47.2547 24.8208 47.0929 24.7903 46.9517 24.732C46.8104 24.6737 46.6923 24.5926 46.5947 24.4887C46.4971 24.3848 46.4226 24.2606 46.3712 24.1186C46.3199 23.9742 46.2942 23.817 46.2942 23.6447C46.2942 23.4723 46.3199 23.3177 46.3712 23.1757C46.4226 23.0313 46.4971 22.9096 46.5947 22.8057C46.6923 22.7018 46.8104 22.6206 46.9517 22.5623C47.0929 22.504 47.2547 22.4736 47.4345 22.4736C47.6143 22.4736 47.7761 22.504 47.9173 22.5623C48.0586 22.6206 48.1767 22.7018 48.2743 22.8057C48.3719 22.9096 48.4464 23.0338 48.4978 23.1757C48.5491 23.3202 48.5748 23.4748 48.5748 23.6447C48.5748 23.8145 48.5491 23.9742 48.4978 24.1186C48.4464 24.2631 48.3719 24.3848 48.2743 24.4887C48.1767 24.5926 48.0586 24.6737 47.9173 24.732C47.7761 24.7903 47.6143 24.8208 47.4345 24.8208ZM47.4345 24.433C47.5449 24.433 47.64 24.4101 47.7222 24.3645C47.8043 24.3189 47.8711 24.2581 47.9225 24.1846C47.9738 24.111 48.0124 24.0249 48.0381 23.9311C48.0637 23.8373 48.074 23.741 48.074 23.6447C48.074 23.5483 48.0612 23.4546 48.0381 23.3608C48.0149 23.267 47.9738 23.1808 47.9225 23.1073C47.8711 23.0338 47.8043 22.9755 47.7222 22.9273C47.64 22.8792 47.5449 22.8589 47.4345 22.8589C47.3241 22.8589 47.229 22.8817 47.1469 22.9273C47.0647 22.973 46.9979 23.0338 46.9465 23.1073C46.8952 23.1808 46.8566 23.2645 46.831 23.3608C46.8053 23.4571 46.795 23.5509 46.795 23.6447C46.795 23.7384 46.8078 23.8373 46.831 23.9311C46.8541 24.0249 46.8952 24.1085 46.9465 24.1846C46.9979 24.2581 47.0647 24.3189 47.1469 24.3645C47.229 24.4101 47.3241 24.433 47.4345 24.433Z" fill="black"/>
<path d="M48.9497 22.535H49.4223V22.862L49.43 22.8696C49.5045 22.7454 49.6046 22.6491 49.7279 22.5781C49.8512 22.5072 49.9847 22.4717 50.1337 22.4717C50.3802 22.4717 50.5754 22.535 50.7192 22.6618C50.8631 22.7885 50.9324 22.9786 50.9324 23.2296V24.7605H50.4342V23.3614C50.429 23.1865 50.3905 23.0597 50.3212 22.9812C50.2518 22.9026 50.1414 22.862 49.995 22.862C49.9102 22.862 49.8358 22.8772 49.769 22.9076C49.7022 22.9381 49.6457 22.9786 49.5995 23.0318C49.5533 23.0851 49.5173 23.1484 49.489 23.2194C49.4608 23.2904 49.4505 23.3664 49.4505 23.4475V24.7605H48.9523V22.5325L48.9497 22.535Z" fill="black"/>
<path d="M52.9665 24.0451C52.9819 24.1896 53.0359 24.2885 53.1335 24.3468C53.231 24.4051 53.344 24.433 53.4776 24.433C53.5238 24.433 53.5778 24.4304 53.6368 24.4228C53.6959 24.4152 53.7524 24.4025 53.8038 24.3823C53.8551 24.362 53.8988 24.3316 53.9322 24.2935C53.9656 24.2555 53.981 24.2048 53.9784 24.1415C53.9758 24.0781 53.9527 24.0274 53.9091 23.9868C53.8654 23.9463 53.8089 23.9133 53.7421 23.8905C53.6728 23.8652 53.5957 23.8449 53.5084 23.8272C53.4211 23.8094 53.3312 23.7917 53.2413 23.7714C53.1489 23.7511 53.059 23.7283 52.9716 23.6979C52.8869 23.67 52.8098 23.6295 52.7405 23.5813C52.6712 23.5331 52.6172 23.4698 52.5761 23.3937C52.535 23.3177 52.5145 23.2239 52.5145 23.1124C52.5145 22.9907 52.5453 22.8893 52.6044 22.8082C52.6635 22.7271 52.7405 22.6612 52.8304 22.6105C52.9203 22.5598 53.023 22.5243 53.136 22.504C53.249 22.4838 53.3543 22.4736 53.4571 22.4736C53.5726 22.4736 53.6856 22.4863 53.7909 22.5091C53.8962 22.5345 53.9938 22.5725 54.0786 22.6282C54.1633 22.684 54.2352 22.755 54.2917 22.8412C54.3482 22.9299 54.3842 23.0338 54.3996 23.158H53.8808C53.8577 23.0414 53.8038 22.9603 53.7165 22.9223C53.6317 22.8817 53.5315 22.8614 53.4211 22.8614C53.3851 22.8614 53.344 22.864 53.2978 22.869C53.249 22.8741 53.2054 22.8868 53.1617 22.902C53.118 22.9172 53.0847 22.94 53.0538 22.9704C53.023 23.0008 53.0102 23.0414 53.0102 23.0896C53.0102 23.1504 53.0307 23.1986 53.0744 23.2366C53.1155 23.2746 53.172 23.305 53.2413 23.3304C53.3107 23.3557 53.3877 23.376 53.475 23.3937C53.5624 23.4115 53.6522 23.4292 53.7447 23.4495C53.8346 23.4698 53.9245 23.4951 54.0118 23.523C54.0991 23.5509 54.1762 23.5914 54.2455 23.6396C54.3149 23.6878 54.3688 23.7511 54.4125 23.8246C54.4535 23.8981 54.4767 23.9919 54.4767 24.1009C54.4767 24.2327 54.4458 24.3442 54.3842 24.438C54.3226 24.5293 54.2429 24.6053 54.1454 24.6611C54.0478 24.7194 53.9399 24.7599 53.8192 24.7853C53.701 24.8106 53.5829 24.8233 53.4648 24.8233C53.3209 24.8233 53.19 24.8081 53.0692 24.7751C52.9485 24.7447 52.8432 24.6966 52.7559 24.6307C52.6686 24.5648 52.5967 24.4862 52.5453 24.3899C52.4939 24.2935 52.4683 24.1795 52.4657 24.0477H52.9639L52.9665 24.0451Z" fill="black"/>
<path d="M56.8009 24.7632H56.313V24.4539H56.3053C56.2436 24.5654 56.1537 24.6567 56.033 24.7226C55.9123 24.791 55.789 24.824 55.6632 24.824C55.3653 24.824 55.1521 24.7505 55.0186 24.606C54.885 24.4615 54.8208 24.241 54.8208 23.9495V22.5352H55.319V23.9014C55.319 24.0965 55.3576 24.2334 55.4321 24.3145C55.5065 24.3956 55.6144 24.4362 55.7505 24.4362C55.8558 24.4362 55.9431 24.421 56.0125 24.388C56.0818 24.3551 56.1383 24.3145 56.182 24.2613C56.2256 24.2081 56.2565 24.1447 56.277 24.0686C56.295 23.9951 56.3053 23.914 56.3053 23.8279V22.5352H56.8035V24.7632H56.8009Z" fill="black"/>
<path d="M57.2966 21.6855H57.7949V22.1519H57.2966V21.6855ZM57.2966 22.5347H57.7949V24.7627H57.2966V22.5347Z" fill="black"/>
<path d="M58.6733 24.0451C58.6887 24.1896 58.7426 24.2885 58.8402 24.3468C58.9378 24.4051 59.0508 24.433 59.1844 24.433C59.2306 24.433 59.2845 24.4304 59.3436 24.4228C59.4027 24.4152 59.4592 24.4025 59.5106 24.3823C59.5619 24.362 59.6056 24.3316 59.639 24.2935C59.6724 24.2555 59.6878 24.2048 59.6852 24.1415C59.6826 24.0781 59.6595 24.0274 59.6159 23.9868C59.5722 23.9463 59.5157 23.9133 59.4489 23.8905C59.3796 23.8652 59.3025 23.8449 59.2152 23.8272C59.1279 23.8094 59.038 23.7917 58.9481 23.7714C58.8556 23.7511 58.7658 23.7283 58.6784 23.6979C58.5937 23.67 58.5166 23.6295 58.4473 23.5813C58.3779 23.5331 58.324 23.4698 58.2829 23.3937C58.2418 23.3177 58.2213 23.2239 58.2213 23.1124C58.2213 22.9907 58.2521 22.8893 58.3112 22.8082C58.3702 22.7271 58.4473 22.6612 58.5372 22.6105C58.6271 22.5598 58.7298 22.5243 58.8428 22.504C58.9558 22.4838 59.0611 22.4736 59.1638 22.4736C59.2794 22.4736 59.3924 22.4863 59.4977 22.5091C59.603 22.5345 59.7006 22.5725 59.7854 22.6282C59.8701 22.684 59.942 22.755 59.9985 22.8412C60.055 22.9299 60.091 23.0338 60.1064 23.158H59.5876C59.5645 23.0414 59.5106 22.9603 59.4232 22.9223C59.3385 22.8817 59.2383 22.8614 59.1279 22.8614C59.0919 22.8614 59.0508 22.864 59.0046 22.869C58.9558 22.8741 58.9122 22.8868 58.8685 22.902C58.8248 22.9172 58.7914 22.94 58.7606 22.9704C58.7298 23.0008 58.717 23.0414 58.717 23.0896C58.717 23.1504 58.7375 23.1986 58.7812 23.2366C58.8223 23.2746 58.8788 23.305 58.9481 23.3304C59.0174 23.3557 59.0945 23.376 59.1818 23.3937C59.2691 23.4115 59.359 23.4292 59.4515 23.4495C59.5414 23.4698 59.6313 23.4951 59.7186 23.523C59.8059 23.5509 59.883 23.5914 59.9523 23.6396C60.0216 23.6878 60.0756 23.7511 60.1192 23.8246C60.1603 23.8981 60.1834 23.9919 60.1834 24.1009C60.1834 24.2327 60.1526 24.3442 60.091 24.438C60.0293 24.5293 59.9497 24.6053 59.8521 24.6611C59.7545 24.7194 59.6467 24.7599 59.526 24.7853C59.4078 24.8106 59.2897 24.8233 59.1715 24.8233C59.0277 24.8233 58.8967 24.8081 58.776 24.7751C58.6553 24.7447 58.55 24.6966 58.4627 24.6307C58.3754 24.5648 58.3035 24.4862 58.2521 24.3899C58.2007 24.2935 58.1751 24.1795 58.1725 24.0477H58.6707L58.6733 24.0451Z" fill="black"/>
<path d="M60.9 24.0451C60.9154 24.1896 60.9693 24.2885 61.0669 24.3468C61.1645 24.4051 61.2775 24.433 61.4111 24.433C61.4573 24.433 61.5112 24.4304 61.5703 24.4228C61.6294 24.4152 61.6859 24.4025 61.7372 24.3823C61.7886 24.362 61.8323 24.3316 61.8657 24.2935C61.899 24.2555 61.9145 24.2048 61.9119 24.1415C61.9093 24.0781 61.8862 24.0274 61.8425 23.9868C61.7989 23.9463 61.7424 23.9133 61.6756 23.8905C61.6063 23.8652 61.5292 23.8449 61.4419 23.8272C61.3546 23.8094 61.2647 23.7917 61.1748 23.7714C61.0823 23.7511 60.9924 23.7283 60.9051 23.6979C60.8204 23.67 60.7433 23.6295 60.674 23.5813C60.6046 23.5331 60.5507 23.4698 60.5096 23.3937C60.4685 23.3177 60.448 23.2239 60.448 23.1124C60.448 22.9907 60.4788 22.8893 60.5379 22.8082C60.5969 22.7271 60.674 22.6612 60.7639 22.6105C60.8538 22.5598 60.9565 22.5243 61.0695 22.504C61.1825 22.4838 61.2878 22.4736 61.3905 22.4736C61.5061 22.4736 61.6191 22.4863 61.7244 22.5091C61.8297 22.5345 61.9273 22.5725 62.012 22.6282C62.0968 22.684 62.1687 22.755 62.2252 22.8412C62.2817 22.9299 62.3177 23.0338 62.3331 23.158H61.8143C61.7912 23.0414 61.7372 22.9603 61.6499 22.9223C61.5652 22.8817 61.465 22.8614 61.3546 22.8614C61.3186 22.8614 61.2775 22.864 61.2313 22.869C61.1825 22.8741 61.1388 22.8868 61.0952 22.902C61.0515 22.9172 61.0181 22.94 60.9873 22.9704C60.9565 23.0008 60.9436 23.0414 60.9436 23.0896C60.9436 23.1504 60.9642 23.1986 61.0079 23.2366C61.0489 23.2746 61.1054 23.305 61.1748 23.3304C61.2441 23.3557 61.3212 23.376 61.4085 23.3937C61.4958 23.4115 61.5857 23.4292 61.6782 23.4495C61.7681 23.4698 61.858 23.4951 61.9453 23.523C62.0326 23.5509 62.1096 23.5914 62.179 23.6396C62.2483 23.6878 62.3023 23.7511 62.3459 23.8246C62.387 23.8981 62.4101 23.9919 62.4101 24.1009C62.4101 24.2327 62.3793 24.3442 62.3177 24.438C62.256 24.5293 62.1764 24.6053 62.0788 24.6611C61.9812 24.7194 61.8734 24.7599 61.7527 24.7853C61.6345 24.8106 61.5164 24.8233 61.3982 24.8233C61.2544 24.8233 61.1234 24.8081 61.0027 24.7751C60.882 24.7447 60.7767 24.6966 60.6894 24.6307C60.6021 24.5648 60.5302 24.4862 60.4788 24.3899C60.4274 24.2935 60.4017 24.1795 60.3992 24.0477H60.8974L60.9 24.0451Z" fill="black"/>
<path d="M63.1395 23.7739C63.1395 23.8601 63.1523 23.9438 63.1754 24.0249C63.2011 24.106 63.2371 24.1769 63.2859 24.2352C63.3347 24.2961 63.3989 24.3442 63.4734 24.3797C63.5478 24.4152 63.6403 24.433 63.743 24.433C63.8894 24.433 64.005 24.4025 64.0949 24.3392C64.1848 24.2783 64.249 24.1846 64.2926 24.0604H64.7652C64.7395 24.182 64.6933 24.2885 64.6291 24.3848C64.5649 24.4786 64.4878 24.5597 64.3979 24.6231C64.3081 24.6864 64.2053 24.7371 64.0949 24.7701C63.9819 24.803 63.8663 24.8208 63.743 24.8208C63.5658 24.8208 63.4092 24.7929 63.2705 24.7346C63.1318 24.6763 63.0188 24.5977 62.9238 24.4938C62.8287 24.3899 62.7568 24.2657 62.7106 24.1237C62.6644 23.9818 62.6387 23.8221 62.6387 23.6497C62.6387 23.4926 62.6644 23.3405 62.7157 23.1986C62.7671 23.0566 62.839 22.9324 62.934 22.8234C63.0291 22.717 63.1421 22.6308 63.2756 22.5674C63.4092 22.504 63.5607 22.4736 63.7302 22.4736C63.9074 22.4736 64.0666 22.5091 64.2079 22.5826C64.3491 22.6561 64.4673 22.7524 64.5597 22.8741C64.6522 22.9958 64.7215 23.1327 64.7626 23.2898C64.8037 23.447 64.8166 23.6092 64.796 23.7739H63.1369H63.1395ZM64.3003 23.452C64.2952 23.3734 64.2772 23.2999 64.249 23.229C64.2207 23.158 64.1848 23.0946 64.136 23.0414C64.0872 22.9882 64.0307 22.9451 63.9613 22.9121C63.892 22.8792 63.8175 22.8614 63.7328 22.8614C63.648 22.8614 63.5658 22.8766 63.4939 22.9071C63.422 22.9375 63.3604 22.978 63.3116 23.0313C63.2602 23.0845 63.2191 23.1479 63.1883 23.2188C63.1575 23.2898 63.1421 23.3684 63.1369 23.452H64.2978H64.3003Z" fill="black"/>
<path d="M68.615 24.7632H68.1425V24.4616H68.1348C68.068 24.5909 67.9704 24.6847 67.842 24.7404C67.7136 24.7962 67.5774 24.8241 67.4362 24.8241C67.259 24.8241 67.1049 24.7937 66.9713 24.7303C66.8378 24.6695 66.7299 24.5833 66.6426 24.4768C66.5553 24.3704 66.4885 24.2436 66.4448 24.0992C66.4012 23.9547 66.3806 23.7975 66.3806 23.6328C66.3806 23.4325 66.4089 23.2576 66.4628 23.1106C66.5167 22.9636 66.5912 22.8445 66.6837 22.7482C66.7761 22.6518 66.8814 22.5834 66.997 22.5378C67.1151 22.4947 67.2359 22.4719 67.3566 22.4719C67.4259 22.4719 67.4978 22.4795 67.5697 22.4922C67.6416 22.5048 67.7136 22.5251 67.7803 22.5555C67.8471 22.5859 67.9087 22.6214 67.9652 22.6645C68.0217 22.7101 68.0705 22.7608 68.1065 22.8217H68.1142V21.6836H68.6124V24.7607L68.615 24.7632ZM66.8763 23.6733C66.8763 23.7671 66.8891 23.8609 66.9123 23.9547C66.9379 24.0459 66.9739 24.1296 67.0253 24.2005C67.0766 24.2715 67.1408 24.3298 67.2204 24.3729C67.3001 24.416 67.3925 24.4363 67.5004 24.4363C67.6083 24.4363 67.7058 24.4135 67.7855 24.3678C67.8651 24.3222 67.9319 24.2614 67.9807 24.1879C68.032 24.1144 68.0705 24.0282 68.0937 23.9344C68.1193 23.8406 68.1296 23.7443 68.1296 23.648C68.1296 23.4021 68.0731 23.2095 67.9627 23.0701C67.8497 22.9332 67.6981 22.8622 67.5055 22.8622C67.3899 22.8622 67.2898 22.885 67.2102 22.9332C67.1306 22.9814 67.0638 23.0422 67.0124 23.1182C66.9611 23.1943 66.9251 23.2805 66.9045 23.3768C66.884 23.4731 66.8712 23.5719 66.8712 23.6708L66.8763 23.6733Z" fill="black"/>
<path d="M69.5063 23.7739C69.5063 23.8601 69.5191 23.9438 69.5423 24.0249C69.5679 24.106 69.6039 24.1769 69.6527 24.2352C69.7015 24.2961 69.7657 24.3442 69.8402 24.3797C69.9147 24.4152 70.0071 24.433 70.1099 24.433C70.2562 24.433 70.3718 24.4025 70.4617 24.3392C70.5516 24.2783 70.6158 24.1846 70.6595 24.0604H71.132C71.1063 24.182 71.0601 24.2885 70.9959 24.3848C70.9317 24.4786 70.8547 24.5597 70.7648 24.6231C70.6749 24.6864 70.5721 24.7371 70.4617 24.7701C70.3487 24.803 70.2331 24.8208 70.1099 24.8208C69.9326 24.8208 69.776 24.7929 69.6373 24.7346C69.4986 24.6763 69.3856 24.5977 69.2906 24.4938C69.1955 24.3899 69.1236 24.2657 69.0774 24.1237C69.0312 23.9818 69.0055 23.8221 69.0055 23.6497C69.0055 23.4926 69.0312 23.3405 69.0825 23.1986C69.1339 23.0566 69.2058 22.9324 69.3009 22.8234C69.3959 22.717 69.5089 22.6308 69.6424 22.5674C69.776 22.504 69.9275 22.4736 70.097 22.4736C70.2742 22.4736 70.4335 22.5091 70.5747 22.5826C70.716 22.6561 70.8341 22.7524 70.9266 22.8741C71.019 22.9958 71.0884 23.1327 71.1295 23.2898C71.1706 23.447 71.1834 23.6092 71.1629 23.7739H69.5037H69.5063ZM70.6672 23.452C70.662 23.3734 70.6441 23.2999 70.6158 23.229C70.5876 23.158 70.5516 23.0946 70.5028 23.0414C70.454 22.9882 70.3975 22.9451 70.3282 22.9121C70.2588 22.8792 70.1843 22.8614 70.0996 22.8614C70.0148 22.8614 69.9326 22.8766 69.8607 22.9071C69.7888 22.9375 69.7272 22.978 69.6784 23.0313C69.627 23.0845 69.5859 23.1479 69.5551 23.2188C69.5243 23.2898 69.5089 23.3684 69.5037 23.452H70.6646H70.6672Z" fill="black"/>
<path d="M71.8793 24.0451C71.8948 24.1896 71.9487 24.2885 72.0463 24.3468C72.1439 24.4051 72.2569 24.433 72.3904 24.433C72.4367 24.433 72.4906 24.4304 72.5497 24.4228C72.6087 24.4152 72.6652 24.4025 72.7166 24.3823C72.768 24.362 72.8116 24.3316 72.845 24.2935C72.8784 24.2555 72.8938 24.2048 72.8913 24.1415C72.8887 24.0781 72.8656 24.0274 72.8219 23.9868C72.7782 23.9463 72.7217 23.9133 72.655 23.8905C72.5856 23.8652 72.5086 23.8449 72.4213 23.8272C72.3339 23.8094 72.244 23.7917 72.1542 23.7714C72.0617 23.7511 71.9718 23.7283 71.8845 23.6979C71.7997 23.67 71.7227 23.6295 71.6533 23.5813C71.584 23.5331 71.5301 23.4698 71.489 23.3937C71.4479 23.3177 71.4273 23.2239 71.4273 23.1124C71.4273 22.9907 71.4582 22.8893 71.5172 22.8082C71.5763 22.7271 71.6533 22.6612 71.7432 22.6105C71.8331 22.5598 71.9359 22.5243 72.0489 22.504C72.1619 22.4838 72.2672 22.4736 72.3699 22.4736C72.4855 22.4736 72.5985 22.4863 72.7038 22.5091C72.8091 22.5345 72.9067 22.5725 72.9914 22.6282C73.0762 22.684 73.1481 22.755 73.2046 22.8412C73.2611 22.9299 73.297 23.0338 73.3125 23.158H72.7937C72.7705 23.0414 72.7166 22.9603 72.6293 22.9223C72.5445 22.8817 72.4444 22.8614 72.3339 22.8614C72.298 22.8614 72.2569 22.864 72.2107 22.869C72.1619 22.8741 72.1182 22.8868 72.0745 22.902C72.0309 22.9172 71.9975 22.94 71.9667 22.9704C71.9359 23.0008 71.923 23.0414 71.923 23.0896C71.923 23.1504 71.9436 23.1986 71.9872 23.2366C72.0283 23.2746 72.0848 23.305 72.1542 23.3304C72.2235 23.3557 72.3005 23.376 72.3879 23.3937C72.4752 23.4115 72.5651 23.4292 72.6575 23.4495C72.7474 23.4698 72.8373 23.4951 72.9246 23.523C73.012 23.5509 73.089 23.5914 73.1584 23.6396C73.2277 23.6878 73.2816 23.7511 73.3253 23.8246C73.3664 23.8981 73.3895 23.9919 73.3895 24.1009C73.3895 24.2327 73.3587 24.3442 73.297 24.438C73.2354 24.5293 73.1558 24.6053 73.0582 24.6611C72.9606 24.7194 72.8527 24.7599 72.732 24.7853C72.6139 24.8106 72.4957 24.8233 72.3776 24.8233C72.2338 24.8233 72.1028 24.8081 71.9821 24.7751C71.8614 24.7447 71.7561 24.6966 71.6687 24.6307C71.5814 24.5648 71.5095 24.4862 71.4582 24.3899C71.4068 24.2935 71.3811 24.1795 71.3785 24.0477H71.8768L71.8793 24.0451Z" fill="black"/>
<path d="M75.5956 23.7364C75.5956 23.853 75.6162 23.9544 75.6573 24.038C75.6984 24.1217 75.7549 24.1901 75.8268 24.2433C75.8987 24.2965 75.9834 24.3346 76.0785 24.3599C76.1735 24.3853 76.2762 24.3954 76.3867 24.3954C76.5048 24.3954 76.6075 24.3827 76.6923 24.3548C76.777 24.327 76.8438 24.2915 76.8977 24.2484C76.9517 24.2053 76.9876 24.1546 77.0107 24.0988C77.0339 24.0431 77.0467 23.9873 77.0467 23.929C77.0467 23.8124 77.021 23.7237 76.9671 23.6679C76.9131 23.6122 76.8541 23.5716 76.7899 23.5488C76.6794 23.5083 76.551 23.4702 76.4046 23.4348C76.2582 23.3993 76.0759 23.3511 75.8602 23.2953C75.7266 23.2599 75.6136 23.2142 75.5263 23.1585C75.439 23.1027 75.367 23.0393 75.3157 22.9709C75.2643 22.9025 75.2258 22.829 75.2052 22.7504C75.1847 22.6718 75.1719 22.5932 75.1719 22.5147C75.1719 22.36 75.2052 22.2257 75.2695 22.1116C75.3362 21.9976 75.421 21.9038 75.5289 21.8303C75.6367 21.7568 75.76 21.701 75.8961 21.6655C76.0322 21.63 76.1709 21.6123 76.3122 21.6123C76.474 21.6123 76.6281 21.6326 76.7719 21.6757C76.9157 21.7188 77.0416 21.7796 77.152 21.8632C77.2599 21.9469 77.3472 22.0483 77.4114 22.1699C77.4756 22.2916 77.5064 22.4335 77.5064 22.5932H76.9619C76.9465 22.3955 76.8798 22.2561 76.7565 22.1725C76.6332 22.0914 76.4791 22.0508 76.2891 22.0508C76.2249 22.0508 76.1606 22.0584 76.0913 22.0711C76.022 22.0838 75.9629 22.1066 75.909 22.1345C75.855 22.1623 75.8088 22.2054 75.7703 22.2561C75.7317 22.3068 75.7163 22.3727 75.7163 22.4513C75.7163 22.5603 75.7497 22.6465 75.8191 22.7073C75.8884 22.7681 75.9757 22.8163 76.0887 22.8467C76.1016 22.8492 76.1452 22.8619 76.2274 22.8822C76.307 22.9025 76.3969 22.9278 76.4971 22.9532C76.5973 22.9785 76.6923 23.0039 76.7873 23.0292C76.8823 23.0545 76.9491 23.0723 76.9902 23.0824C77.0929 23.1128 77.1802 23.1559 77.2573 23.2117C77.3318 23.2649 77.396 23.3283 77.4473 23.3993C77.4987 23.4702 77.5347 23.5463 77.5603 23.6249C77.586 23.7034 77.5963 23.7845 77.5963 23.8656C77.5963 24.038 77.5604 24.185 77.4884 24.3067C77.4165 24.4284 77.3241 24.5297 77.2059 24.6058C77.0878 24.6818 76.9568 24.7401 76.8078 24.7756C76.6589 24.8111 76.5074 24.8288 76.3533 24.8288C76.1761 24.8288 76.0091 24.8086 75.8499 24.7655C75.6932 24.7224 75.5571 24.6565 75.439 24.5678C75.3234 24.479 75.2284 24.365 75.159 24.2256C75.0897 24.0862 75.0537 23.9214 75.0511 23.7313H75.5956V23.7364Z" fill="black"/>
<path d="M77.9713 21.6855H78.4696V22.1519H77.9713V21.6855ZM77.9713 22.5347H78.4696V24.7627H77.9713V22.5347Z" fill="black"/>
<path d="M78.7444 22.5348H79.1194V21.8682H79.6176V22.5348H80.067V22.9023H79.6176V24.0911C79.6176 24.1418 79.6176 24.1874 79.6253 24.2254C79.6304 24.2635 79.6407 24.2939 79.6561 24.3192C79.6715 24.3446 79.6972 24.3648 79.728 24.3775C79.7589 24.3902 79.8025 24.3978 79.859 24.3978C79.895 24.3978 79.9284 24.3978 79.9643 24.3978C79.9977 24.3978 80.0337 24.3902 80.0696 24.3826V24.7628C80.0131 24.7679 79.9592 24.7729 79.9078 24.7805C79.8539 24.7856 79.8025 24.7881 79.746 24.7881C79.615 24.7881 79.5097 24.7755 79.4301 24.7526C79.3505 24.7273 79.2863 24.6918 79.2426 24.6462C79.1964 24.598 79.1681 24.5397 79.1502 24.4662C79.1348 24.3953 79.1245 24.3116 79.1219 24.2204V22.9074H78.747V22.5399L78.7444 22.5348Z" fill="black"/>
<path d="M80.7733 23.7739C80.7733 23.8601 80.7861 23.9438 80.8092 24.0249C80.8349 24.106 80.8709 24.1769 80.9197 24.2352C80.9685 24.2961 81.0327 24.3442 81.1072 24.3797C81.1816 24.4152 81.2741 24.433 81.3768 24.433C81.5232 24.433 81.6388 24.4025 81.7287 24.3392C81.8186 24.2783 81.8828 24.1846 81.9264 24.0604H82.399C82.3733 24.182 82.3271 24.2885 82.2629 24.3848C82.1987 24.4811 82.1216 24.5597 82.0317 24.6231C81.9418 24.6864 81.8391 24.7371 81.7287 24.7701C81.6157 24.803 81.5001 24.8208 81.3768 24.8208C81.1996 24.8208 81.0429 24.7929 80.9043 24.7346C80.7681 24.6763 80.6526 24.5977 80.5575 24.4938C80.4625 24.3899 80.3906 24.2657 80.3444 24.1237C80.2956 23.9792 80.2725 23.8221 80.2725 23.6497C80.2725 23.4926 80.2981 23.3405 80.3495 23.1986C80.4009 23.0566 80.4728 22.9324 80.5678 22.8234C80.6628 22.717 80.7758 22.6308 80.9094 22.5674C81.0429 22.504 81.1945 22.4736 81.364 22.4736C81.5412 22.4736 81.7004 22.5091 81.8417 22.5826C81.9829 22.6561 82.1011 22.7524 82.1935 22.8741C82.286 22.9958 82.3553 23.1327 82.3964 23.2898C82.4375 23.447 82.4504 23.6092 82.4298 23.7739H80.7707H80.7733ZM81.9367 23.452C81.9316 23.3734 81.9136 23.2999 81.8853 23.229C81.8571 23.158 81.8211 23.0946 81.7723 23.0414C81.7235 22.9882 81.667 22.9451 81.5977 22.9121C81.5283 22.8792 81.4539 22.8614 81.3691 22.8614C81.2844 22.8614 81.2022 22.8766 81.1303 22.9071C81.0584 22.9375 80.9967 22.978 80.9479 23.0313C80.8991 23.0845 80.8555 23.1479 80.8246 23.2188C80.7938 23.2898 80.7784 23.3684 80.7733 23.452H81.9341H81.9367Z" fill="black"/>
<path d="M83.1489 24.0451C83.1643 24.1896 83.2182 24.2885 83.3158 24.3468C83.4134 24.4051 83.5264 24.433 83.66 24.433C83.7062 24.433 83.7601 24.4304 83.8192 24.4228C83.8783 24.4152 83.9348 24.4025 83.9861 24.3823C84.0375 24.362 84.0812 24.3316 84.1146 24.2935C84.1479 24.2555 84.1634 24.2048 84.1608 24.1415C84.1582 24.0781 84.1351 24.0274 84.0914 23.9868C84.0478 23.9463 83.9913 23.9133 83.9219 23.8905C83.8526 23.8652 83.7755 23.8449 83.6882 23.8272C83.6009 23.8094 83.511 23.7917 83.4211 23.7714C83.3287 23.7511 83.2388 23.7283 83.154 23.6979C83.0693 23.67 82.9922 23.6295 82.9229 23.5813C82.8535 23.5331 82.7996 23.4698 82.7585 23.3937C82.7174 23.3177 82.6969 23.2239 82.6969 23.1124C82.6969 22.9907 82.7277 22.8893 82.7868 22.8082C82.8458 22.7271 82.9229 22.6612 83.0128 22.6105C83.1052 22.5598 83.2054 22.5243 83.3184 22.504C83.4314 22.4838 83.5367 22.4736 83.6394 22.4736C83.755 22.4736 83.868 22.4863 83.9733 22.5091C84.0786 22.5345 84.1762 22.5725 84.261 22.6282C84.3457 22.684 84.4176 22.755 84.4741 22.8412C84.5306 22.9299 84.5666 23.0338 84.582 23.158H84.0632C84.0401 23.0414 83.9861 22.9603 83.8988 22.9223C83.8141 22.8817 83.7139 22.8614 83.6035 22.8614C83.5675 22.8614 83.5264 22.864 83.4802 22.869C83.4314 22.8741 83.3877 22.8868 83.3441 22.902C83.3004 22.9172 83.267 22.94 83.2362 22.9704C83.2054 23.0008 83.1926 23.0414 83.1926 23.0896C83.1926 23.1504 83.2131 23.1986 83.2568 23.2366C83.3004 23.2746 83.3544 23.305 83.4237 23.3304C83.493 23.3557 83.5701 23.376 83.6574 23.3937C83.7447 23.4115 83.8346 23.4292 83.9271 23.4495C84.017 23.4698 84.1069 23.4951 84.1942 23.523C84.2815 23.5509 84.3585 23.5914 84.4279 23.6396C84.4972 23.6878 84.5512 23.7511 84.5948 23.8246C84.6359 23.8981 84.659 23.9919 84.659 24.1009C84.659 24.2327 84.6282 24.3442 84.5666 24.438C84.5049 24.5293 84.4253 24.6053 84.3277 24.6611C84.2301 24.7194 84.1223 24.7599 84.0016 24.7853C83.8834 24.8106 83.7653 24.8233 83.6471 24.8233C83.5059 24.8233 83.3723 24.8081 83.2516 24.7751C83.1309 24.7447 83.0256 24.6966 82.9383 24.6307C82.851 24.5648 82.7791 24.4862 82.7277 24.3899C82.6763 24.2935 82.6506 24.1795 82.6481 24.0477H83.1463L83.1489 24.0451Z" fill="black"/>
<path d="M88.5629 24.7632H88.0903V24.4616H88.0826C88.0158 24.5909 87.9183 24.6847 87.7898 24.7404C87.6614 24.7962 87.5253 24.8241 87.384 24.8241C87.2068 24.8241 87.0527 24.7937 86.9192 24.7303C86.7856 24.6695 86.6778 24.5833 86.5905 24.4768C86.5031 24.3704 86.4364 24.2436 86.3927 24.0992C86.349 23.9547 86.3285 23.7975 86.3285 23.6328C86.3285 23.4325 86.3567 23.2576 86.4107 23.1106C86.4646 22.9636 86.5391 22.8445 86.6315 22.7482C86.724 22.6544 86.8267 22.5834 86.9449 22.5378C87.063 22.4947 87.1837 22.4719 87.3044 22.4719C87.3738 22.4719 87.4457 22.4795 87.5176 22.4922C87.5895 22.5048 87.6589 22.5251 87.7282 22.5555C87.7975 22.5859 87.8566 22.6214 87.9131 22.6645C87.9696 22.7076 88.0184 22.7608 88.0544 22.8217H88.0621V21.6836H88.5603V24.7607L88.5629 24.7632ZM86.8267 23.6733C86.8267 23.7671 86.8396 23.8609 86.8627 23.9547C86.8884 24.0459 86.9243 24.1296 86.9757 24.2005C87.0271 24.2715 87.0913 24.3298 87.1709 24.3729C87.2505 24.416 87.343 24.4363 87.4508 24.4363C87.5587 24.4363 87.6563 24.4135 87.7359 24.3678C87.8155 24.3222 87.8823 24.2614 87.9337 24.1879C87.985 24.1144 88.0236 24.0282 88.0467 23.9344C88.0724 23.8406 88.0826 23.7443 88.0826 23.648C88.0826 23.4021 88.0261 23.2095 87.9157 23.0701C87.8052 22.9307 87.6512 22.8622 87.4585 22.8622C87.343 22.8622 87.2428 22.885 87.1632 22.9332C87.0836 22.9814 87.0168 23.0422 86.968 23.1182C86.9166 23.1943 86.8807 23.2805 86.8576 23.3768C86.8344 23.4731 86.8242 23.5719 86.8242 23.6708L86.8267 23.6733Z" fill="black"/>
<path d="M89.4541 23.7739C89.4541 23.8601 89.4669 23.9438 89.49 24.0249C89.5157 24.106 89.5517 24.1769 89.6004 24.2352C89.6492 24.2961 89.7135 24.3442 89.7879 24.3797C89.8624 24.4152 89.9549 24.433 90.0576 24.433C90.204 24.433 90.3196 24.4025 90.4095 24.3392C90.4993 24.2783 90.5636 24.1846 90.6072 24.0604H91.0798C91.0541 24.182 91.0079 24.2885 90.9437 24.3848C90.8795 24.4811 90.8024 24.5597 90.7125 24.6231C90.6226 24.6864 90.5199 24.7371 90.4095 24.7701C90.2965 24.803 90.1809 24.8208 90.0576 24.8208C89.8804 24.8208 89.7237 24.7929 89.585 24.7346C89.4489 24.6763 89.3333 24.5977 89.2383 24.4938C89.1433 24.3899 89.0714 24.2657 89.0252 24.1237C88.9764 23.9792 88.9532 23.8221 88.9532 23.6497C88.9532 23.4926 88.9789 23.3405 89.0303 23.1986C89.0817 23.0566 89.1536 22.9324 89.2486 22.8234C89.3436 22.717 89.4566 22.6308 89.5902 22.5674C89.7237 22.504 89.8753 22.4736 90.0448 22.4736C90.222 22.4736 90.3812 22.5091 90.5225 22.5826C90.6637 22.6561 90.7819 22.7524 90.8743 22.8741C90.9668 22.9958 91.0361 23.1327 91.0772 23.2898C91.1183 23.447 91.1311 23.6092 91.1106 23.7739H89.4515H89.4541ZM90.6149 23.452C90.6098 23.3734 90.5918 23.2999 90.5636 23.229C90.5353 23.158 90.4993 23.0946 90.4505 23.0414C90.4018 22.9882 90.3453 22.9451 90.2759 22.9121C90.2066 22.8792 90.1321 22.8614 90.0473 22.8614C89.9626 22.8614 89.8804 22.8766 89.8085 22.9071C89.7366 22.9375 89.6749 22.978 89.6261 23.0313C89.5773 23.0845 89.5337 23.1479 89.5029 23.2188C89.472 23.2898 89.4566 23.3684 89.4515 23.452H90.6124H90.6149Z" fill="black"/>
<path d="M92.8724 21.6855H93.4169V24.2963H95.0015V24.7627H92.8699V21.6855H92.8724Z" fill="black"/>
<path d="M96.3036 24.8208C96.1239 24.8208 95.9621 24.7903 95.8208 24.732C95.6796 24.6737 95.5614 24.5926 95.4638 24.4887C95.3662 24.3848 95.2917 24.2606 95.2404 24.1186C95.189 23.9742 95.1633 23.817 95.1633 23.6447C95.1633 23.4723 95.189 23.3177 95.2404 23.1757C95.2917 23.0313 95.3662 22.9096 95.4638 22.8057C95.5614 22.7018 95.6796 22.6206 95.8208 22.5623C95.9621 22.504 96.1213 22.4736 96.3036 22.4736C96.486 22.4736 96.6452 22.504 96.7865 22.5623C96.9277 22.6206 97.0459 22.7018 97.1435 22.8057C97.2411 22.9096 97.3155 23.0338 97.3669 23.1757C97.4183 23.3202 97.444 23.4748 97.444 23.6447C97.444 23.8145 97.4183 23.9742 97.3669 24.1186C97.3155 24.2631 97.2411 24.3848 97.1435 24.4887C97.0459 24.5926 96.9277 24.6737 96.7865 24.732C96.6452 24.7903 96.4834 24.8208 96.3036 24.8208ZM96.3036 24.433C96.4141 24.433 96.5091 24.4101 96.5913 24.3645C96.6735 24.3189 96.7403 24.2581 96.7916 24.1846C96.843 24.111 96.8815 24.0249 96.9072 23.9311C96.9329 23.8373 96.9431 23.741 96.9431 23.6447C96.9431 23.5483 96.9303 23.4546 96.9072 23.3608C96.8841 23.267 96.843 23.1808 96.7916 23.1073C96.7403 23.0338 96.6735 22.9755 96.5913 22.9273C96.5091 22.8792 96.4141 22.8589 96.3036 22.8589C96.1932 22.8589 96.0982 22.8817 96.016 22.9273C95.9338 22.973 95.867 23.0338 95.8157 23.1073C95.7643 23.1808 95.7258 23.2645 95.7001 23.3608C95.6744 23.4571 95.6641 23.5509 95.6641 23.6447C95.6641 23.7384 95.677 23.8373 95.7001 23.9311C95.7232 24.0249 95.7643 24.1085 95.8157 24.1846C95.867 24.2581 95.9338 24.3189 96.016 24.3645C96.0982 24.4101 96.1932 24.433 96.3036 24.433Z" fill="black"/>
<path d="M97.8318 21.6855H98.33V22.1519H97.8318V21.6855ZM97.8318 22.5347H98.33V24.7627H97.8318V22.5347Z" fill="black"/>
<path d="M99.2083 24.0451C99.2237 24.1896 99.2777 24.2885 99.3753 24.3468C99.4729 24.4051 99.5859 24.433 99.7194 24.433C99.7656 24.433 99.8196 24.4304 99.8787 24.4228C99.9377 24.4152 99.9942 24.4025 100.046 24.3823C100.097 24.362 100.141 24.3316 100.174 24.2935C100.207 24.2555 100.223 24.2048 100.22 24.1415C100.218 24.0781 100.195 24.0274 100.151 23.9868C100.107 23.9463 100.051 23.9133 99.9814 23.8905C99.912 23.8652 99.835 23.8449 99.7477 23.8272C99.6603 23.8094 99.5705 23.7917 99.4806 23.7714C99.3881 23.7511 99.2982 23.7283 99.2135 23.6979C99.1287 23.67 99.0517 23.6295 98.9823 23.5813C98.913 23.5331 98.859 23.4698 98.818 23.3937C98.7769 23.3177 98.7563 23.2239 98.7563 23.1124C98.7563 22.9907 98.7871 22.8893 98.8462 22.8082C98.9053 22.7271 98.9823 22.6612 99.0722 22.6105C99.1647 22.5598 99.2648 22.5243 99.3778 22.504C99.4908 22.4838 99.5961 22.4736 99.6989 22.4736C99.8144 22.4736 99.9274 22.4863 100.033 22.5091C100.138 22.5345 100.236 22.5725 100.32 22.6282C100.405 22.684 100.477 22.755 100.534 22.8412C100.59 22.9299 100.626 23.0338 100.641 23.158H100.123C100.1 23.0414 100.046 22.9603 99.9583 22.9223C99.8735 22.8817 99.7733 22.8614 99.6629 22.8614C99.627 22.8614 99.5859 22.864 99.5396 22.869C99.4908 22.8741 99.4472 22.8868 99.4035 22.902C99.3599 22.9172 99.3265 22.94 99.2956 22.9704C99.2648 23.0008 99.252 23.0414 99.252 23.0896C99.252 23.1504 99.2725 23.1986 99.3162 23.2366C99.3599 23.2746 99.4138 23.305 99.4831 23.3304C99.5525 23.3557 99.6295 23.376 99.7168 23.3937C99.8042 23.4115 99.8941 23.4292 99.9865 23.4495C100.076 23.4698 100.166 23.4951 100.254 23.523C100.341 23.5509 100.418 23.5914 100.487 23.6396C100.557 23.6878 100.611 23.7511 100.654 23.8246C100.695 23.8981 100.718 23.9919 100.718 24.1009C100.718 24.2327 100.688 24.3442 100.626 24.438C100.564 24.5293 100.485 24.6053 100.387 24.6611C100.29 24.7194 100.182 24.7599 100.061 24.7853C99.9429 24.8106 99.8247 24.8233 99.7066 24.8233C99.5653 24.8233 99.4318 24.8081 99.3111 24.7751C99.1903 24.7447 99.085 24.6966 98.9977 24.6307C98.9104 24.5648 98.8385 24.4862 98.7871 24.3899C98.7358 24.2935 98.7101 24.1795 98.7075 24.0477H99.2058L99.2083 24.0451Z" fill="black"/>
<path d="M101.073 21.6855H101.571V22.1519H101.073V21.6855ZM101.073 22.5347H101.571V24.7627H101.073V22.5347Z" fill="black"/>
<path d="M102.072 22.5345H102.539V22.9654H102.547C102.563 22.9045 102.591 22.8462 102.632 22.7879C102.676 22.7296 102.724 22.6789 102.786 22.6308C102.845 22.5826 102.912 22.5446 102.984 22.5167C103.056 22.4888 103.13 22.4736 103.207 22.4736C103.266 22.4736 103.305 22.4736 103.328 22.4787C103.348 22.4812 103.372 22.4838 103.395 22.4863V22.9603C103.359 22.9552 103.325 22.9502 103.287 22.9451C103.251 22.94 103.215 22.9375 103.179 22.9375C103.094 22.9375 103.015 22.9552 102.94 22.9882C102.866 23.0211 102.801 23.0693 102.745 23.1352C102.688 23.1986 102.645 23.2797 102.614 23.3734C102.583 23.4672 102.565 23.5762 102.565 23.7004V24.7599H102.067V22.5319L102.072 22.5345Z" fill="black"/>
<path d="M103.944 24.0451C103.96 24.1896 104.014 24.2885 104.111 24.3468C104.209 24.4051 104.322 24.433 104.455 24.433C104.502 24.433 104.556 24.4304 104.615 24.4228C104.674 24.4152 104.73 24.4025 104.782 24.3823C104.833 24.362 104.877 24.3316 104.91 24.2935C104.943 24.2555 104.959 24.2048 104.956 24.1415C104.954 24.0781 104.931 24.0274 104.887 23.9868C104.843 23.9463 104.787 23.9133 104.717 23.8905C104.648 23.8652 104.571 23.8449 104.484 23.8272C104.396 23.8094 104.306 23.7917 104.217 23.7714C104.124 23.7511 104.034 23.7283 103.949 23.6979C103.865 23.67 103.788 23.6295 103.718 23.5813C103.649 23.5331 103.595 23.4698 103.554 23.3937C103.513 23.3177 103.492 23.2239 103.492 23.1124C103.492 22.9907 103.523 22.8893 103.582 22.8082C103.641 22.7271 103.718 22.6612 103.808 22.6105C103.901 22.5598 104.001 22.5243 104.114 22.504C104.227 22.4838 104.332 22.4736 104.435 22.4736C104.55 22.4736 104.663 22.4863 104.769 22.5091C104.874 22.5345 104.972 22.5725 105.056 22.6282C105.141 22.684 105.213 22.755 105.27 22.8412C105.326 22.9299 105.362 23.0338 105.377 23.158H104.859C104.835 23.0414 104.782 22.9603 104.694 22.9223C104.609 22.8817 104.509 22.8614 104.399 22.8614C104.363 22.8614 104.322 22.864 104.276 22.869C104.227 22.8741 104.183 22.8868 104.139 22.902C104.096 22.9172 104.062 22.94 104.032 22.9704C104.001 23.0008 103.988 23.0414 103.988 23.0896C103.988 23.1504 104.009 23.1986 104.052 23.2366C104.096 23.2746 104.15 23.305 104.219 23.3304C104.288 23.3557 104.365 23.376 104.453 23.3937C104.54 23.4115 104.63 23.4292 104.722 23.4495C104.812 23.4698 104.902 23.4951 104.99 23.523C105.077 23.5509 105.154 23.5914 105.223 23.6396C105.293 23.6878 105.347 23.7511 105.39 23.8246C105.431 23.8981 105.454 23.9919 105.454 24.1009C105.454 24.2327 105.424 24.3442 105.362 24.438C105.3 24.5293 105.221 24.6053 105.123 24.6611C105.026 24.7194 104.918 24.7599 104.797 24.7853C104.679 24.8106 104.561 24.8233 104.443 24.8233C104.301 24.8233 104.168 24.8081 104.047 24.7751C103.926 24.7447 103.821 24.6966 103.734 24.6307C103.646 24.5648 103.574 24.4862 103.523 24.3899C103.472 24.2935 103.446 24.1795 103.443 24.0477H103.942L103.944 24.0451Z" fill="black"/>
<path d="M66.7787 8.7263C67.8682 8.7263 68.7511 7.85474 68.7511 6.77965C68.7511 5.70456 67.8682 4.83301 66.7787 4.83301C65.6892 4.83301 64.8063 5.70456 64.8063 6.77965C64.8063 7.85474 65.6892 8.7263 66.7787 8.7263Z" fill="#E22126"/>
<path d="M24.9569 0.381836H0.178223V24.8366H24.9569V0.381836Z" fill="#E22126"/>
<path d="M20.5318 9.98784H15.2232V4.74609H9.91202V9.98784H4.60083V15.2271H9.91202V20.4688H15.2232V15.2271H20.5318V9.98784Z" fill="white"/>
<path d="M12.5675 12.6092C9.68079 12.6092 7.01236 11.6891 4.84216 10.1328C6.47815 12.6346 9.32637 14.2948 12.5675 14.2948C15.8087 14.2948 18.6569 12.6371 20.2929 10.1328C18.1227 11.6891 15.4543 12.6092 12.5675 12.6092Z" fill="#E22126"/>
<path d="M20.7784 9.6634C21.3742 10.2514 21.7312 10.9814 21.8545 11.7444C22.0394 10.8953 21.8005 9.97516 21.1302 9.31614C20.4599 8.65712 19.5302 8.41886 18.6698 8.60136C19.4403 8.72302 20.1825 9.07535 20.7784 9.6634Z" fill="white"/>
<path d="M4.3542 9.6634C3.75836 10.2514 3.40137 10.9814 3.27809 11.7444C3.09317 10.8953 3.33202 9.97516 4.00234 9.31614C4.67266 8.65712 5.60238 8.41886 6.46275 8.60136C5.69227 8.72302 4.95004 9.07535 4.3542 9.6634Z" fill="white"/>
</g>
</g>
<defs>
<clipPath id="clip0_307_1844">
<rect width="105.299" height="24.84" fill="white" transform="translate(0.178223 0.0800781)"/>
</clipPath>
</defs>
</svg>
