<?xml version="1.0" encoding="UTF-8"?>
<svg xmlns="http://www.w3.org/2000/svg" viewBox="0 0 262.31 292.57">
    <defs>
        <style>
            .cls-1 {
            fill: #d5f900;
            }

            .cls-2 {
            fill: #fff;
            }

            .cls-3 {
            fill: #efb5e7;
            }

            .cls-4 {
            fill: #080808;
            }
        </style>
    </defs>
    <g>
        <g>
            <path class="cls-4"
                  d="M248.06,26.98c10.44,9.61,14.59,25.12,13.65,38.96-.39,5.95-4.54,22.61-9.58,25.96-3.24,2.13-7.74.17-7.87-3.74-.07-2.23,3.22-8.23,4.13-10.92,5.31-15.69,3.61-34.49-10.49-44.89-2.82-2.09-6.73-2.92-6.27-7.42.21-2.04,2.02-3.85,4.02-4.17,3.82-.62,9.65,3.7,12.4,6.23Z"/>
            <path class="cls-4"
                  d="M220.89,33.3c9.31,9.93,20.01,21.28,18.61,36.06-14.91,58.05-27.83,116.76-43.82,174.53-2.86,10.32-6.83,28.04-13.58,35.97-7.14,8.36-17.64,13.32-28.78,12.06-34.64-8.12-69.56-15.13-104.16-23.32-9.05-2.13-20.37-4.3-28.97-7.26-13.09-4.49-20.98-18.38-19.54-32.04,14.55-61.14,29.06-122.43,45.54-183.08,2.06-7.57,4.13-16.4,6.73-23.7C56.92,11.29,69.67,1.67,81.55.61c11.46-1.05,33.52,4.23,45.6,6.49,23.12,4.36,46.25,9.15,69.24,14.14,12.12,2.64,15.67,2.66,24.5,12.06ZM229.15,68.24c.36-6.75-2.94-12.57-6.73-17.84-.49-.07-.54.95-.58,1.29-3.24,22.24-9.97,45.73-15.37,67.69-7.26,29.48-14.68,58.99-22.35,88.37-4.28,16.44-8.32,33.98-13.47,50.09-1.83,5.76-4.1,10.57-8.04,15.21-2.84,3.33-6.36,5.87-9.89,8.38,4.79.39,9.16.19,13.56-1.98,8.12-4.04,11.91-12.47,14.55-20.65,4.51-14.01,8.02-29.29,11.76-43.6,12.77-48.83,24.74-97.87,36.56-146.95ZM205.17,79.44c3.46-14.63,13.28-38.58-4.81-46.79-27.85-4.9-55.36-11.46-83.13-16.66-9.18-1.72-25.98-5.72-34.66-4.79-10.85,1.16-17.94,9.37-21.21,19.11-2.99,8.94-5.31,18.67-7.74,27.79-10.06,37.85-19.54,75.97-28.84,114.01-4.92,20.12-10.16,40.3-13.78,60.65.43,18.83,18.29,20.48,32.67,23.86,29.53,6.99,59.36,13.11,89.04,19.34,25.08-.62,28.28-23.1,33.55-42.32,13.93-50.72,26.78-102.98,38.9-154.2Z"/>
            <path class="cls-1"
                  d="M222.42,50.39c3.8,5.27,7.09,11.09,6.73,17.84-11.82,49.08-23.79,98.11-36.56,146.95-3.74,14.31-7.26,29.59-11.76,43.6-2.64,8.17-6.43,16.61-14.55,20.65-4.4,2.17-8.77,2.38-13.56,1.98,3.53-2.51,7.05-5.05,9.89-8.38,3.95-4.64,6.21-9.44,8.04-15.21,5.14-16.1,9.18-33.65,13.47-50.09,7.67-29.38,15.09-58.89,22.35-88.37,5.41-21.96,12.14-45.45,15.37-67.69.04-.34.09-1.37.58-1.29Z"/>
            <path class="cls-1"
                  d="M200.37,32.64c18.09,8.21,8.27,32.17,4.81,46.79-12.12,51.23-24.97,103.48-38.9,154.2-5.27,19.23-8.47,41.71-33.55,42.32-29.68-6.23-59.51-12.34-89.04-19.34-14.38-3.39-32.24-5.03-32.67-23.86,3.63-20.35,8.87-40.53,13.78-60.65,9.3-38.04,18.78-76.16,28.84-114.01,2.43-9.13,4.75-18.85,7.74-27.79,3.27-9.74,10.36-17.95,21.21-19.11,8.68-.94,25.47,3.07,34.66,4.79,27.77,5.2,55.29,11.76,83.13,16.66ZM192.87,83.89c2.23-9.8,3.7-18.46-6.43-24.33-26.95-6.3-54.05-12.59-81.17-18.29-5.7-1.2-18.98-4.69-24.05-4.11-4.79.56-9.84,3.78-12.16,8-6.62,21.23-11.03,43.24-16.51,64.84-7.09,27.92-16.27,56.89-21.94,85-1.83,9.05.26,14.98,9.52,18.03,7.63,2.52,17.13,4.15,25.1,6,17.02,3.96,34.39,8,51.53,11.35,14.91,2.92,33.52,9.33,40.15-9.54,11.82-45.65,25.51-90.95,35.97-136.96ZM149.85,44.89c6.66-.15,7.35-8.62,1.23-10.49l-33.65-6.85c-4.97.56-6.99,6.4-2.84,9.5,2.24,1.66,8.43,2.67,11.39,3.31,7.89,1.74,15.93,2.92,23.86,4.53ZM95.82,259.88c11.95,1.01,20.39-12.77,12.46-22.39-2.71-3.25-5.39-3.7-9.28-4.73-7.52-1.98-16.53-4.06-24.15-5.59-1.5-.3-2.34-.5-3.91-.34-10.59,1.03-16.08,13.6-9.63,22.09,3.12,4.1,6.7,4.47,11.35,5.74,6.21,1.68,17.02,4.69,23.15,5.22Z"/>
            <path class="cls-4"
                  d="M186.43,59.56c10.14,5.87,8.66,14.53,6.43,24.33-10.45,46.01-24.15,91.31-35.97,136.96-6.64,18.87-25.25,12.46-40.15,9.54-17.13-3.35-34.51-7.39-51.53-11.35-7.97-1.85-17.47-3.48-25.1-6-9.26-3.05-11.35-8.98-9.52-18.03,5.67-28.11,14.85-57.08,21.94-85,5.48-21.6,9.89-43.61,16.51-64.84,2.32-4.23,7.37-7.44,12.16-8,5.07-.58,18.35,2.92,24.05,4.11,27.12,5.7,54.22,11.99,81.17,18.29ZM184.45,74.44c.28-3.74-1.83-5.44-5.14-6.4-8.64-2.51-19.66-3.83-28.73-5.8-20.12-4.38-40.81-9.93-61.03-13.47-2.56-.45-5.41-1.23-8.02-.71-2.6.54-3.91,3.4-4.6,5.67-4.86,15.95-7.95,34.36-12.08,50.8-7.35,29.33-16.5,58.88-23.12,88.3-.75,3.37-2.99,8.94,1.81,9.95,24.65,5.59,49.23,11.75,73.95,16.94,6,1.25,15.6,3.72,21.43,3.89,1.93.07,4.43-.97,5.89-2.21,2.19-1.87,3.82-9.63,4.71-12.72,7.22-24.93,13.11-50.24,19.68-75.33,3.44-13.17,7.5-26.2,10.81-39.43,1.37-5.44,4.02-14.2,4.43-19.49Z"/>
            <path class="cls-3"
                  d="M179.31,68.05c3.31.95,5.42,2.66,5.14,6.4-.41,5.29-3.07,14.05-4.43,19.49-3.31,13.22-7.37,26.26-10.81,39.43-6.56,25.1-12.46,50.4-19.68,75.33-.9,3.09-2.52,10.85-4.71,12.72-1.46,1.23-3.96,2.28-5.89,2.21-5.84-.17-15.43-2.64-21.43-3.89-24.72-5.2-49.3-11.35-73.95-16.94-4.81-1.01-2.56-6.58-1.81-9.95,6.62-29.42,15.77-58.97,23.12-88.3,4.13-16.44,7.22-34.84,12.08-50.8.69-2.26,2-5.12,4.6-5.67,2.62-.52,5.46.26,8.02.71,20.22,3.53,40.9,9.09,61.03,13.47,9.07,1.96,20.09,3.29,28.73,5.8ZM134.72,142.28c25.27-11.07,30.69-44.79,5.24-59.14-13.91-7.84-30.97-6.99-44.29,1.63-7.71,4.97-18.7,18.53-13.77,28.05,2.82,5.44,14.78,7.71,20.07,5.93,7.05-2.38,7.24-11.93,15.71-12.64,6.06-.52,9.78,5.33,5.37,9.56-4.47,4.28-13.52,4.3-19.56,9.39-7.54,6.34-19.96,29.23-6.71,35.44l3.65,1.29c-16.14-1.65-25.96,20.54-10.7,29.34,19.23,11.07,33.23-18.95,15.79-27.75l-3.03-1.23c6.21.97,11.82.45,15.3-5.37,1.76-2.94,2.94-9.07,5.87-10.53,3.22-1.59,7.61-2.45,11.07-3.96Z"/>
            <path class="cls-4"
                  d="M151.09,34.4c6.12,1.87,5.42,10.34-1.23,10.49-7.93-1.61-15.97-2.79-23.86-4.53-2.96-.64-9.15-1.65-11.39-3.31-4.15-3.1-2.13-8.94,2.84-9.5l33.65,6.85Z"/>
            <path class="cls-2"
                  d="M118.13,86.36c15.64-.37,31.61,10.1,29.01,27.32-1.37,9.09-6.17,15.99-14.48,20.05-6.88,3.39-14.68,2.64-18.98,10.06-1.93,3.37-3.29,11.22-7.93,10.79-2.21-.21-5.85-1.18-6.21-3.7-.86-6.28,7.11-18.22,12.38-21.49,3.42-2.11,7.31-2.34,10.94-3.76,20.95-8.25,9.86-34.26-10.57-26.97-3.05,1.08-6.43,3.33-8.64,5.72-1.03,1.12-4.08,6.19-4.84,6.42-1.33.39-7.74-.79-8.98-1.48-2.26-1.27,1.33-8.15,2.45-9.84,5.41-8.1,16.27-12.89,25.85-13.13Z"/>
            <path class="cls-4"
                  d="M139.96,83.14c25.45,14.34,20.03,48.07-5.24,59.14-3.46,1.51-7.86,2.38-11.07,3.96-2.94,1.46-4.11,7.59-5.87,10.53-3.48,5.82-9.09,6.34-15.3,5.37l3.03,1.23c17.45,8.81,3.44,38.83-15.79,27.75-15.26-8.81-5.44-30.99,10.7-29.34l-3.65-1.29c-13.24-6.21-.82-29.1,6.71-35.44,6.04-5.09,15.09-5.11,19.56-9.39,4.41-4.23.69-10.08-5.37-9.56-8.47.71-8.66,10.27-15.71,12.64-5.29,1.78-17.24-.49-20.07-5.93-4.94-9.52,6.06-23.08,13.77-28.05,13.32-8.62,30.37-9.46,44.29-1.63ZM147.14,113.68c2.6-17.23-13.37-27.7-29.01-27.32-9.58.24-20.44,5.03-25.85,13.13-1.12,1.68-4.71,8.57-2.45,9.84,1.23.69,7.65,1.87,8.98,1.48.77-.22,3.82-5.29,4.84-6.42,2.21-2.39,5.59-4.64,8.64-5.72,20.42-7.29,31.51,18.72,10.57,26.97-3.63,1.42-7.52,1.65-10.94,3.76-5.27,3.27-13.24,15.21-12.38,21.49.36,2.52,4,3.5,6.21,3.7,4.64.43,6-7.42,7.93-10.79,4.3-7.42,12.1-6.68,18.98-10.06,8.3-4.06,13.11-10.96,14.48-20.05ZM104.01,179.59c2.43-5.12-.45-10.51-6.42-9.5-4.99.82-9.18,8.88-5.16,12.87,4.32,4.28,9.35,1.33,11.58-3.37Z"/>
            <path class="cls-4"
                  d="M108.28,237.49c7.93,9.61-.5,23.4-12.46,22.39-6.13-.52-16.94-3.53-23.15-5.22-4.66-1.27-8.23-1.65-11.35-5.74-6.45-8.49-.95-21.06,9.63-22.09,1.57-.17,2.41.04,3.91.34,7.61,1.53,16.63,3.61,24.15,5.59,3.89,1.03,6.56,1.48,9.28,4.73ZM96.87,249.6c3.35.32,5.31-3.35,3.1-5.33-.77-.69-10.01-2.99-11.78-3.42-5.42-1.33-10.96-2.24-16.4-3.44-2.36.11-3.03,2.24-2.21,4.28.88,2.17,6.64,3.16,8.9,3.74,4.92,1.27,13.63,3.72,18.38,4.17Z"/>
            <path class="cls-2"
                  d="M97.6,170.09c5.97-1.01,8.85,4.38,6.42,9.5-2.23,4.69-7.26,7.65-11.58,3.37-4.02-3.98.17-12.04,5.16-12.87Z"/>
            <path class="cls-2"
                  d="M99.97,244.27c2.21,1.98.24,5.65-3.1,5.33-4.75-.45-13.47-2.9-18.38-4.17-2.26-.58-8.02-1.57-8.9-3.74-.82-2.04-.15-4.17,2.21-4.28,5.44,1.2,10.98,2.11,16.4,3.44,1.78.43,11.02,2.73,11.78,3.42Z"/>
        </g>
    </g>
</svg>