<svg width="103" height="27" viewBox="0 0 103 27" fill="none" xmlns="http://www.w3.org/2000/svg">
<g clip-path="url(#clip0_307_1928)">
<mask id="mask0_307_1928" style="mask-type:luminance" maskUnits="userSpaceOnUse" x="0" y="0" width="103" height="15">
<path d="M102.517 0H0.438843V14.3497H102.517V0Z" fill="white"/>
</mask>
<g mask="url(#mask0_307_1928)">
<path d="M39.4108 0.197266H29.4801V2.08038H39.4108V0.197266Z" fill="#FF4773"/>
<path d="M39.4108 8.34961H29.4801V10.2327H39.4108V8.34961Z" fill="#85052E"/>
<path d="M39.4108 4.26953H29.4801V6.15265H39.4108V4.26953Z" fill="#DB001C"/>
<path d="M39.4108 6.15332H29.4801V8.35029H39.4108V6.15332Z" fill="#B50024"/>
<path d="M39.4108 2.08008H29.4801V4.27705H39.4108V2.08008Z" fill="#FF0A00"/>
<path d="M37.5443 4.27021H35.3716V2.07324H33.5122V4.27021H31.3395V6.15333H33.5122V8.35031H35.3716V6.15333H37.5443V4.27021Z" fill="white"/>
<path d="M40.6869 12.2911L45.7908 6.15265H41.037V4.26953H48.6563V5.70012L43.3045 12.1889H48.8532V14.0719H40.6869V12.2911Z" fill="#DB001C"/>
<path d="M49.2833 9.17493C49.2833 6.0583 51.2447 4 54.3071 4C57.7194 4 59.4838 6.80278 58.536 10.0143H51.6676C51.9227 11.5252 52.8123 12.3865 54.2852 12.3865C55.2913 12.3865 55.9548 11.9923 56.3632 11.3646H58.8496C58.1932 13.0871 56.6767 14.3426 54.256 14.3426C51.2301 14.3426 49.2906 12.2843 49.2906 9.16763L49.2833 9.17493ZM56.4361 8.35015C56.633 6.86117 55.8383 5.88312 54.2632 5.88312C52.6883 5.88312 51.879 6.76629 51.6676 8.35015H56.4361Z" fill="#DB001C"/>
<path d="M64.194 5.97749C63.0858 5.97749 62.4077 7.2913 62.4077 9.2693V14.072H60.1984V4.26955H62.4077V5.9337C62.9327 4.72208 63.8586 3.99219 65.0617 3.99219C67.6574 3.99219 68.0074 6.70009 67.5043 8.34233H65.1784C65.6085 7.13072 65.3533 5.97019 64.1867 5.97019L64.194 5.97749Z" fill="#DB001C"/>
<path d="M68.8459 0.350586H71.0551V14.0725H68.8459V0.350586Z" fill="#DB001C"/>
<path d="M79.2069 12.3718C78.4924 13.6272 77.3039 14.3499 75.7144 14.3499C73.6582 14.3499 72.3822 13.0142 72.3822 11.3135C72.3822 9.3355 74.0884 8.08009 76.8226 8.08009C77.581 8.08009 78.3538 8.17497 79.0319 8.33555C78.9955 6.94147 78.4487 5.94151 76.9539 5.94151C75.7873 5.94151 75.2842 6.53272 75.1675 7.13853H72.8999C72.9218 5.3576 74.453 4 76.9757 4C79.8048 4 81.2412 5.78094 81.2412 8.51073V14.0797H79.2069V12.3718ZM76.1591 12.5616C77.632 12.5616 78.8131 11.5835 79.1486 10.0362C78.5069 9.81723 77.7122 9.70045 76.9976 9.70045C75.4081 9.70045 74.6279 10.3501 74.6279 11.2478C74.6279 12.0288 75.2113 12.5616 76.1591 12.5616Z" fill="#DB001C"/>
<path d="M82.889 4.26955H85.0982V6.07238C85.7399 4.78048 86.9211 3.99219 88.394 3.99219C91.5147 3.99219 91.5146 7.10883 91.5146 8.5759V14.0647H89.3054V8.63429C89.3054 7.51756 89.3054 5.9264 87.5991 5.9264C86.1263 5.9264 85.0982 7.2621 85.0982 9.262V14.0647H82.889V4.26955Z" fill="#DB001C"/>
<path d="M92.6229 9.17496C92.6229 6.08023 94.4239 4.00003 97.005 4.00003C98.4195 4.00003 99.5642 4.62774 100.301 5.72258V0.350586H102.51V14.0725H100.301V12.6201C99.5642 13.7149 98.4195 14.3426 97.005 14.3426C94.4457 14.3426 92.6229 12.2843 92.6229 9.16767V9.17496ZM100.403 9.17496C100.403 7.23346 99.3164 5.96345 97.6904 5.96345C96.0644 5.96345 94.9561 7.24075 94.9561 9.17496C94.9561 11.1092 96.0425 12.3865 97.6904 12.3865C99.3382 12.3865 100.403 11.1092 100.403 9.17496Z" fill="#DB001C"/>
<path d="M0.446227 10.5617H2.58258C2.44404 11.7733 3.34087 12.5397 4.85018 12.5397C6.03136 12.5397 6.82612 12.0726 6.82612 11.3646C6.82612 9.40849 0.584762 10.8172 0.584762 7.15313C0.584762 5.19702 2.38572 4 4.73352 4C7.32922 4 9.21037 5.46709 8.80935 7.68595H6.65841C6.9282 6.56921 6.06054 5.80283 4.71893 5.80283C3.59607 5.80283 2.85965 6.31375 2.85965 7.01444C2.85965 8.99246 9.12289 7.48158 9.12289 11.2114C9.12289 13.1893 7.35838 14.3499 4.8356 14.3499C2.10135 14.3499 0.300402 12.9412 0.453519 10.569L0.446227 10.5617Z" fill="#DB001C"/>
<path d="M9.23218 4.26953H11.58L13.6143 11.7801L15.6485 4.26953H17.9963L19.9722 11.6779L22.0648 4.26953H24.3762L21.3503 14.0719H18.7692L16.7933 7.18909L14.8538 14.0719H12.258L9.23218 4.26953Z" fill="#DB001C"/>
<path d="M25.1199 1.43059C25.1199 0.627706 25.7396 0 26.5345 0C27.3292 0 27.9489 0.627706 27.9489 1.43059C27.9489 2.23346 27.3292 2.86117 26.5345 2.86117C25.7396 2.86117 25.1199 2.23346 25.1199 1.43059ZM25.4116 4.26987H27.6208V14.0723H25.4116V4.26987Z" fill="#DB001C"/>
</g>
<path d="M32.7694 26.9798C32.0819 26.8924 31.5919 26.4437 31.1702 25.9563C31.1408 25.9228 31.1723 25.8678 31.0617 25.8969V26.8385H29.5905V17.7959H31.0617V21.3282C31.5464 20.7511 32.1058 20.2852 32.8941 20.2033C37.221 19.7546 37.2178 26.5731 33.8134 26.9798C33.5868 27.0068 32.9949 27.0078 32.7694 26.9798ZM34.1279 21.9569C33.6617 21.4932 32.9342 21.3659 32.3151 21.5611C30.3538 22.1823 30.7083 26.0296 33.1597 25.6964C34.8488 25.4666 35.1762 23 34.1279 21.9569Z" fill="#85052E"/>
<path d="M39.6988 26.9775C38.1322 26.7916 37.0885 25.4512 36.9852 23.9516C36.8189 21.561 38.3724 20.0035 40.8109 20.2238C42.8623 20.4097 43.7929 22.3166 43.22 24.1601H38.605C38.7333 25.6866 40.6 26.2359 41.6512 25.1684C41.6903 25.1287 41.6903 25.0524 41.6969 25.0524H43.4091C43.1439 25.7467 42.6188 26.3508 41.9339 26.6712C41.6936 26.7829 41.1914 26.9496 40.9359 26.9765C40.6532 27.0066 39.9782 27.0098 39.6988 26.9765V26.9775ZM41.7915 23.082C42.0795 20.7709 38.6094 20.9838 38.604 23.082H41.7915Z" fill="#85052E"/>
<path d="M14.0491 26.9775C12.4825 26.7916 11.4388 25.4512 11.3355 23.9516C11.1692 21.561 12.7227 20.0035 15.1612 20.2238C17.2126 20.4097 18.1432 22.3166 17.5703 24.1601H12.9554C13.0837 25.6866 14.9503 26.2359 16.0016 25.1684C16.0407 25.1287 16.0407 25.0524 16.0472 25.0524H17.7595C17.4942 25.7467 16.9691 26.3508 16.2842 26.6712C16.044 26.7829 15.5417 26.9496 15.2862 26.9765C15.0035 27.0066 14.3284 27.0098 14.0491 26.9765V26.9775ZM16.1418 23.082C16.4299 20.7709 12.9597 20.9838 12.9543 23.082H16.1418Z" fill="#85052E"/>
<path d="M3.18279 17.7959L5.50125 24.9688L7.74941 17.7959H10.3296V26.8556H8.76698V19.2591L6.19008 26.8588L4.59723 26.8275L2.09494 19.353V26.8556H0.533447V17.7959H3.18279Z" fill="#85052E"/>
<path d="M20.1745 21.4569C20.3292 21.2985 20.407 21.0891 20.554 20.9133C21.549 19.7275 23.6738 19.9553 24.1723 21.5047C24.8492 19.8707 27.4445 19.5875 28.1128 21.3962C28.1744 21.5611 28.3129 22.0841 28.3129 22.2381V26.858H26.8454V22.6179C26.8454 22.4714 26.7027 22.0808 26.6184 21.9452C26.2031 21.2834 25.3326 21.3636 24.8384 21.8866C24.634 22.1026 24.2912 22.8078 24.2912 23.0909V26.7865L24.2199 26.858H22.8476L22.7763 26.7865V22.4746C22.7763 22.0179 22.3156 21.5036 21.8538 21.4559C21.0147 21.3691 20.4437 22.1221 20.2826 22.8674C20.0144 24.1054 20.2599 25.5865 20.1734 26.8569H18.7061V20.3665H20.1734V21.4559L20.1745 21.4569Z" fill="#85052E"/>
<path d="M47.6873 23.0934C48.0049 22.3111 47.6656 21.1375 46.6292 21.5999C46.2289 21.7787 45.832 22.6204 45.832 23.0234V26.7876L45.7603 26.8587H44.3802L44.3083 26.7876V20.4112H45.8309V21.3519L46.329 20.6914C47.298 19.8648 48.8563 20.0836 49.2555 21.3789C49.4066 21.8692 49.4371 22.6386 49.187 23.0934H47.6884H47.6873Z" fill="#85052E"/>
</g>
<defs>
<clipPath id="clip0_307_1928">
<rect width="102.078" height="27" fill="white" transform="translate(0.438843)"/>
</clipPath>
</defs>
</svg>
