<svg width="106" height="23" viewBox="0 0 106 23" fill="none" xmlns="http://www.w3.org/2000/svg">
<path d="M44.8313 15.3C44.8313 15.3 43.9247 15.3 43.2314 15.3C43.5159 14.335 44.1913 12.0656 44.1913 12.0656C44.1913 12.0656 41.916 12.0656 40.9739 12.0656C41.1872 11.3509 41.3294 10.8684 41.4716 10.3859C42.2538 10.3859 44.6891 10.3859 44.6891 10.3859C44.6891 10.3859 45.4179 7.9021 45.649 7.13373C46.1289 7.13373 46.5556 7.13373 47.2488 7.13373C46.9644 8.09867 46.2889 10.3859 46.2889 10.3859H47.9065C48.191 9.42099 49.3286 5.5791 49.3286 5.5791H48.2798H44.4758C44.4758 5.5791 43.7469 8.06293 43.5159 8.83131C42.7337 8.83131 40.2806 8.83131 40.2806 8.83131L38.8585 13.6381C38.8585 13.6381 41.1339 13.6381 42.076 13.6381C41.7916 14.5852 41.1161 16.8903 41.1161 16.8903H45.969C45.969 16.8903 46.2 16.1398 46.4311 15.3357H44.8313V15.3Z" fill="#E32F2B"/>
<path d="M46.9644 16.8722C51.3374 16.8722 54.1638 13.5843 54.1638 9.68876C54.1638 5.3644 50.413 2.05859 45.5424 2.05859C39.9962 2.05859 35.6766 6.32934 35.6766 11.8152C35.6766 17.3547 39.9784 21.5182 45.7023 21.5182C47.6399 21.5182 49.7375 20.8928 51.2663 19.8206C52.635 18.8914 53.2572 18.0516 54.1104 16.0681H52.3684C50.6619 18.4804 48.5821 19.5526 45.6135 19.5526C41.1694 19.5526 37.6853 16.1753 37.6853 11.8331C37.6853 7.54445 41.205 3.9706 45.4535 3.9706C47.0356 3.9706 48.7954 4.57816 50.1108 5.56097C51.4618 6.59738 52.1373 7.97332 52.1373 9.7245C52.1373 12.1905 50.9463 15.1389 47.4089 15.2997L46.9644 16.8722Z" fill="#E32F2B"/>
<path d="M63.8339 14.531H63.7983C62.394 16.3179 61.0075 17.0506 59.2832 17.0506C57.8434 17.0506 56.1191 16.1214 57.0434 13.1015L59.3188 5.61426H61.3275L59.3366 12.1901C58.8566 13.7984 58.5722 15.2637 60.5453 15.2637C63.0518 15.2637 64.2783 12.8334 64.7583 11.2252L66.4648 5.61426H68.4379L65.0249 16.8004H63.1229L63.8339 14.531Z" fill="#333333"/>
<path d="M76.6326 8.49167C76.1349 7.68755 75.2994 7.3659 74.1973 7.3659C73.0241 7.3659 72.0108 7.7769 71.7264 8.74184C70.9443 11.315 76.7571 9.38513 75.4594 13.6201C74.7839 15.8181 72.473 17.051 70.7132 17.051C69.2733 17.051 68.3845 16.6043 67.869 16.0504L68.5267 13.9061C69.0067 14.7995 69.9666 15.2462 71.1043 15.2462C72.082 15.2462 73.2907 14.871 73.6107 13.8167C74.4284 11.1184 68.3667 13.1734 69.6644 8.92053C70.3754 6.57966 72.5441 5.34668 74.4462 5.34668C75.7794 5.34668 76.5437 5.59685 77.3081 6.24014L76.6326 8.49167Z" fill="#333333"/>
<path d="M83.9031 16.8006H81.8944L82.4454 14.9779H82.4099C81.4677 16.1752 80.0279 17.0507 78.6769 17.0507C76.8993 17.0507 76.1171 15.9607 76.6682 14.1559C77.5392 11.2968 79.9923 11.1182 82.321 10.4034C83.2987 10.1175 84.0808 9.90305 84.4008 8.86663C84.7563 7.723 83.8142 7.38348 82.9076 7.38348C81.3433 7.38348 80.1168 8.06251 78.7836 9.20615L79.4413 7.06184C80.8278 6.07903 82.0721 5.36426 83.8853 5.36426C86.1606 5.36426 87.0672 6.47215 86.3917 8.68794L83.9031 16.8006ZM83.6009 11.2075H83.5653C81.6811 12.0831 79.2991 12.0831 78.6947 14.0666C78.4103 14.9779 79.068 15.4604 79.7968 15.4604C81.3433 15.4604 82.7832 13.8879 83.2098 12.4405L83.6009 11.2075Z" fill="#333333"/>
<path d="M90.107 5.59685H92.009L91.3513 7.7769H91.3868C92.4356 6.31162 93.9644 5.34668 95.5287 5.34668C97.1996 5.34668 98.0529 6.40097 97.8218 8.11641H97.8573C98.835 6.40097 100.257 5.34668 102.088 5.34668C105.003 5.34668 104.488 7.99133 104.008 9.56382L101.804 16.783H99.7949L101.59 10.8861C102.106 9.20644 102.568 7.34804 100.63 7.34804C98.7817 7.34804 97.5018 9.42087 96.9508 11.2078L95.262 16.783H93.2533L95.0487 10.8861C95.5642 9.20644 96.0264 7.34804 94.0888 7.34804C92.2401 7.34804 90.9602 9.42087 90.4092 11.2078L88.7027 16.8009H86.694L90.107 5.59685Z" fill="#333333"/>
<path d="M10.8078 8.49167C10.3278 7.68755 9.47459 7.3659 8.37247 7.3659C7.19925 7.3659 6.18602 7.7769 5.9016 8.74184C5.11945 11.315 10.9322 9.38513 9.63457 13.6201C8.97686 15.8181 6.64819 17.051 4.88836 17.051C3.4485 17.051 2.5597 16.6043 2.04419 16.0504L2.7019 13.9061C3.18186 14.7995 4.12399 15.2462 5.27944 15.2462C6.25712 15.2462 7.46589 14.871 7.78586 13.8167C8.60356 11.1184 2.54192 13.1734 3.83957 8.92053C4.55062 6.57966 6.7193 5.34668 8.62134 5.34668C9.95454 5.34668 10.7189 5.59685 11.4833 6.24014L10.8078 8.49167Z" fill="#333333"/>
<path d="M11.5189 16.4971C12.0877 17.3906 13.172 17.8909 14.8074 17.8909C17.1894 17.8909 18.1493 16.7115 18.6293 15.1569L19.0915 13.6737H19.0559C18.1138 15.1748 16.2295 15.8359 14.9319 15.8359C11.9277 15.8359 11.43 13.5129 12.2655 10.7968C13.1187 7.97346 15.1985 5.34668 18.3449 5.34668C19.8203 5.34668 20.8869 5.84702 21.1357 7.18721H21.1713L21.6512 5.61472H23.5533L20.6558 15.1569C19.9625 17.462 18.416 19.4991 14.3097 19.4991C12.8698 19.4991 11.5366 18.9809 10.9323 18.4806L11.5189 16.4971ZM18.256 7.25869C16.1762 7.25869 14.8252 8.59888 14.1497 10.8504C13.5453 12.816 14.0253 14.1562 16.034 14.1562C18.0071 14.1562 19.4292 12.5659 19.9981 10.6896C20.5491 8.84905 20.2291 7.25869 18.256 7.25869Z" fill="#333333"/>
<path d="M24.9575 5.59668H27.0373V14.7815H27.0729L32.6546 5.59668H34.7344L27.8195 16.7828H25.0642L24.9575 5.59668Z" fill="#333333"/>
</svg>
