<svg width="1441" height="514" viewBox="0 0 1441 514" xmlns="http://www.w3.org/2000/svg">
    <path d="M0 7.21521C9.60583 3.15374 19.2142 -0.907725 28.82 0.178481C38.4258 1.26764 48.0342 7.50447 57.64 7.21521C67.2458 6.92299 76.8542 0.101738 86.46 0.178481C96.0658 0.258176 105.674 7.23587 115.28 7.21521C124.886 7.19454 134.494 0.172578 144.1 0.178481C153.706 0.184384 163.314 7.21521 172.92 7.21521C182.526 7.21225 192.134 0.178481 201.74 0.178481C211.346 0.178481 220.954 7.21521 230.56 7.21521C240.166 7.21521 249.774 0.178481 259.38 0.178481C268.986 0.178481 278.594 7.21521 288.2 7.21521C297.806 7.21521 307.414 0.178481 317.02 0.178481C326.626 0.178481 336.234 7.21521 345.84 7.21521C355.446 7.21521 365.054 0.178481 374.66 0.178481C384.266 0.178481 393.874 7.21521 403.48 7.21521C413.086 7.21521 422.694 0.178481 432.3 0.178481C441.906 0.178481 451.514 7.21521 461.12 7.21521C470.726 7.21521 480.334 0.178481 489.94 0.178481C499.546 0.178481 509.154 7.21521 518.76 7.21521C528.366 7.21521 537.974 0.178481 547.58 0.178481C557.186 0.178481 566.794 7.21521 576.4 7.21521C586.006 7.21521 595.614 0.178481 605.22 0.178481C614.826 0.178481 624.434 7.21521 634.04 7.21521C643.646 7.21521 653.254 0.178481 662.86 0.178481C672.466 0.178481 682.074 7.21521 691.68 7.21521C701.286 7.21521 710.894 0.178481 720.5 0.178481C730.106 0.178481 739.714 7.21521 749.32 7.21521C758.926 7.21521 768.534 0.178481 778.14 0.178481C787.746 0.178481 797.354 7.21521 806.96 7.21521C816.566 7.21521 826.174 0.178481 835.78 0.178481C845.386 0.178481 854.994 7.21521 864.6 7.21521C874.206 7.21521 883.814 0.178481 893.42 0.178481C903.026 0.178481 912.634 7.21521 922.24 7.21521C931.846 7.21521 941.454 0.178481 951.06 0.178481C960.666 0.178481 970.274 7.21521 979.88 7.21521C989.486 7.21521 999.094 0.178481 1008.7 0.178481C1018.31 0.178481 1027.91 7.21521 1037.52 7.21521C1047.13 7.21521 1056.73 0.178481 1066.34 0.178481C1075.95 0.178481 1085.55 7.21521 1095.16 7.21521C1104.77 7.21521 1114.37 0.178481 1123.98 0.178481C1133.59 0.178481 1143.19 7.21521 1152.8 7.21521C1162.41 7.21521 1172.01 0.178481 1181.62 0.178481C1191.23 0.178481 1200.83 7.21521 1210.44 7.21521C1220.05 7.21521 1229.65 0.178481 1239.26 0.178481C1248.87 0.178481 1258.47 7.21225 1268.08 7.21521C1277.69 7.21521 1287.29 0.184384 1296.9 0.178481C1306.51 0.172578 1316.11 7.19454 1325.72 7.21521C1335.33 7.23587 1344.93 0.258176 1354.54 0.178481C1364.15 0.101738 1373.75 6.92299 1383.36 7.21521C1392.97 7.50447 1402.57 1.26764 1412.18 0.178481C1421.79 -0.907725 1431.39 3.15374 1441 7.21521V513.718C1431.39 513.718 1421.79 513.718 1412.18 513.718C1402.57 513.718 1392.97 513.718 1383.36 513.718C1373.75 513.718 1364.15 513.718 1354.54 513.718C1344.93 513.718 1335.33 513.718 1325.72 513.718C1316.11 513.718 1306.51 513.718 1296.9 513.718C1287.29 513.718 1277.69 513.718 1268.08 513.718C1258.47 513.718 1248.87 513.718 1239.26 513.718C1229.65 513.718 1220.05 513.718 1210.44 513.718C1200.83 513.718 1191.23 513.718 1181.62 513.718C1172.01 513.718 1162.41 513.718 1152.8 513.718C1143.19 513.718 1133.59 513.718 1123.98 513.718C1114.37 513.718 1104.77 513.718 1095.16 513.718C1085.55 513.718 1075.95 513.718 1066.34 513.718C1056.73 513.718 1047.13 513.718 1037.52 513.718C1027.91 513.718 1018.31 513.718 1008.7 513.718C999.094 513.718 989.486 513.718 979.88 513.718C970.274 513.718 960.666 513.718 951.06 513.718C941.454 513.718 931.846 513.718 922.24 513.718C912.634 513.718 903.026 513.718 893.42 513.718C883.814 513.718 874.206 513.718 864.6 513.718C854.994 513.718 845.386 513.718 835.78 513.718C826.174 513.718 816.566 513.718 806.96 513.718C797.354 513.718 787.746 513.718 778.14 513.718C768.534 513.718 758.926 513.718 749.32 513.718C739.714 513.718 730.106 513.718 720.5 513.718C710.894 513.718 701.286 513.718 691.68 513.718C682.074 513.718 672.466 513.718 662.86 513.718C653.254 513.718 643.646 513.718 634.04 513.718C624.434 513.718 614.826 513.718 605.22 513.718C595.614 513.718 586.006 513.718 576.4 513.718C566.794 513.718 557.186 513.718 547.58 513.718C537.974 513.718 528.366 513.718 518.76 513.718C509.154 513.718 499.546 513.718 489.94 513.718C480.334 513.718 470.726 513.718 461.12 513.718C451.514 513.718 441.906 513.718 432.3 513.718C422.694 513.718 413.086 513.718 403.48 513.718C393.874 513.718 384.266 513.718 374.66 513.718C365.054 513.718 355.446 513.718 345.84 513.718C336.234 513.718 326.626 513.718 317.02 513.718C307.414 513.718 297.806 513.718 288.2 513.718C278.594 513.718 268.986 513.718 259.38 513.718C249.774 513.718 240.166 513.718 230.56 513.718C220.954 513.718 211.346 513.718 201.74 513.718C192.134 513.718 182.526 513.718 172.92 513.718C163.314 513.718 153.706 513.718 144.1 513.718C134.494 513.718 124.886 513.718 115.28 513.718C105.674 513.718 96.0658 513.718 86.46 513.718C76.8542 513.718 67.2458 513.718 57.64 513.718C48.0342 513.718 38.4258 513.718 28.82 513.718C19.2142 513.718 9.60583 513.718 0 513.718V7.21521Z"
          fill="currentColor"/>
</svg>
