<svg width="12" height="9" viewBox="0 0 12 9" fill="none" xmlns="http://www.w3.org/2000/svg">
<path d="M6 5.4699L10.1973 1.26694C10.3946 1.06937 10.6457 0.970581 10.9507 0.970581C11.2556 0.970581 11.5067 1.06937 11.704 1.26694C11.9013 1.46452 12 1.71598 12 2.02132C12 2.32666 11.9013 2.57812 11.704 2.7757L6.75336 7.73303C6.64574 7.84079 6.52915 7.91731 6.40359 7.96257C6.27803 8.00783 6.1435 8.03011 6 8.02939C5.8565 8.02867 5.72197 8.0064 5.59641 7.96257C5.47085 7.91875 5.35426 7.84223 5.24664 7.73303L0.295965 2.7757C0.098656 2.57812 -2.98023e-07 2.32666 -2.98023e-07 2.02132C-2.98023e-07 1.71598 0.098656 1.46452 0.295965 1.26694C0.493275 1.06937 0.744395 0.970581 1.04933 0.970581C1.35426 0.970581 1.60538 1.06937 1.80269 1.26694L6 5.4699Z" fill="black"/>
</svg>
